#N canvas 854 110 581 232 10;
#X obj 25 160 pack 0 0 0;
#X obj 18 50 kmid 122;
#X obj 87 50 kmid 120;
#X obj 158 50 kmid 99;
#X obj 225 50 kmid 118;
#X obj 291 50 kmid 98;
#X obj 355 50 kmid 110;
#X obj 426 50 kmid 109;
#X obj 501 50 kmid 44;
#X obj 55 17 kmid 115;
#X obj 131 17 kmid 100;
#X obj 257 17 kmid 103;
#X obj 331 17 kmid 104;
#X obj 403 17 kmid 106;
#X obj 25 135 poly 3 1, f 10;
#X obj 18 90 r pd-qwerty;
#X obj 18 220 noteout;
#X obj 87 243 print polyphony-management-inside-pd;
#X obj 389 97 key, f 5;
#X floatatom 389 129 5 0 0 0 - - - 36;
#X listbox 113 196 12 0 0 0 - - - 24;
#X connect 0 0 17 0;
#X connect 0 0 20 0;
#X connect 0 0 16 0;
#X connect 14 0 0 0;
#X connect 14 1 0 1;
#X connect 14 2 0 2;
#X connect 15 0 14 0;
#X connect 18 0 19 0;
