#N canvas 827 239 527 327 12;
#X obj 133 738 throw~ sum-L;
#X obj 250 738 throw~ sum-R;
#X obj 111 32 r midi-data;
#X obj 111 61 route \$1;
#X obj 228 370 else/adsr~;
#X obj 277 266 r decay;
#X obj 294 295 r sustain;
#X obj 311 321 r release;
#X obj 111 94 unpack, f 20;
#X obj 114 267 mtof;
#X msg 472 367 vis 1 1;
#X msg 538 367 vis 5 1;
#X obj 114 305 s fund-voz\$1;
#X obj 43 340 catch~ arm\$1-L;
#X obj 185 435 catch~ arm\$1-R;
#X obj 119 575 *~;
#X obj 251 644 *~;
#X obj 111 155 stripnote;
#X obj 74 412 *~ 0.1;
#X obj 200 558 *~ 0.1;
#X obj 472 398 clone -s 1 armonicos 25 \$1;
#X obj 305 435 s~ adsr-\$1;
#X obj 261 241 r attack-gui-r;
#X connect 2 0 3 0;
#X connect 3 0 8 0;
#X connect 4 0 15 1;
#X connect 4 0 16 1;
#X connect 4 0 21 0;
#X connect 5 0 4 3;
#X connect 6 0 4 4;
#X connect 7 0 4 5;
#X connect 8 0 17 0;
#X connect 8 1 4 0;
#X connect 8 1 17 1;
#X connect 9 0 12 0;
#X connect 10 0 20 0;
#X connect 11 0 20 0;
#X connect 13 0 18 0;
#X connect 14 0 19 0;
#X connect 15 0 0 0;
#X connect 16 0 1 0;
#X connect 17 0 9 0;
#X connect 18 0 15 0;
#X connect 19 0 16 0;
#X connect 22 0 4 2;
