#N canvas 827 239 527 327 12;
#X obj 282 676 throw~ arm\$2-L;
#X obj 544 665 throw~ arm\$2-R;
#X obj 398 134 r fund-voz\$2;
#X obj 401 404 osc~;
#X obj 403 342 * \$1;
#X obj 612 231 f \$1;
#X obj 611 275 - 1;
#X obj 411 462 *~;
#X obj 611 378 line~;
#X obj 611 311 tabread SPECTRUM;
#X obj 612 185 r refresh;
#X msg 611 345 \$1 250;
#X obj 411 602 pan2~;
#X text 153 290 dividimos entre el número total de armónicos;
#X obj 439 247 \$1;
#X obj 404 202 t f b b;
#X obj 513 254 random 2;
#X obj 512 288 sel 0;
#X msg 480 320 -1;
#X obj 470 370 *;
#X obj 440 293 / 25;
#X obj 767 267 noise~;
#X obj 840 397 r variation;
#X obj 560 463 *~;
#X obj 770 435 lop~ 3;
#X obj 863 543 numbox~ 4 15 100 #E4E4E4 #4D4D4D 10 0 0 0;
#X obj 603 416 *~ 0.1;
#X obj 773 303 *~ 10;
#X obj 773 482 +~ 1;
#X connect 2 0 15 0;
#X connect 3 0 7 0;
#X connect 4 0 3 0;
#X connect 5 0 6 0;
#X connect 6 0 9 0;
#X connect 7 0 12 0;
#X connect 8 0 26 0;
#X connect 9 0 11 0;
#X connect 10 0 5 0;
#X connect 11 0 8 0;
#X connect 12 0 0 0;
#X connect 12 1 1 0;
#X connect 14 0 20 0;
#X connect 15 0 4 0;
#X connect 15 1 14 0;
#X connect 15 2 16 0;
#X connect 16 0 17 0;
#X connect 17 0 18 0;
#X connect 17 1 19 1;
#X connect 18 0 19 1;
#X connect 19 0 12 1;
#X connect 20 0 19 0;
#X connect 21 0 27 0;
#X connect 22 0 24 1;
#X connect 23 0 7 1;
#X connect 24 0 28 0;
#X connect 26 0 23 0;
#X connect 27 0 24 0;
#X connect 28 0 25 0;
#X connect 28 0 23 1;
