#N canvas 827 239 527 327 12;
#X obj 85 20 cnv 15 328 223 empty empty our\ additive\ synth 170 160 0 17 #696700 #e1e1e1 0;
#X obj 120 48 hsl 128 17 1 1000 0 0 attack-gui-s attack-gui-r ATTACK -2 -8 0 12 #191919 #e1e1e1 #e1e1e1 0 1;
#X obj 113 89 hsl 128 17 1 1000 0 0 decay set-decay DECAY -2 -8 0 12 #191919 #e1e1e1 #e1e1e1 0 1;
#X obj 113 128 hsl 128 17 0 1 0 0 sustain set-sustain SUSTAIN -2 -8 0 12 #191919 #e1e1e1 #e1e1e1 0 1;
#X obj 113 169 hsl 128 17 1 999 0 0 release set-release RELEASE -2 -8 0 12 #191919 #e1e1e1 #e1e1e1 0 1;
#X obj 259 211 hsl 128 17 0 112 0 0 vol-gui-s vol-gui-r VOLUME -2 -8 0 12 #191919 #e1e1e1 #e1e1e1 0 1;
#X obj 628 327 dbtorms;
#X obj 468 457 *~;
#X obj 628 390 line~;
#X msg 628 360 \$1 100;
#X obj 462 48 notein;
#X obj 462 124 poly 10;
#X obj 462 168 pack 0 0 0;
#X obj 462 199 s midi-data;
#X obj 462 92 pack;
#N canvas 0 0 450 250 (subpatch) 0;
#X array SPECTRUM 25 float 2;
#X coords 0 1 25 0 144 115 1;
#X restore 255 48 graph;
#X text 445 10 QUEDA POR DEFINIR CUANTOS ARMÓNICOS YUTILIZAOS;
#X obj 468 263 clone -s 1 additive_voice 10;
#X msg 468 232 vis 1 1;
#X obj 468 297 catch~ sum-L;
#X obj 485 492 dac~;
#X obj 526 456 *~;
#X obj 525 329 catch~ sum-R;
#X obj 665 89 metro 250;
#X obj 664 46 tgl 25 0 empty set-metro empty 17 7 0 10 #e4e4e4 #4d4d4d #373737 0 1;
#X obj 665 113 s refresh;
#X obj 111 212 hsl 128 17 1 100 0 0 variation set-variation VARIATION -2 -8 0 12 #191919 #e1e1e1 #e1e1e1 0 1;
#X msg 108 324 \; set-attack 100 \; set-decay 50 \; set-sustain 0.5 \; set-release 500 \; set-volume 100 \; set-metro 1 \; SPECTRUM 0 1 0.9 0.8 0.7 0.6 0.5 0.4 0.3 0.2 0.1 \; set-variation 5;
#X obj 128 268 loadbang;
#X obj 801 194 param attack;
#X obj 822 242 param vol;
#X obj 628 298 r vol-gui-r;
#X msg 843 119 create \, range 0 1000;
#X obj 834 354 param decay;
#X msg 834 313 create \, range 0 1000;
#X obj 852 55 loadbang;
#X connect 6 0 9 0;
#X connect 7 0 20 0;
#X connect 8 0 21 1;
#X connect 8 0 7 1;
#X connect 9 0 8 0;
#X connect 10 0 14 0;
#X connect 10 1 14 1;
#X connect 11 0 12 0;
#X connect 11 1 12 1;
#X connect 11 2 12 2;
#X connect 12 0 13 0;
#X connect 14 0 11 0;
#X connect 18 0 17 0;
#X connect 19 0 7 0;
#X connect 21 0 20 1;
#X connect 22 0 21 0;
#X connect 23 0 25 0;
#X connect 24 0 23 0;
#X connect 28 0 27 0;
#X connect 31 0 6 0;
#X connect 32 0 29 0;
#X connect 34 0 33 0;
#X connect 35 0 32 0;
#X connect 35 0 34 0;
