#N canvas 70 23 1213 842 10;
#X obj 17 92 outlet~;
#X obj 78 21 inlet;
#X obj 147 21 inlet;
#X obj 17 22 inlet~;
#X obj 78 45 s \$1-sigma;
#X obj 147 45 s \$1-mean;
#X obj 17 45 s~ in-\$1;
#X obj 17 69 catch~ out-\$1;
#X text 245 19 the way to avoid the windowing effect \, or at least to minimize it \, is to obtain granular synthesis by replicating reading points of the original files at non-periodic times.;
#X text 22 123 for that we've created an 'abstraction' and we made a few replicas of it (because each one has it's own random generator). You can copy/paste this object as many times as your cpu can handle...;
#X obj 142 233 ./stretch-grain \$1;
#X obj 22 293 ./stretch-grain \$1;
#X obj 22 233 ./stretch-grain \$1;
#X obj 22 253 ./stretch-grain \$1;
#X obj 22 273 ./stretch-grain \$1;
#X obj 22 196 ./stretch-grain \$1;
#X obj 22 373 ./stretch-grain \$1;
#X obj 22 313 ./stretch-grain \$1;
#X obj 22 333 ./stretch-grain \$1;
#X obj 22 353 ./stretch-grain \$1;
#X obj 142 373 ./stretch-grain \$1;
#X obj 142 313 ./stretch-grain \$1;
#X obj 142 333 ./stretch-grain \$1;
#X obj 142 353 ./stretch-grain \$1;
#X obj 142 293 ./stretch-grain \$1;
#X obj 142 253 ./stretch-grain \$1;
#X obj 142 273 ./stretch-grain \$1;
#X obj 262 373 ./stretch-grain \$1;
#X obj 262 313 ./stretch-grain \$1;
#X obj 262 333 ./stretch-grain \$1;
#X obj 262 353 ./stretch-grain \$1;
#X obj 262 293 ./stretch-grain \$1;
#X obj 262 233 ./stretch-grain \$1;
#X obj 262 253 ./stretch-grain \$1;
#X obj 262 273 ./stretch-grain \$1;
#X connect 1 0 4 0;
#X connect 2 0 5 0;
#X connect 3 0 6 0;
#X connect 7 0 0 0;
