#N canvas 827 239 734 565 12;
#X obj 139 254 * \$1;
#X obj 139 288 osc~;
#X obj 224 303 random 101;
#X obj 224 217 loadbang;
#X floatatom 223 334 5 0 0 0 - - - 12;
#X obj 223 366 dbtorms;
#X obj 139 474 *~;
#X obj 248 266 r new-spectral-envelope;
#X obj 223 433 line~;
#X obj 139 153 r \$2-fund;
#X obj 139 512 throw~ \$2-espectro;
#X msg 223 397 \$1 1000;
#X connect 0 0 1 0;
#X connect 1 0 6 0;
#X connect 2 0 4 0;
#X connect 3 0 2 0;
#X connect 4 0 5 0;
#X connect 5 0 11 0;
#X connect 6 0 10 0;
#X connect 7 0 2 0;
#X connect 8 0 6 1;
#X connect 9 0 0 0;
#X connect 11 0 8 0;
