#N canvas 827 239 734 565 12;
#X text 220 191 paw6ch intermedio (voz;
#X obj 251 457 *~, f 5;
#X obj 251 492 throw~ voces;
#X obj 388 368 catch~ \$0-espectro;
#X obj 142 192 route \$1;
#X listbox 174 154 17 0 0 0 - - - 16;
#X obj 142 94 r voice-data;
#X obj 142 235 unpack 0 0;
#X floatatom 142 261 5 0 0 0 - - - 12;
#X floatatom 244 266 5 0 0 0 - - - 12;
#X obj 92 368 s \$0-fund;
#X obj 92 336 mtof;
#X obj 251 539 clone -s 1 partial 20 \$0, f 25;
#X obj 195 368 else/adsr~ 2000 100 0.7 4000;
#X connect 1 0 2 0;
#X connect 3 0 1 1;
#X connect 4 0 7 0;
#X connect 6 0 5 0;
#X connect 6 0 4 0;
#X connect 7 0 8 0;
#X connect 7 1 9 0;
#X connect 7 1 13 0;
#X connect 8 0 11 0;
#X connect 11 0 10 0;
#X connect 13 0 1 0;
