#N canvas 827 239 527 327 12;
#X text 8 9 He llamado a este patch "main" ya que es el patch \, con el que interactuamos \, el que abrimos y donde podemos colocar objetos de interacción gráfica que controlen el resto de parámetros, f 50;
#X obj 29 116 vsl 17 128 0 127 0 0 empty empty empty 0 -9 0 10 #e4e4e4 #4d4d4d #373737 0 1;
#X text 63 115 típicamente tendremos controles GUI para cada parámetro que deesemos modificar., f 28;
#N canvas 0 22 450 300 subpatch-1 0;
#X text 17 15 los subpatches nos ahorran espacio bidimensional \, y nos permiten organizar el contenido del programa. Esto es completamente libre \, pero puede ser útil organizar los subpatches por funciones o familias \, como ENTRADAS \, SALIDAS \, MIDI \, INICIALIZACIÓN \, etc...;
#X obj 17 113 loadbang;
#X text 98 112 yo encuentro muy útil usar un solo [loadbang] para inicializar todos los parámetros... de este modo \, si hay algún problema \, lo podemos desconectar para trabajar sin inicialización., f 48;
#X obj 17 158 send init;
#X connect 1 0 3 0;
#X restore 286 84 pd subpatch-1;
#N canvas 0 22 450 300 subpatch-2 0;
#X text 10 16 recuerda que los subpatches forman parte del patch que los contiene. SOLO SIRVEN PARA ORGANIZAR EL CONTENIDO.;
#X text 10 107 por ejemplo \, este subpatch \, es diferente al anterior. En ellos \, podemos tener sends y receives para comuicarnos con el patch principal \, pero también inlets y outlets...;
#X obj 111 209 send control1;
#X floatatom 111 164 5 0 0 0 - - - 12;
#X floatatom 220 245 5 0 0 0 - - - 12;
#X obj 220 209 receive control2;
#X obj 240 304 inlet;
#X obj 240 350 outlet;
#X obj 102 304 inlet~;
#X obj 102 350 outlet~;
#X connect 3 0 2 0;
#X connect 5 0 4 0;
#X connect 6 0 7 0;
#X connect 8 0 9 0;
#X restore 269 222 pd subpatch-2;
#X obj 24 84 receive control1;
#X obj 24 258 send control2;
#X obj 269 192 adc~;
#X floatatom 344 187 5 0 0 0 - - - 12;
#X floatatom 344 259 5 0 0 0 - - - 12;
#X obj 269 259 numbox~ 4 15 100 #e4e4e4 #4d4d4d 10 0 0 0;
#X obj 344 129 r init;
#X msg 343 158 12;
#X text 452 9 El objeto clone nos permite crear múltiples instancias del mismo objeto. Esto es especialmente útil para crear aplicaciones polifónicas o técnicas de síntesis "aditivas" o "granulares".;
#X msg 470 74 vis 0 1;
#X msg 546 74 vis 1 1;
#X obj 26 658 snake~ out 4, f 34;
#X obj 244 690 numbox~ 4 15 100 #e4e4e4 #4d4d4d 10 0 0 0;
#X obj 173 690 numbox~ 4 15 100 #e4e4e4 #4d4d4d 10 0 0 0;
#X obj 98 690 numbox~ 4 15 100 #e4e4e4 #4d4d4d 10 0 0 0;
#X obj 24 690 numbox~ 4 15 100 #e4e4e4 #4d4d4d 10 0 0 0;
#X obj 26 513 catch~ multichannel-out 4;
#X obj 26 631 *~, f 34;
#X obj 240 598 line~;
#X msg 241 572 \$1 100;
#X obj 241 513 knob 50 0 127 0 0 empty empty #E4E4E4 #B7B7B7 #4D4D4D 1 0 0 0 1 270 0 0 0 empty empty 0 0 0 0 0 0 0 0;
#X text 330 597 desde la versión 54 Pd dispone de expansión multicanal \, lo que permite enviar y recibir varios canales de audio en una sola conexión. Este añadido es extremadamente potente \, tanto porque ahorra múltiples conexiones \, como porque permite variar el número de canales de entrada/salida muy fácilmente. En el ejemplo de la izquierda vemos como el catch recibe una señal con cuatro canales \, y aplicamos un solo un control de volumen de manera simultánea;
#X floatatom 686 103 5 0 0 0 - - - 12;
#X floatatom 599 113 5 0 0 0 - - - 12;
#X msg 599 150 2 \$1;
#X msg 686 140 1 \$1;
#X floatatom 743 103 5 0 0 0 - - - 12;
#X msg 743 140 all \$1;
#X listbox 494 226 9 0 0 0 - - - 0;
#X obj 472 254 print receive-control2-from-abstractions;
#X obj 470 190 clone dummy-grain 4 first-argument-is-second;
#X text 576 223 #clone valor;
#X msg 807 139 3 bang;
#X obj 25 307 dummy-abs1;
#X connect 1 0 6 0;
#X connect 4 0 10 0;
#X connect 4 1 9 0;
#X connect 5 0 1 0;
#X connect 7 0 4 0;
#X connect 8 0 4 1;
#X connect 11 0 12 0;
#X connect 12 0 8 0;
#X connect 14 0 35 0;
#X connect 15 0 35 0;
#X connect 16 0 20 0;
#X connect 16 1 19 0;
#X connect 16 2 18 0;
#X connect 16 3 17 0;
#X connect 21 0 22 0;
#X connect 22 0 16 0;
#X connect 23 0 22 1;
#X connect 24 0 23 0;
#X connect 25 0 24 0;
#X connect 27 0 30 0;
#X connect 28 0 29 0;
#X connect 29 0 35 0;
#X connect 30 0 35 1;
#X connect 31 0 32 0;
#X connect 32 0 35 1;
#X connect 35 0 33 0;
#X connect 35 0 34 0;
#X connect 37 0 35 2;
