#N canvas 540 37 1342 801 10;
#X obj 348 270 * 1;
#X obj 379 237 t b f;
#X floatatom 379 204 11 0 0 1 time-stretch\ factor - - 16;
#X obj 268 461 s~ read-point;
#X obj 348 106 /;
#X obj 379 79 samplerate~;
#X obj 325 319 pack f f;
#X obj 268 371 list;
#X msg 268 403 0 0 \, \$1 \$2;
#X obj 325 47 t f f b;
#X obj 348 136 * 1000;
#X obj 268 270 t b b;
#X obj 325 16 r soundfile-size;
#X obj 26 171 s soundfile-size;
#X obj 26 371 loadbang;
#X obj 46 473 s loop-size;
#X floatatom 48 398 9 0 0 1 loop\ or\ window\ size - - 16;
#X obj 26 54 openpanel;
#X obj 26 106 soundfiler;
#X obj 26 22 bng 25 250 50 0 empty empty empty 17 7 0 10 #191919 #e1e1e1 #e1e1e1;
#X msg 26 79 read -resize \$1 sound;
#X floatatom 46 136 18 0 0 0 - - - 16;
#N canvas 0 22 450 278 (subpatch) 0;
#X array sound 492032 float 0;
#X coords 0 1 492031 -1 200 140 1;
#X restore 26 210 graph;
#X obj 26 436 f 200;
#X obj 268 434 line~;
#X obj 268 210 bng 40 250 50 0 empty empty PLAY! -3 -20 0 24 #191919 #e1e1e1 #e1e1e1;
#X floatatom 396 319 18 0 0 1 final\ sound\ duration\ in\ ms. - - 16;
#X floatatom 373 171 16 0 0 1 original\ file\ duration\ in\ ms\ (size\ /\ sr) - - 16;
#X obj 781 198 samphold~;
#X obj 847 232 +~;
#X obj 984 193 cos~;
#X obj 984 222 *~ -0.5;
#X obj 984 252 +~ 0.5;
#X obj 870 198 *~;
#X obj 847 286 *~;
#X obj 1080 198 samphold~;
#X obj 1158 232 +~;
#X obj 1304 192 cos~;
#X obj 1304 222 *~ -0.5;
#X obj 1304 252 +~ 0.5;
#X obj 1173 205 *~;
#X obj 1158 293 *~;
#X obj 1186 142 * 44.1;
#X obj 1013 346 +~;
#X obj 1304 146 wrap~;
#X obj 781 79 r~ read-point;
#X obj 1080 79 r~ read-point;
#X obj 1186 79 r loop-size;
#X obj 967 392 output~;
#X obj 1304 79 r~ phase;
#X obj 1206 111 r sr;
#X obj 881 142 * 44.1;
#X obj 881 79 r loop-size;
#X obj 901 111 r sr;
#X obj 984 133 r~ phase;
#X obj 847 253 tabread4~ sound;
#X obj 1158 253 tabread4~ sound;
#X obj 26 533 /;
#X obj 26 594 s~ phase;
#X msg 26 504 1000 \$1;
#X obj 26 563 phasor~ 1;
#X obj 1304 112 +~ 0.5;
#X connect 0 0 26 0;
#X connect 0 0 6 1;
#X connect 1 0 0 0;
#X connect 1 1 0 1;
#X connect 2 0 1 0;
#X connect 4 0 10 0;
#X connect 5 0 4 1;
#X connect 6 0 7 1;
#X connect 7 0 8 0;
#X connect 8 0 24 0;
#X connect 9 0 6 0;
#X connect 9 1 4 0;
#X connect 9 2 5 0;
#X connect 10 0 0 0;
#X connect 10 0 27 0;
#X connect 11 0 7 0;
#X connect 11 1 6 0;
#X connect 12 0 9 0;
#X connect 14 0 23 0;
#X connect 16 0 23 0;
#X connect 17 0 20 0;
#X connect 18 0 13 0;
#X connect 18 0 21 0;
#X connect 19 0 17 0;
#X connect 20 0 18 0;
#X connect 23 0 15 0;
#X connect 23 0 59 0;
#X connect 24 0 3 0;
#X connect 25 0 11 0;
#X connect 28 0 29 0;
#X connect 29 0 55 0;
#X connect 30 0 31 0;
#X connect 31 0 32 0;
#X connect 32 0 34 1;
#X connect 33 0 29 1;
#X connect 34 0 43 0;
#X connect 35 0 36 0;
#X connect 36 0 56 0;
#X connect 37 0 38 0;
#X connect 38 0 39 0;
#X connect 39 0 41 1;
#X connect 40 0 36 1;
#X connect 41 0 43 0;
#X connect 42 0 40 1;
#X connect 43 0 48 0;
#X connect 43 0 48 1;
#X connect 44 0 37 0;
#X connect 44 0 35 1;
#X connect 44 0 40 0;
#X connect 45 0 28 0;
#X connect 46 0 35 0;
#X connect 47 0 42 0;
#X connect 49 0 61 0;
#X connect 50 0 42 1;
#X connect 51 0 33 1;
#X connect 52 0 51 0;
#X connect 53 0 51 1;
#X connect 54 0 30 0;
#X connect 54 0 33 1;
#X connect 54 0 28 1;
#X connect 55 0 34 0;
#X connect 56 0 41 0;
#X connect 57 0 60 0;
#X connect 59 0 57 0;
#X connect 60 0 58 0;
#X connect 61 0 44 0;
