#N canvas 540 37 721 667 10;
#X obj 402 339 * 1;
#X obj 433 306 t b f;
#X floatatom 433 273 11 0 0 2 factor\ de\ time-stretching - - 16;
#X obj 315 516 s~ read-point;
#X obj 402 126 /;
#X obj 433 99 samplerate~;
#X obj 372 383 pack f f;
#X obj 315 426 list;
#X msg 315 458 0 0 \, \$1 \$2;
#X obj 372 53 t f f b;
#X obj 402 156 * 1000;
#X obj 315 325 t b b;
#X obj 372 22 r soundfile-size;
#X obj 26 186 s soundfile-size;
#X obj 31 273 loadbang;
#X obj 51 388 s loop-size;
#X floatatom 51 315 9 0 0 2 tamaño\ de\ bucle\ o\ ventana\ en\ ms - - 16;
#X obj 26 54 openpanel;
#X obj 26 106 soundfiler;
#X obj 26 22 bng 25 250 50 0 empty empty bang\ para\ cargar\ sonido\ (wav) 35 12 0 16 #191919 #e1e1e1 #e1e1e1;
#X msg 26 79 read -resize \$1 sound;
#X floatatom 46 136 8 0 0 3 duración\ en\ samps - - 16;
#X obj 31 351 f 200;
#X obj 315 489 line~;
#X obj 315 265 bng 40 250 50 0 empty empty PLAY! -3 -20 0 24 #191919 #e1e1e1 #e1e1e1;
#X floatatom 443 374 18 0 0 3 duración\ real\ tras\ el\ estiramiento - - 16;
#X floatatom 433 186 16 0 0 3 duración\ del\ archivo\ en\ ms\ (size\ /\ sr) - - 16;
#X obj 31 448 /;
#X obj 31 509 s~ phase;
#X msg 31 419 1000 \$1;
#X obj 31 478 phasor~ 1;
#X obj 26 217 table sound 44100;
#X text 133 358 el tamaño de bucle (loop-size) es el tamaño en milisegundos del fragmento de audio que utilizamos para avanzar en loops de manera incremental por toda la duració del archivo original., f 22;
#N canvas 0 22 643 410 time-stretching 0;
#X obj 20 138 samphold~;
#X obj 86 172 +~;
#X obj 223 133 cos~;
#X obj 223 162 *~ -0.5;
#X obj 223 192 +~ 0.5;
#X obj 109 138 *~;
#X obj 86 227 *~;
#X obj 319 138 samphold~;
#X obj 397 172 +~;
#X obj 543 132 cos~;
#X obj 543 162 *~ -0.5;
#X obj 543 192 +~ 0.5;
#X obj 412 145 *~;
#X obj 397 233 *~;
#X obj 425 82 * 44.1;
#X obj 252 286 +~;
#X obj 543 86 wrap~;
#X obj 20 19 r~ read-point;
#X obj 319 19 r~ read-point;
#X obj 425 19 r loop-size;
#X obj 543 19 r~ phase;
#X obj 445 51 r sr;
#X obj 120 82 * 44.1;
#X obj 120 19 r loop-size;
#X obj 140 51 r sr;
#X obj 223 73 r~ phase;
#X obj 86 194 tabread4~ sound;
#X obj 397 193 tabread4~ sound;
#X obj 543 52 +~ 0.5;
#X obj 252 314 outlet~;
#X connect 0 0 1 0;
#X connect 1 0 26 0;
#X connect 2 0 3 0;
#X connect 3 0 4 0;
#X connect 4 0 6 1;
#X connect 5 0 1 1;
#X connect 6 0 15 0;
#X connect 7 0 8 0;
#X connect 8 0 27 0;
#X connect 9 0 10 0;
#X connect 10 0 11 0;
#X connect 11 0 13 1;
#X connect 12 0 8 1;
#X connect 13 0 15 0;
#X connect 14 0 12 1;
#X connect 15 0 29 0;
#X connect 16 0 9 0;
#X connect 16 0 7 1;
#X connect 16 0 12 0;
#X connect 17 0 0 0;
#X connect 18 0 7 0;
#X connect 19 0 14 0;
#X connect 20 0 28 0;
#X connect 21 0 14 1;
#X connect 22 0 5 1;
#X connect 23 0 22 0;
#X connect 24 0 22 1;
#X connect 25 0 2 0;
#X connect 25 0 5 1;
#X connect 25 0 0 1;
#X connect 26 0 6 0;
#X connect 27 0 13 0;
#X connect 28 0 16 0;
#X restore 315 548 pd time-stretching;
#X obj 288 594 out~;
#X obj 464 131 * 0.001;
#X obj 464 158 s sr;
#X connect 0 0 25 0;
#X connect 0 0 6 1;
#X connect 1 0 0 0;
#X connect 1 1 0 1;
#X connect 2 0 1 0;
#X connect 4 0 10 0;
#X connect 5 0 4 1;
#X connect 5 0 35 0;
#X connect 6 0 7 1;
#X connect 7 0 8 0;
#X connect 8 0 23 0;
#X connect 9 0 6 0;
#X connect 9 1 4 0;
#X connect 9 2 5 0;
#X connect 10 0 0 0;
#X connect 10 0 26 0;
#X connect 11 0 7 0;
#X connect 11 1 6 0;
#X connect 12 0 9 0;
#X connect 14 0 22 0;
#X connect 16 0 22 0;
#X connect 17 0 20 0;
#X connect 18 0 13 0;
#X connect 18 0 21 0;
#X connect 19 0 17 0;
#X connect 20 0 18 0;
#X connect 22 0 15 0;
#X connect 22 0 29 0;
#X connect 23 0 3 0;
#X connect 24 0 11 0;
#X connect 27 0 30 0;
#X connect 29 0 27 0;
#X connect 30 0 28 0;
#X connect 33 0 34 0;
#X connect 33 0 34 1;
#X connect 35 0 36 0;
