#N canvas 143 84 1207 940 10;
#X obj 373 318 - 3;
#X obj 352 383 +~ 1;
#X obj 352 349 *~ 1;
#X obj 352 229 phasor~;
#X obj 352 139 /;
#X msg 391 204 0;
#X text 418 204 reset (start file);
#X floatatom 378 171 14 0 0 1 original\ file\ period\ in\ Hz\ (sr\ /\ size) - - 12;
#X floatatom 759 31 5 0 0 1 transposition\ in\ semitones - - 16;
#X obj 34 183 s soundfile-size;
#X obj 373 289 r soundfile-size;
#X obj 352 460 s~ read-point;
#X obj 34 383 loadbang;
#X obj 34 480 s loop-size;
#X floatatom 56 410 9 0 0 1 loop\ or\ window\ size - - 16;
#X obj 352 85 samplerate~;
#X obj 352 27 r soundfile-size;
#X obj 352 54 t b f;
#X obj 34 66 openpanel;
#X obj 34 118 soundfiler;
#X obj 34 34 bng 25 250 50 0 empty empty empty 17 7 0 10 #191919 #e1e1e1 #e1e1e1;
#X msg 34 91 read -resize \$1 sound;
#X floatatom 54 148 18 0 0 0 - - - 16;
#N canvas 0 22 450 278 (subpatch) 0;
#X array sound 236544 float 0;
#X coords 0 1 236543 -1 200 140 1;
#X restore 34 222 graph;
#X obj 210 619 samphold~;
#X obj 276 653 +~;
#X obj 413 614 cos~;
#X obj 413 643 *~ -0.5;
#X obj 413 673 +~ 0.5;
#X obj 299 619 *~;
#X obj 276 707 *~;
#X msg 668 263 1000 \$1;
#X obj 668 291 /;
#X obj 543 619 samphold~;
#X obj 621 653 +~;
#X obj 767 613 cos~;
#X obj 767 643 *~ -0.5;
#X obj 767 673 +~ 0.5;
#X obj 636 626 *~;
#X obj 621 714 *~;
#X obj 649 563 * 44.1;
#X obj 790 791 +~;
#X obj 767 567 wrap~;
#X msg 784 121 1 \$1;
#X obj 784 148 /;
#X msg 784 176 2 \$1;
#X obj 784 205 pow;
#X obj 759 266 pow;
#X obj 759 235 swap;
#X obj 759 296 t b f;
#X msg 784 92 12;
#X obj 784 65 loadbang;
#X obj 759 328 * 1;
#X obj 210 500 r~ read-point;
#X obj 543 500 r~ read-point;
#X obj 649 500 r loop-size;
#X obj 668 235 r loop-size;
#X text 817 91 number of equal divisions per octave;
#X obj 753 827 output~;
#X obj 759 430 s~ phase;
#X obj 767 500 r~ phase;
#X obj 399 148 s sr;
#X obj 399 118 * 0.001;
#X obj 669 532 r sr;
#X obj 310 563 * 44.1;
#X obj 310 500 r loop-size;
#X obj 330 532 r sr;
#X obj 413 550 r~ phase;
#X obj 373 420 numbox~ 8 23 100 #191919 #e1e1e1 10 0 0 0;
#X obj 784 390 numbox~ 8 23 100 #191919 #e1e1e1 10 0 0 0;
#X obj 276 674 tabread4~ sound;
#X obj 621 674 tabread4~ sound;
#X obj 759 358 phasor~ 1;
#X obj 883 619 samphold~;
#X obj 961 653 +~;
#X obj 1107 613 cos~;
#X obj 1107 643 *~ -0.5;
#X obj 1107 673 +~ 0.5;
#X obj 976 626 *~;
#X obj 961 714 *~;
#X obj 989 563 * 44.1;
#X obj 1107 533 +~ 0.5;
#X obj 1107 567 wrap~;
#X obj 883 500 r~ read-point;
#X obj 989 500 r loop-size;
#X obj 1107 500 r~ phase;
#X obj 1009 532 r sr;
#X obj 961 674 tabread4~ sound;
#X obj 1226 619 samphold~;
#X obj 1304 653 +~;
#X obj 1450 613 cos~;
#X obj 1450 643 *~ -0.5;
#X obj 1450 673 +~ 0.5;
#X obj 1319 626 *~;
#X obj 1304 714 *~;
#X obj 1332 563 * 44.1;
#X obj 1450 567 wrap~;
#X obj 1226 500 r~ read-point;
#X obj 1332 500 r loop-size;
#X obj 1450 500 r~ phase;
#X obj 1352 532 r sr;
#X obj 1304 674 tabread4~ sound;
#X obj 767 533 +~ 0.25;
#X obj 1450 533 +~ 0.75;
#X obj 34 448 f 100;
#X obj 373 263 numbox~ 4 15 100 #E4E4E4 #4D4D4D 10 0 0 0;
#X floatatom 871 337 5 0 0 0 - - - 12;
#X connect 0 0 2 1;
#X connect 1 0 11 0;
#X connect 1 0 68 0;
#X connect 2 0 1 0;
#X connect 3 0 2 0;
#X connect 3 0 105 0;
#X connect 4 0 7 0;
#X connect 4 0 3 0;
#X connect 5 0 3 1;
#X connect 8 0 48 0;
#X connect 10 0 0 0;
#X connect 12 0 104 0;
#X connect 14 0 104 0;
#X connect 15 0 4 0;
#X connect 15 0 62 0;
#X connect 16 0 17 0;
#X connect 17 0 15 0;
#X connect 17 1 4 1;
#X connect 18 0 21 0;
#X connect 19 0 9 0;
#X connect 19 0 22 0;
#X connect 20 0 18 0;
#X connect 21 0 19 0;
#X connect 24 0 25 0;
#X connect 25 0 70 0;
#X connect 26 0 27 0;
#X connect 27 0 28 0;
#X connect 28 0 30 1;
#X connect 29 0 25 1;
#X connect 30 0 41 0;
#X connect 31 0 32 0;
#X connect 32 0 52 0;
#X connect 33 0 34 0;
#X connect 34 0 71 0;
#X connect 35 0 36 0;
#X connect 36 0 37 0;
#X connect 37 0 39 1;
#X connect 38 0 34 1;
#X connect 39 0 41 0;
#X connect 40 0 38 1;
#X connect 41 0 58 0;
#X connect 41 0 58 1;
#X connect 42 0 35 0;
#X connect 42 0 33 1;
#X connect 42 0 38 0;
#X connect 43 0 44 0;
#X connect 44 0 45 0;
#X connect 45 0 46 0;
#X connect 46 0 48 1;
#X connect 47 0 49 0;
#X connect 48 0 47 0;
#X connect 48 1 47 1;
#X connect 49 0 52 0;
#X connect 49 1 52 1;
#X connect 50 0 43 0;
#X connect 51 0 50 0;
#X connect 52 0 72 0;
#X connect 52 0 106 0;
#X connect 53 0 24 0;
#X connect 54 0 33 0;
#X connect 55 0 40 0;
#X connect 56 0 31 0;
#X connect 60 0 102 0;
#X connect 62 0 61 0;
#X connect 63 0 40 1;
#X connect 64 0 29 1;
#X connect 65 0 64 0;
#X connect 66 0 64 1;
#X connect 67 0 26 0;
#X connect 67 0 29 1;
#X connect 67 0 24 1;
#X connect 70 0 30 0;
#X connect 71 0 39 0;
#X connect 72 0 59 0;
#X connect 72 0 69 0;
#X connect 73 0 74 0;
#X connect 74 0 87 0;
#X connect 75 0 76 0;
#X connect 76 0 77 0;
#X connect 77 0 79 1;
#X connect 78 0 74 1;
#X connect 79 0 41 0;
#X connect 80 0 78 1;
#X connect 81 0 82 0;
#X connect 82 0 75 0;
#X connect 82 0 73 1;
#X connect 82 0 78 0;
#X connect 83 0 73 0;
#X connect 84 0 80 0;
#X connect 85 0 81 0;
#X connect 86 0 80 1;
#X connect 87 0 79 0;
#X connect 88 0 89 0;
#X connect 89 0 101 0;
#X connect 90 0 91 0;
#X connect 91 0 92 0;
#X connect 92 0 94 1;
#X connect 93 0 89 1;
#X connect 94 0 41 0;
#X connect 95 0 93 1;
#X connect 96 0 90 0;
#X connect 96 0 88 1;
#X connect 96 0 93 0;
#X connect 97 0 88 0;
#X connect 98 0 95 0;
#X connect 99 0 103 0;
#X connect 100 0 95 1;
#X connect 101 0 94 0;
#X connect 102 0 42 0;
#X connect 103 0 96 0;
#X connect 104 0 13 0;
