#N canvas 827 239 527 327 12;
#X obj 0 130 cnv 15 700 90 empty empty INLETS 5 12 0 16 #696969 #e1e1e1 0;
#X obj 0 221 cnv 15 700 90 empty empty OUTLETS 5 64 0 16 #474747 #e1e1e1 0;
#X text 0 4 Una de las cosas más esenciales a la hora de programar es reconocer el valor simbólico que asignamos a cada valor numérico. En programación musical \, los números pueden representar una multiplicidad de parámetros \, como la frecuencia \, la fase \, el número de semitono midi \, decibélios \, valores rms \, etc..., f 97;
#X obj 41 67 cnv 15 622 20 empty empty ES\ MUY\ IMPORTANTE\ RECONOCER\ EL\ VALOR\ SIMBÓLICO\ Y\ EL\ RANGO\ \ DE\ CADA\ OBJETO. 5 12 0 17 #690000 #e1e1e1 0;
#X obj 33 91 cnv 15 645 22 empty empty TEN\ EN\ CUENTA\ QUE\,\ HABITUALMENTE\,\ ÉSTOS\ SON\ DIFERENTES\ PARA\ INLETS\ Y\ OUTLETS. 5 12 0 17 #690000 #e1e1e1 0;
#X obj 41 209 osc~;
#X floatatom 41 156 5 0 0 1 Frecuencia - - 12;
#X floatatom 60 186 5 0 0 1 Fase\ (rango\ 0-1) - - 12;
#X obj 41 237 numbox~ 4 15 100 #191919 #e1e1e1 10 0 0 0;
#X text 105 224 muestras digitales (rango -1 a 1), f 13;
#X floatatom 212 156 5 0 0 1 Nota\ MIDI\ (0-127) - - 12;
#X obj 212 209 mtof;
#X floatatom 212 237 5 0 0 1 Frecuencia - - 12;
#X floatatom 361 156 5 0 0 1 Frecuencia - - 12;
#X obj 361 209 mtof;
#X floatatom 361 237 5 0 0 1 Nota\ MIDI\ (0-127) - - 12;
#X floatatom 539 156 5 0 0 1 Milisegundos - - 12;
#X obj 516 209 metro;
#X obj 516 237 bng 25 250 50 0 empty empty empty 17 7 0 10 #191919 #e1e1e1 #e1e1e1;
#X obj 0 325 cnv 15 700 90 empty empty INLETS 5 12 0 16 #696969 #e1e1e1 0;
#X obj 0 416 cnv 15 700 90 empty empty OUTLETS 5 72 0 16 #474747 #e1e1e1 0;
#X floatatom 41 365 5 0 0 1 Milisegundos - - 12;
#X obj 41 404 delay;
#X obj 41 441 bng 25 250 50 0 empty empty empty 17 7 0 10 #191919 #e1e1e1 #e1e1e1;
#X floatatom 174 365 5 0 0 1 Decibelios - - 12;
#X obj 174 404 dbtorms;
#X floatatom 174 441 5 0 0 1 RMS\ (0-1) - - 12;
#X floatatom 296 365 5 0 0 1 RMS\ (0-1) - - 12;
#X floatatom 296 441 5 0 0 1 Decibelios - - 12;
#X obj 296 404 rmstodb;
#X obj 575 404 cos~;
#X obj 575 365 numbox~ 4 15 100 #191919 #e1e1e1 10 0 0 0;
#X obj 575 441 numbox~ 4 15 100 #191919 #e1e1e1 10 0 0 0;
#X floatatom 429 365 5 0 0 1 Fase\ en\ radianes - - 12;
#X floatatom 429 441 5 0 0 1 Coseno\ (0-1) - - 12;
#X obj 429 404 cos;
#X text 575 341 Fase (0-1), f 13;
#X text 577 464 Coseno (0-1), f 13;
#X connect 5 0 8 0;
#X connect 6 0 5 0;
#X connect 7 0 5 1;
#X connect 10 0 11 0;
#X connect 11 0 12 0;
#X connect 13 0 14 0;
#X connect 14 0 15 0;
#X connect 16 0 17 1;
#X connect 17 0 18 0;
#X connect 21 0 22 0;
#X connect 22 0 23 0;
#X connect 24 0 25 0;
#X connect 25 0 26 0;
#X connect 27 0 29 0;
#X connect 29 0 28 0;
#X connect 30 0 32 0;
#X connect 31 0 30 0;
#X connect 33 0 35 0;
#X connect 35 0 34 0;
