#N canvas 827 239 527 327 12;
#X obj 4 4 cnv 15 705 37 empty empty Objetos\ de\ lectura\ de\ periféricos 5 20 0 24 #696969 #ffffff 0;
#X obj 4 46 cnv 15 520 24 empty empty Creación\ y\ procesamiento\ de\ sonido\ con\ Pd 5 11 0 16 #1e1e1e #ffffff 0;
#X obj 534 46 cnv 15 175 24 empty empty anxefaraldo@gmail.com 5 11 0 16 #c8c8c8 #000000 0;
#X obj 23 139 key;
#X floatatom 23 168 6 0 0 0 - - - 16;
#X obj 251 140 keyname;
#X symbolatom 293 189 10 0 0 0 - - - 0;
#X obj 136 140 keyup;
#X floatatom 136 169 6 0 0 0 - - - 16;
#X floatatom 251 189 4 0 0 0 - - - 0;
#X obj 475 455 else/mouse;
#X msg 538 408 zero;
#X text 14 83 Pd dispone de objetos capaces de recibir datos de los periféricos de entrada (teclados alfanuméricos y ratones) \, que pueden ser útiles para el prototipado o testeado de instrumentos digitales., f 79;
#X obj 23 195 print key;
#X obj 1085 195 print key;
#X obj 136 201 print keyup;
#X obj 251 221 pack float symbol;
#X obj 251 254 print keyname;
#X floatatom 740 168 6 0 0 0 - - - 16;
#X floatatom 823 168 6 0 0 0 - - - 16;
#X floatatom 503 491 9 0 0 0 - - - 16;
#X floatatom 586 491 10 0 0 0 - - - 16;
#X obj 454 489 tgl 25 0 empty empty empty 17 7 0 10 #191919 #e1e1e1 #e1e1e1 0 1;
#X msg 475 408 reset;
#X text 45 428 Además de la interacción por teclado \, la librería ELSE dispone de [mouse] para obtener información sobre las coordenadas X/Y del puntero del ratón \, así como sobre si el botón izquierdo está pulsado \, lo que podría sernos útil para \, por ejemplo \, establecer el punto y/o la duración de lectura de un archivo de sonido.;
#X text 14 232 [key] recupera el codigo ascii de la última tecla PULSADA, f 16;
#X text 130 233 [keyup] recupera el codigo de la última tecla LEVANTADA, f 16;
#X text 375 140 De manera nativa \, los objetos [key] \, [keyup] y [keyname] reciben información de la interacción del usuario con el teclado alfanumérico a través de código ASCII en particular (American Standard Code for Information Interchange). Este código mapea los caracteres del teclado alfanumérico a números únicos (y consistentes) \, de manera que resulta muy fácil interpretar ASCII como datos mídi \, frecuencias \, dBs \, etc..., f 46;
#X text 240 288 [keyname] nos informa sobre el estado de la última acción (1/0 \, pulsada/levantada) \, así como de su nombre simbólico (caracter), f 55;
#X obj 30 328 cnv 15 507 73 empty empty empty 20 12 0 14 #c04b00 #e1e1e1 0;
#X text 36 337 AVISO: Estos objetos responden a la configuración de repetición de tecla de tu ordenador. Si para algún uso concreto no quieres que se repitan los caracteres \, la opción más fácil es desactivar la repetición de tecla en los ajustes generales de tu ordenador., f 72;
#X connect 3 0 4 0;
#X connect 4 0 13 0;
#X connect 5 0 9 0;
#X connect 5 1 6 0;
#X connect 6 0 16 1;
#X connect 7 0 8 0;
#X connect 8 0 15 0;
#X connect 9 0 16 0;
#X connect 10 0 22 0;
#X connect 10 1 20 0;
#X connect 10 2 21 0;
#X connect 11 0 10 0;
#X connect 16 0 17 0;
#X connect 23 0 10 0;
