#N canvas 483 198 1425 927 12;
#X msg 924 198 clear;
#X msg 335 173 write \$1;
#X obj 335 107 savepanel;
#X obj 406 221 list prepend add;
#X obj 406 244 list trim;
#X obj 406 331 textfile;
#X obj 335 82 r save_preset;
#X obj 54 108 openpanel;
#X obj 54 198 until;
#X obj 54 138 t b a, f 9;
#X obj 54 235 textfile;
#X msg 128 190 read \$1 \, rewind;
#X obj 54 83 r load_preset;
#X obj 334 30 bng 45 250 50 0 save_preset sssssssssss SAVE 5 23 0 15 #6c3c60 #3c3050 #d4d4bc;
#X obj 55 31 bng 45 250 50 0 load_preset sssssssssss LOAD 5 23 0 15 #6c3c60 #3c3050 #d4d4bc;
#X obj 74 272 print content-of-textfile;
#X obj 406 198 list prepend parameter_1;
#X obj 575 221 list prepend add;
#X obj 575 244 list trim;
#X obj 575 198 list prepend parameter_2;
#N canvas 0 22 450 278 (subpatch) 0;
#X array parameter_1 100 float 2;
#X coords 0 1 100 -1 200 140 1;
#X restore 49 495 graph;
#N canvas 0 22 450 278 (subpatch) 0;
#X array parameter_2 3 float 2;
#X coords 0 1 3 -1 200 140 1 0 0;
#X restore 285 494 graph;
#N canvas 0 22 450 278 (subpatch) 0;
#X array parameter_3 1 float 2;
#X coords 0 1 1 -1 200 140 1 0 0;
#X restore 503 495 graph;
#X obj 54 301 list split 1, f 24;
#X obj 146 370 print destination;
#X obj 158 339 print list;
#X obj 406 173 array get parameter_1;
#X obj 575 173 array get parameter_2;
#X obj 749 220 list prepend add;
#X obj 749 243 list trim;
#X obj 748 173 array get parameter_3;
#X obj 749 197 list prepend parameter_3;
#X obj 335 135 t s b b b b, f 82;
#X obj 54 394 list, f 11;
#X obj 54 361 t b s;
#X obj 54 433 array set;
#X text 309 387 otros métodos igualmente efectivos para conseguir resultados similares podrían ser con [send] y [receive]. Alternativamente \, el objeto [qlist] incorpora un sistema de envíos y delays que podría añadir funcionalidad según el caso.;
#X connect 0 0 5 0;
#X connect 1 0 5 0;
#X connect 2 0 32 0;
#X connect 3 0 4 0;
#X connect 4 0 5 0;
#X connect 6 0 2 0;
#X connect 7 0 9 0;
#X connect 8 0 10 0;
#X connect 9 0 8 0;
#X connect 9 1 11 0;
#X connect 10 0 15 0;
#X connect 10 0 23 0;
#X connect 10 1 8 1;
#X connect 11 0 10 0;
#X connect 12 0 7 0;
#X connect 16 0 3 0;
#X connect 17 0 18 0;
#X connect 18 0 5 0;
#X connect 19 0 17 0;
#X connect 23 0 24 0;
#X connect 23 0 34 0;
#X connect 23 1 33 1;
#X connect 23 1 25 0;
#X connect 26 0 16 0;
#X connect 27 0 19 0;
#X connect 28 0 29 0;
#X connect 29 0 5 0;
#X connect 30 0 31 0;
#X connect 31 0 28 0;
#X connect 32 0 1 0;
#X connect 32 1 26 0;
#X connect 32 2 27 0;
#X connect 32 3 30 0;
#X connect 32 4 0 0;
#X connect 33 0 35 0;
#X connect 34 0 33 0;
#X connect 34 1 35 2;
