#N canvas 296 268 894 556 12;
#N canvas 0 22 450 278 (subpatch) 0;
#X array array1 10 float 2;
#X coords 0 -15 10 15 200 140 1 0 0;
#X restore 276 208 graph;
#X text 12 287 - Secuenciadores MIDI: los valores de las matrices limitados a un rango entre 0 y 127 son adecuados para la salida MIDI para ser utilizados como pitch \, velocity \, o números de controlador., f 36;
#X obj 0 0 cnv 15 712 37 empty empty Tablas\,\ arrays\,\ buffers 5 20 0 24 #696969 #ffffff 0;
#X obj 3 44 cnv 15 520 24 empty empty Creación\ y\ procesamiento\ de\ sonido\ con\ Pd 5 11 0 16 #1e1e1e #ffffff 0;
#X obj 533 44 cnv 15 175 24 empty empty anxefaraldo@gmail.com 5 11 0 16 #c8c8c8 #000000 0;
#X obj 298 400 table array2 44100;
#X obj 297 473 array define array3;
#X text 12 151 Usos comunes de tablas (arrays) en Pd:;
#X obj 298 356 cnv 15 397 25 empty empty Las\ tablas\ son\ secuencias\ de\ valores\ numéricos. 5 12 0 18 #0064c8 #ffffff 0;
#X text 12 449 - Matemáticas y tablas de conversión: las arrays son una excelente herramienta visual a la hora de realizar análisis de Fourier y otras funciones matemáticas avanzadas., f 40;
#X text 12 370 - Envolventes: una tabla con cuatro elementos puede utilizarse eficazmente como una envolvente ADSR. Asimismo \, pueden contener otras señales de audio que utilizar como envolventes o moduladores., f 40;
#X text 276 153 Los tres elementos a continuación sirven para visualizar \, almacenar y manipular secuencias numéricas \, y son completamente equivalentes.;
#X text 485 207 la "array" es el objeto de interacción con tablas más común. Nos permite visualizar y manipular sus valores(con el ratón directamente)., f 32;
#X text 485 280 En sus propiedades podemos configurar su tamaño (eje horizontal) y su rango (eje vertical) \, así como otras propiedades de visualización, f 32;
#X text 435 393 [table] es una versión de la "array" a todos los efectos. Su úlica diferencia es que NO VISUALIZA su contenido por defecto \, aligerando el sistema gráfico., f 39;
#X text 435 462 [array] en contraste \, es un objeto avanzado que permite realizar manipulaciones y cálculos sobre tablas., f 39;
#X text 4 68 Las tablas (o arrays \, como se llaman en la jerga de Pd \, o buffers \, como se diría en Max) \, son uno de los elementos básicos de este tipo de lenguajes de programación y son elementos muy versátiles \, que sirven para albergar y visualizar información secuencial. En esencia \, son listas o cadenas de valores numéricos \, que pueden representar casi cualquier cosa: la definición de una escala o una melodía \, una curva o envolvente \, la forma de onda de un archivo de sonido \, un conjunto de presets \, etc..., f 102;
#X obj 8 521 cnv 15 699 23 empty empty A\ lo\ largo\ del\ curso\,\ veremos\ métodos\ de\ manipulación\ aplicados\ a\ distitos\ conceptos\ y\ contextos 5 12 0 16 #0064c8 #ffffff 0;
#X text 12 173 - Datos de muestra de audio: cuando los valores de una tabla se limitan a un rango entre -1 y 1 \, su contenido es adecuado para la conversión a señal de audio analógica. Estas arrays suelen tener miles de elementos y se almacenan en el disco duro en forma de archivos aiff o wav., f 36;
