#N canvas 827 239 527 327 12;
#X obj 0 0 cnv 15 712 37 empty empty Lectura\ de\ archivos\ de\ sonido\ en\ tablas 5 20 0 24 #696969 #ffffff 0;
#X obj 4 46 cnv 15 520 24 empty empty Creación\ y\ procesamiento\ de\ sonido\ con\ Pd 5 11 0 16 #1e1e1e #ffffff 0;
#X obj 534 46 cnv 15 175 24 empty empty anxefaraldo@gmail.com 5 11 0 16 #c8c8c8 #000000 0;
#X obj 355 476 bng 25 250 50 0 empty empty empty 17 7 0 10 #191919 #e1e1e1 #e1e1e1;
#X obj 253 488 out~;
#N canvas 0 22 450 300 (subpatch) 0;
#X array mi-sonido 492032 float 0;
#X coords 0 1 492031 -1 183 121 1;
#X restore 36 413 graph;
#X obj 29 258 soundfiler;
#X obj 29 199 openpanel;
#X text 10 74 De manera alternativa a [readsf~] pd dispone de mecanismos para cargar archivos de sonido en tablas (también llamadas "arrays" o "buffers" \, según el entorno). Esto nos permite \, una vez cargadas \, acceder a cualquier punto arbitrario del archivo de sonido \, permitiendo numerosas manipulaciones y transformaciones sonoras., f 99;
#X text 387 473 Al igual que [readsf~] \, [tablplay~] produce un "bang" por el outlet +derecho cuando el objeto acaba de reproducir el archivo., f 41;
#X obj 29 164 bng 25 250 50 0 empty empty empty 17 7 0 10 #191919 #e1e1e1 #e1e1e1;
#X msg 214 169 read ruta-completa-del-archivo-origen nombre-de-la-tabla-de-destino, f 63;
#X msg 29 228 read -resize \$1 mi-sonido;
#X text 207 215 si además utilizamos el "flag" -resize \, el tamaño de tabla se ajustará para contener el archivo de sonido al completo. los flags son métodos específicos para algunos objetos \, normalmente se les reconoce por ir precedidos de guión (-)., f 70;
#X text 29 341 El objeto nos proporciona además \, información sobre el archivo que acabamos de cargar., f 28;
#X obj 29 314 print duración-en-samples;
#X msg 281 334 0 44100;
#X msg 282 303 44100;
#X msg 255 273 bang;
#X msg 279 399 stop;
#X msg 331 273 0;
#X text 307 273 =;
#X text 376 272 "bang" o 0 reproduce la tabla de principio a fin.;
#X text 358 332 una lista de dos números indica COMIENZO DURACIÓN;
#X text 326 400 stop interrumpe la reproducción;
#X obj 253 441 tabplay~ mi-sonido;
#X text 349 303 un número distinto de 0 indica el punto (sample) de comienzo;
#X obj 76 287 print info-sobre-archivo;
#X msg 280 364 44100 1000;
#X text 16 125 Al igual que en el ejemplo anterior \, utilizamos [openpanel] para interactuar con nuestro SO y cargar un archivo de sonido \, en este caso \, a través del objeto [soundfiler] \, cuya función es leer/guardar archivos de sonido de/a tablas:, f 98;
#X connect 6 0 15 0;
#X connect 6 1 27 0;
#X connect 7 0 12 0;
#X connect 10 0 7 0;
#X connect 12 0 6 0;
#X connect 16 0 25 0 32.................E....38+++eA....d++++qE....;
#X connect 17 0 25 0 32.................F....z8+++uA....c++++mG....;
#X connect 18 0 25 0;
#X connect 19 0 25 0 32.................K....b9++++B....m++++aA....;
#X connect 25 0 4 0;
#X connect 25 0 4 1;
#X connect 25 1 3 0;
#X connect 28 0 25 0 32.................F....78+++uA....e++++yC....;
