#N canvas 208 117 815 531 16;
#N canvas 0 23 450 278 (subpatch) 0;
#X array fase 1000 float 0;
#X coords 0 1 999 -1 256 213 1 0 0;
#X restore 414 114 graph;
#X msg 80 197 0;
#X floatatom 19 163 5 0 0 0 - - - 0;
#X obj 76 341 bng 15 250 50 0 empty empty empty 17 7 0 10 #fcfcfc #000000 #000000;
#X obj 0 0 cnv 15 712 37 empty empty El\ oscilador\ phasor~ 5 20 0 24 #696969 #ffffff 0;
#X obj 5 47 cnv 15 520 24 empty empty Creación\ y\ procesamiento\ de\ sonido\ con\ Pd 5 11 0 16 #1e1e1e #ffffff 0;
#X obj 535 47 cnv 15 175 24 empty empty anxefaraldo@gmail.com 5 11 0 16 #c8c8c8 #000000 0;
#X text 75 164 frecuencia;
#X text 116 198 fase;
#X text 415 334 x = tiempo en samples;
#X text 415 348 y = valores de amplitud en rango -1 a 1, f 22;
#X obj 19 473 out~;
#X text 18 90 Pd dispone de varios osciladores que sirven distintos propósitos. Además de [osc~] \, que genera ondas cosenoidales para multitud de proósitos \, el objeto [phasor~] sintetiza una onda de diente-de-sierra ascendente., f 39;
#X obj 72 267 tgl 25 0 empty empty empty 17 7 0 10 #191919 #e1e1e1 #e1e1e1 0 1;
#X text 53 403 [tabwrite~] recibe señales de audio y las escribe en la tabla indicada cada vez que recibe una instrucción para hacerlo (bang)., f 29;
#X obj 72 306 metro 250;
#X text 98 339 Escribe una vez la señal en la tabla "phase;
#X text 415 389 Fíjate \, que al contrario de otros osciladores y señales de "sonido" (audio para ser enviado al convertidor DAC) \, el rango numérico de [phasor~] oscila entre 0 y 1 Esto es un indicativo de algunas de las funciones para las que está diseñado., f 27;
#X text 103 261 Activa el [metro] para refrescar la tabla constantemente, f 19;
#X obj 55 376 tabwrite~ fase;
#X obj 19 230 phasor~ 100;
#X connect 1 0 20 1;
#X connect 2 0 20 0;
#X connect 3 0 19 0;
#X connect 13 0 15 0;
#X connect 15 0 3 0;
#X connect 20 0 19 0;
#X connect 20 0 11 0;
#X connect 20 0 11 1 32.................SC...XD...vz....FA...7M....;
