#N canvas 587 774 1697 1133 10;
#X obj 417 298 - 3;
#X obj 363 390 +~ 1;
#X obj 363 329 *~ 1;
#X obj 362 234 phasor~;
#X obj 25 496 * 1, f 19;
#X obj 362 203 * 1;
#X msg 390 100 -1;
#X msg 429 100 1;
#X obj 390 135 t b f;
#X msg 406 202 0;
#X obj 0 0 cnv 15 712 37 empty empty Cambio\ de\ velocidad\ y\ dirección 5 20 0 24 #696969 #ffffff 0;
#X obj 2 45 cnv 15 520 24 empty empty Creación\ y\ procesamiento\ de\ sonido\ con\ Pd 5 11 0 16 #1e1e1e #ffffff 0;
#X obj 532 45 cnv 15 175 24 empty empty anxefaraldo@gmail.com 5 11 0 16 #c8c8c8 #000000 0;
#N canvas 0 22 450 278 (subpatch) 0;
#X array mi-sonido 65559 float 0;
#X coords 0 1 65558 -1 200 150 1 0 0;
#X restore 16 174 graph;
#X obj 25 392 samplerate~;
#X floatatom 25 419 6 0 0 0 - - - 16;
#X obj 25 447 /, f 10;
#X obj 25 362 t b f;
#X floatatom 25 475 5 0 0 0 - - - 0;
#X obj 363 419 tabread4~ mi-sonido;
#X obj 363 458 out~;
#X text 62 474 f = SR / T;
#X obj 16 133 s duracion-en-puntos;
#X obj 25 332 r duracion-en-puntos;
#X obj 417 273 r duracion-en-puntos;
#X text 456 299 tamaño - 3 puntos;
#X text 400 390 + 1 punto (evitamos el primer punto);
#X text 462 99 Una de las simplicidades de este método es que simplemente multiplicando por -1 la frecuencia (cambio de dirección del oscilador) \, conseguimos reproducir mi-sonido hacia atrás., f 39;
#X floatatom 120 431 12 0 0 0 empty - - 16;
#X text 118 365 alterar la frecuencia del [phasor~] que lee la tabla \, naturalmente altera la velocidad de lectura del archivo \, y correspondientemente \, la altura., f 39;
#N canvas 733 172 450 300 cargar-archivo-de-sonido 0;
#X obj 16 164 soundfiler;
#X obj 16 106 openpanel;
#X msg 105 167 resize \$1;
#X msg 16 135 read -resize \$1 mi-sonido;
#X obj 105 195 s fase;
#X floatatom 37 223 11 0 0 0 empty - - 8;
#X obj 16 77 inlet;
#X obj 16 245 outlet;
#X connect 0 0 5 0;
#X connect 0 0 2 0 48.................G....LD...vA....CA...f9+++eU....n++++WE...P6++++;
#X connect 0 0 7 0;
#X connect 1 0 3 0;
#X connect 2 0 4 0;
#X connect 3 0 0 0;
#X connect 6 0 1 0;
#X restore 16 107 pd cargar-archivo-de-sonido;
#X obj 16 76 bng 25 250 50 0 empty empty empty 17 7 0 10 #191919 #e1e1e1 #e1e1e1;
#X text 436 200 Podemos resetear la fase para volver al principio del archivo de sonido en cualquier momento, f 40;
#X text 417 337 para interpolar debemos leer la tabla desde el segundo punto hasta la duración - 2 puntos., f 34;
#X text 468 449 Además de leer los valores de la tabla \, [tabread4~] produce una interpolación para generar valores "intermedios" no presentes en la tabla de referencia., f 42;
#X text 204 108 << Clica para ver el contenido previo encapsulado!, f 21;
#X connect 0 0 2 1 32.................F....b8+++uA....W++++u.....;
#X connect 1 0 19 0;
#X connect 2 0 1 0;
#X connect 3 0 2 0;
#X connect 4 0 5 0 48.................I....vS...PB....7D...Xq+++eTA...15+++GU....x9+++;
#X connect 5 0 3 0;
#X connect 6 0 8 0;
#X connect 7 0 8 0 32.................H....n8+++OB....Z+++++.....;
#X connect 8 0 5 0;
#X connect 8 1 5 1;
#X connect 9 0 3 1;
#X connect 14 0 15 0;
#X connect 15 0 16 0;
#X connect 16 0 18 0;
#X connect 17 0 14 0;
#X connect 17 1 16 1 32.................D....bD....A....GA...DD....;
#X connect 18 0 4 0;
#X connect 19 0 20 0;
#X connect 19 0 20 1 32.................L....XD....C....FA...fA....;
#X connect 23 0 17 0;
#X connect 24 0 0 0;
#X connect 28 0 4 1;
#X connect 30 0 22 0;
#X connect 31 0 30 0;
