#N canvas 142 266 1354 1152 10;
#X obj 237 248 * 1;
#X msg 484 117 1 \$1;
#X obj 484 143 /;
#X msg 484 170 2 \$1;
#X obj 484 196 pow;
#X floatatom 484 223 5 0 0 0 - - - 0;
#X obj 465 289 pow;
#X obj 464 258 swap;
#X obj 465 323 t b f;
#X floatatom 227 171 9 0 0 0 - - - 16;
#X floatatom 484 81 5 0 0 0 - - - 16;
#X obj 0 0 cnv 15 712 37 empty empty Transposición\ de\ archivos\ de\ sonido 5 20 0 24 #696969 #ffffff 0;
#X obj 5 45 cnv 15 520 24 empty empty Creación\ y\ procesamiento\ de\ sonido\ con\ Pd 5 11 0 16 #1e1e1e #ffffff 0;
#X obj 535 45 cnv 15 175 24 empty empty anxefaraldo@gmail.com 5 11 0 16 #c8c8c8 #000000 0;
#X obj 303 372 - 3;
#X obj 237 407 +~ 1;
#X obj 237 381 *~ 1;
#X obj 236 347 phasor~;
#X obj 236 316 * 1;
#X msg 284 245 -1;
#X msg 323 245 1;
#X obj 284 280 t b f;
#X msg 280 315 0;
#N canvas 0 22 450 278 (subpatch) 0;
#X array mi-sonido 305936 float 0;
#X coords 0 1 305935 -1 200 150 1 0 0;
#X restore 16 175 graph;
#X obj 23 398 samplerate~;
#X floatatom 23 425 6 0 0 0 - - - 16;
#X obj 23 453 /, f 10;
#X obj 23 368 t b f;
#X floatatom 23 501 5 0 0 0 - - - 0;
#X obj 237 436 tabread4~ mi-sonido;
#X obj 237 475 out~;
#X text 40 477 f = SR / T;
#X obj 16 134 s duracion-en-puntos;
#X obj 23 338 r duracion-en-puntos;
#X obj 303 347 r duracion-en-puntos;
#N canvas 733 172 450 300 cargar-archivo-de-sonido 0;
#X obj 16 164 soundfiler;
#X obj 16 106 openpanel;
#X msg 105 167 resize \$1;
#X msg 16 135 read -resize \$1 mi-sonido;
#X obj 105 195 s fase;
#X floatatom 37 223 11 0 0 0 empty - - 8;
#X obj 16 77 inlet;
#X obj 16 245 outlet;
#X connect 0 0 5 0;
#X connect 0 0 2 0 48.................G....LD...vA....CA...f9+++eU....n++++WE...P6++++;
#X connect 0 0 7 0;
#X connect 1 0 3 0;
#X connect 2 0 4 0;
#X connect 3 0 0 0;
#X connect 6 0 1 0;
#X restore 16 108 pd cargar-archivo-de-sonido;
#X obj 16 77 bng 25 250 50 0 empty empty empty 17 7 0 10 #191919 #e1e1e1 #e1e1e1;
#X text 361 244 dirección;
#X text 311 316 reset;
#X floatatom 508 323 7 0 0 0 - - - 16;
#X text 546 80 divisiones / octava;
#X text 541 169 2^(1/d);
#X text 227 136 Pasos de transposición temperada (semitonal), f 26;
#X text 536 116 Esta cadena de objetos calcula el ratio temperado de la transposición:, f 27;
#X text 536 195 donde 2 representa el ratio de la octava (doble de frecuencia) \, y el número de pasos (semitonos) temperados en cada octava., f 23;
#X text 384 383 [swap] invierte el orden activo/pasivo caliente/frio en paquetes de dos elementos. De este modo \, el valor de transposición es el elemento que produce un resultado \, aunque por lla sintaxis de [pow] deba ser el segundo argumento, f 53;
#X text 384 463 De esta manera \, [pow] se encarga de calcular el ratio de transposición correcto \, expresado como, f 45;
#X text 388 515 "ratio-temperado^factor-de-transposición";
#X connect 0 0 18 0;
#X connect 1 0 2 0;
#X connect 2 0 3 0;
#X connect 3 0 4 0;
#X connect 4 0 5 0;
#X connect 5 0 7 1;
#X connect 6 0 8 0;
#X connect 6 0 39 0 32.................F....rB...fA....q....jA....;
#X connect 7 0 6 0;
#X connect 7 1 6 1;
#X connect 8 0 0 0 48.................K....z9++++B....s++++63+++eG++++N9+++2w+++un++++;
#X connect 8 1 0 1 48.................Q....f8+++eD....X++++W4+++OG++++U9+++yw+++un++++;
#X connect 9 0 7 0 32.................K....zN...vB....sC...jF....;
#X connect 10 0 1 0;
#X connect 14 0 16 1 48.................E....X9+++eA....l++++C+++++x++++v++++u7+++u8++++;
#X connect 15 0 29 0;
#X connect 16 0 15 0;
#X connect 17 0 16 0;
#X connect 18 0 17 0;
#X connect 19 0 21 0;
#X connect 20 0 21 0 32.................H....n8+++OB....Z+++++.....;
#X connect 21 0 18 0 32.................G....D8++++A....Q++++CA....;
#X connect 21 1 18 1 32.................G.....8++++A....P++++CA....;
#X connect 22 0 17 1;
#X connect 24 0 25 0;
#X connect 25 0 26 0;
#X connect 26 0 28 0;
#X connect 27 0 24 0;
#X connect 27 1 26 1 32.................C....bA...v.....W....DD....;
#X connect 28 0 0 0 80.................K....7K...vB....+B...32++++u....98++++K...fR++++9B...nz+++uu....f6+++aM....39+++VC...Pu+++O;
#X connect 29 0 30 0;
#X connect 29 0 30 1 32.................L....XD....C....FA...fA....;
#X connect 33 0 27 0;
#X connect 34 0 14 0;
#X connect 35 0 32 0;
#X connect 36 0 35 0;
