#N canvas 399 65 1290 588 12;
#X floatatom 20 104 8 0 128 1 MIDI\ note\ number - - 16;
#X obj 0 0 cnv 15 712 37 empty empty Notas\ midi\,\ pitch-classes\ y\ octavas 5 20 0 24 #696969 #ffffff 0;
#X obj 0 44 cnv 15 532 24 empty empty Creación\ y\ procesamiento\ de\ sonido\ con\ Pd 5 11 0 16 #1e1e1e #ffffff 0;
#X obj 533 52 cnv 15 175 24 empty empty anxefaraldo@gmail.com 5 11 0 16 #c8c8c8 #000000 0;
#X obj 179 179 div 12;
#X obj 20 329 mod 12;
#X obj 449 164 / 12;
#X floatatom 179 209 5 0 0 0 empty - - 12;
#X floatatom 20 359 5 0 0 0 empty - - 12;
#X floatatom 449 194 12 0 0 0 empty - - 12;
#X floatatom 179 269 5 0 0 0 empty - - 12;
#X obj 179 239 - 1;
#X text 65 358 pitch-class;
#X text 219 267 Índice de octava (do4 central);
#X text 219 207 Índice de octava (do5 central);
#X text 14 388 [mod] produce el resto entero resultado de dividir el primer valor (inlet) por el segundo (argumento). Es un objeto muy útil para "doblar" secuencias numéricas largas en secuencias numéricas más cortas. En este caso [mod 12] devuelve el pitch-class de una nota midi. El concepto de pitch-class fue introducido por Alen Forte y asigna un número entero (0-11) a cada una de las 12 notas de la escala cromática temperada \, y a los correspondientes derivados. Es una categoría muy utilizada en música por ordenador y composición algorítmica \, pues resulta mucho más manejable que otras representaciones simbólicas de las alturas en el sistema tonal occidental., f 92;
#X text 21 505 0 = C \, 1 = C# \, 2 = D \, 3 = D# \, 4 = E \, 5 = F \, 6 = F# \, 7 = G \, 8 = G# \, 9 = A \, 10 = A# \, 11 = B, f 73;
#X text 179 298 Con una operación como [div 12] que nos devuelve el conciente entrero de la división \, podemos obtener el índice de octava de cualquier nota midi (en rango 0-127)., f 34;
#X text 449 214 La división decimal resulta \, en este caso \, menos útil que las dos operaciones anteriores \, con números enteros., f 36;
#X connect 0 0 6 0 32.................R.....d...fD....fG...TC....;
#X connect 0 0 5 0 32.................R.....O...fD....vC...TC....;
#X connect 0 0 4 0 32.................a.........vF.........TC....;
#X connect 4 0 7 0;
#X connect 5 0 8 0;
#X connect 6 0 9 0;
#X connect 7 0 11 0;
#X connect 11 0 10 0;
