#N canvas 399 65 1290 588 12;
#X floatatom 65 121 8 0 128 1 MIDI\ note\ number - - 16;
#X obj 65 365 osc~;
#X obj 65 176 mtof;
#X floatatom 65 203 5 0 0 1 Hz. - - 10;
#X obj 356 375 pow;
#X floatatom 356 458 7 0 0 0 - - - 10;
#X obj 356 280 - 69;
#X msg 356 308 1.05946 \$1;
#X obj 356 427 * 442;
#X floatatom 91 327 6 0 0 1 Midi\ note\ val - - 10;
#X obj 91 297 ftom, f 5;
#X obj 0 0 cnv 15 712 37 empty empty Notas\ midi\ y\ semitonos 5 20 0 24 #696969 #ffffff 0;
#X obj 44 418 else/out~;
#X obj 0 44 cnv 15 532 24 empty empty Creación\ y\ procesamiento\ de\ sonido\ con\ Pd 5 11 0 16 #1e1e1e #ffffff 0;
#X obj 533 52 cnv 15 175 24 empty empty anxefaraldo@gmail.com 5 11 0 16 #c8c8c8 #000000 0;
#X text 128 175 [mtof] y [ftom] convierten números de nota midi a equivalentes de frecuencia y viceversa. Hay que tener en cuenta que \, en el ejemplo \, [osc~] espera un número que representa su frecuencia en Hz \, de ahí la necesidad de una conversión., f 30;
#X text 398 269 Restamos la nota midi 69 (La4) \, como nota de referencia del sistema de afinación, f 37;
#X text 446 307 Elevamos el ratio de semitono (2^(1/12) ~ 1.059) al índice de transposición semitonal deseada, f 32;
#X text 398 369 Este objeto recibe potencias y exponentes y evalua su resultado, f 34;
#X text 410 416 que finalmente multiplicamos por la frecuencia de referencia deseada., f 32;
#X text 383 163 Esta operación es equivalente a una conversión midi-a-frecuencia. SIn embargo \, en este caso nos permite especificar la frecuencia de referencia \, o el caso de necesitar divisiones de la octava diferentes al semitono \, como cuartos de tono., f 41;
#X connect 0 0 2 0;
#X connect 0 0 6 0 48.................U....zC...PE....8....TA...vs....U....bK...Pi....;
#X connect 1 0 12 0;
#X connect 1 0 12 1;
#X connect 2 0 3 0;
#X connect 3 0 10 0;
#X connect 3 0 1 0;
#X connect 4 0 8 0;
#X connect 6 0 7 0;
#X connect 7 0 4 0;
#X connect 8 0 5 0;
#X connect 10 0 9 0;
