#N canvas 827 239 527 327 12;
#X obj 55 453 pgmout;
#X obj 361 295 bendout;
#X obj 135 453 touchout;
#X obj 218 453 polytouchout;
#X floatatom 361 269 5 0 0 0 - - - 0;
#X floatatom 55 427 4 0 127 0 - - - 0;
#X floatatom 135 427 4 0 127 0 - - - 0;
#X floatatom 218 427 4 0 127 0 - - - 0;
#X floatatom 258 427 4 0 127 0 - - - 0;
#X floatatom 27 175 5 0 127 0 - - - 12;
#X text 72 174 valor (0-127), f 12;
#X obj 27 264 ctlout 7, f 9;
#X obj 98 264 ctlout 7 1, f 9;
#X text 27 292 [ctlout] envía información de controlador al puerto seleccionado en las preferencias. El argumento de creación representa \, en este caso \, el número de controlador y no el canal. El segundo argumento es el que representa el canal midi., f 31;
#X text 327 414 [pgmout] \, [touchout] y [polytouchout] envían \, respectivamente \, cambios de programa midi (en rango 1-128) \, de valor de aftertouch y de aftertouch polifónico. En estos objetos \, el argumento de creación representa el canal midi, f 48;
#X text 361 177 [bendout] toma valores entre -8192 to 8191 para controlar la "pitch-wheel" o el pitch-bend del canal seleccionado. Este controlador con una resolución superior al resto \, puede ser utilizado en combinación con noteout para conseguir afinaciones no temperadas., f 48;
#X text 87 201 número de controlador (0-127), f 26;
#X text 111 231 canal midi (1-16), f 19;
#X floatatom 46 202 5 0 127 0 - - - 12;
#X floatatom 66 232 5 0 127 0 - - - 12;
#X obj 0 0 cnv 15 712 37 empty empty Otros\ datos\ MIDI:\ control\,\ program... 5 20 0 24 #696969 #ffffff 0;
#X obj 0 44 cnv 15 532 24 empty empty Creación\ y\ procesamiento\ de\ sonido\ con\ Pd 5 11 0 16 #1e1e1e #ffffff 0;
#X obj 523 46 cnv 15 175 24 empty empty anxefaraldo@gmail.com 5 11 0 16 #c8c8c8 #000000 0;
#X text 34 86 Además de notas \, el protocolo MIDI contempla otro tipo de datos para el control de instrumentos musicales. Estos "otros" datos están divididos en CONTROLADORES (controlan parámetros expresivos como la modulación \, el vibrato \, etc.) \, PROGRAMAS (que funcionan como instrumentos o presets) \, AFTERTOUCH o PITCH BEND., f 92;
#X connect 4 0 1 0;
#X connect 5 0 0 0;
#X connect 6 0 2 0;
#X connect 7 0 3 0;
#X connect 8 0 3 1;
#X connect 9 0 11 0;
#X connect 18 0 11 1;
#X connect 19 0 11 2;
