#N canvas 827 239 527 327 12;
#X floatatom 189 369 5 0 0 1 velocity - - 12;
#X floatatom 86 369 5 0 0 1 MNN - - 12;
#X msg 30 116 60;
#X msg 116 116 67;
#X msg 72 116 64;
#X obj 86 212 makenote 100 1000;
#X obj 86 409 noteout 1;
#X text 163 403 [noteout] envía información de nota midi (Número de nota \, velocity y canal) al puerto seleccionado en las preferencias., f 56;
#X text 84 443 El argumento de creación indica el canal midi a donde se envían los pares de nota y velocity. El canal se puede cambiar dinámicamente a través del tercer inlet, f 66;
#X text 29 89 notas midi (c4 \, e4 \, g4);
#X floatatom 187 118 5 0 0 2 velocity - - 12;
#X text 236 110 midi "velocity" \, representa la intensidad del evento en una escala de 0-127, f 34;
#X floatatom 208 158 9 0 0 1 duración\ (ms) - - 12;
#X text 84 503 En Pd/Max \, típicamente \, un mensaje de "NOTE OFF" (fin de nota) \, está marcado por una nota midi con velocidad CERO, f 51;
#X obj 107 290 pack;
#X text 210 325 <<< Mira la consola! El objeto [print] es súper util para comprobar si las cosas funcionan tal y como esperábamos.;
#X obj 107 320 print midipair;
#X obj 0 0 cnv 15 712 37 empty empty Formateo\ y\ envío\ de\ eventos\ MIDI 5 20 0 24 #696969 #ffffff 0;
#X obj 15 48 cnv 15 512 24 empty empty Creación\ y\ procesamiento\ de\ sonido\ con\ Pd 5 11 0 16 #1e1e1e #ffffff 0;
#X obj 534 48 cnv 15 175 24 empty empty anxefaraldo@gmail.com 5 11 0 16 #c8c8c8 #000000 0;
#X text 224 190 [makenote] es un objeto útil para generar "eventos" MIDI. El protocolo midi no especifica la duración de los eventos \, que son delimitados por mensajes de NOTE ON (nota + velocity distinta de cero) y NOTE OFF (típicamente \, nota + velocity igual a cero). [makenote] genera un mensaje de NOTE OFF transcurrido el tiempo especificado en el tercer inlet \, o en el segundo argumento., f 58;
#X obj 210 294 cnv 15 498 26 empty empty Un\ evento\ MIDI\ combina\ tres\ elementos:\ Altura\,\ velocidad\ y\ duración. 5 12 0 16 #0064c8 #e1e1e1 0;
#X connect 0 0 6 1;
#X connect 1 0 6 0;
#X connect 2 0 5 0;
#X connect 3 0 5 0;
#X connect 4 0 5 0;
#X connect 5 0 14 0;
#X connect 5 0 1 0;
#X connect 5 1 14 1;
#X connect 5 1 0 0;
#X connect 10 0 5 1;
#X connect 12 0 5 2;
#X connect 14 0 16 0;
