#N canvas 827 239 527 327 12;
#X floatatom 231 488 12 0 0 0 - - - 12;
#X obj 0 0 cnv 15 712 37 empty empty MIDI\ microtonal\ con\ notas\ y\ pitch-bend 5 20 0 24 #696969 #ffffff 0;
#X obj 0 44 cnv 15 532 24 empty empty Creación\ y\ procesamiento\ de\ sonido\ con\ Pd 5 11 0 16 #1e1e1e #ffffff 0;
#X obj 523 46 cnv 15 175 24 empty empty anxefaraldo@gmail.com 5 11 0 16 #c8c8c8 #000000 0;
#X obj 231 511 bendout 1;
#X floatatom 121 473 5 0 0 1 velocity - - 12;
#X floatatom 18 473 5 0 0 1 MNN - - 12;
#X obj 18 436 makenote 100 1000;
#X obj 18 513 noteout 1;
#X floatatom 70 404 5 0 0 2 velocity - - 12;
#X floatatom 121 404 9 0 0 2 duración\ (ms) - - 12;
#X text 82 99 Do4 1/4 de tono alto;
#X text 122 123 Mi4 1/3 de tono alto;
#X text 258 92 Puesto que el protocolo MIDI no acepta notas más pequeñas que el semitono \, hemos de separar la parte MIDI "decimal" de la entera \, para enviar la afinación microtonal como información de pitch bend.;
#X obj 18 182 t f f, f 9;
#X obj 18 332 int;
#X floatatom 38 362 6 0 0 0 empty - - 12;
#X obj 231 218 wrap;
#X floatatom 231 248 6 0 0 0 empty - - 12;
#X text 284 218 Complementariamente \, [wrap] descarta la parte entera de un número \, retornando solo el valor decimal. Es por tanto un objeto que siempre produce un resultado en el rango 0-1., f 52;
#X obj 231 430 * 16384;
#X obj 231 462 - 8192;
#X obj 231 275 + 0.5;
#X msg 37 99 60.5;
#X text 329 467 El control "pitch-bend" toma el doble de memoria que el resto de controles midi (2^14). Es por ello que multiplicamos el rango 0-1 para escalarlo \, y luego le restamos la mitad \, para que sea una señal bipolar (con parte negativa y positiva., f 52;
#X text 284 274 Sumamos 0.5 para que el valor de reposo (0) \, esté a mitad del rango.;
#X msg 58 122 60.666;
#X msg 81 145 60.75;
#X msg 18 75 60;
#X text 58 76 Do4;
#X text 137 146 Sol4 3/8 de tono alto;
#X msg 299 369 16384;
#X obj 299 394 /, f 11;
#X obj 343 337 t b f;
#X floatatom 349 429 7 0 0 0 empty - - 12;
#X obj 299 429 * 0.5;
#X text 40 236 Los números en Pd son siempre decimales \, sin embargo \, el objeto [int] convierte floats en ints (enteros) \, truncando la parte decimal de la cifra., f 21;
#X msg 343 304 2;
#X msg 383 305 4;
#X msg 418 304 24;
#X text 403 340 Este fragmento de código nos permite especificar el rango máximo de pitch-bend \, que es variable según cada configuración midi. Los rangos más habituales son \, en semitonos \, +-1 \, +-2 (tono) y +-12 (octava)., f 36;
#X connect 0 0 4 0;
#X connect 5 0 8 1;
#X connect 6 0 8 0;
#X connect 7 0 6 0;
#X connect 7 1 5 0;
#X connect 9 0 7 1;
#X connect 10 0 7 2;
#X connect 14 0 15 0;
#X connect 14 1 17 0 32.................H....nJ....B....pB...LA....;
#X connect 15 0 7 0;
#X connect 15 0 16 0;
#X connect 17 0 18 0;
#X connect 18 0 22 0;
#X connect 20 0 21 0;
#X connect 21 0 0 0;
#X connect 22 0 20 0;
#X connect 23 0 14 0 32.................O....39++++C....t++++KF....;
#X connect 26 0 14 0 32.................K....j8++++B....Y++++uD....;
#X connect 27 0 14 0 32.................F....H7+++uA....B++++SC....;
#X connect 28 0 14 0 32.................8.........PO.........nG....;
#X connect 31 0 32 0;
#X connect 32 0 20 1;
#X connect 32 0 35 0;
#X connect 32 0 34 0;
#X connect 33 0 31 0 32.................H....T8+++OB....U++++y.....;
#X connect 33 1 32 1;
#X connect 35 0 21 1 32.................F....b8+++uA....W++++2.....;
#X connect 37 0 33 0 32.................C.........v..........X.....;
#X connect 38 0 33 0 32.................H....j8+++OB....Y++++y.....;
#X connect 39 0 33 0 32.................H....X6+++OB....19+++2.....;
