#N canvas 827 239 527 327 12;
#X obj 0 0 cnv 15 712 37 empty empty Metro\,\ contador\ y\ secuenciador 5 20 0 24 #696969 #ffffff 0;
#X obj 0 44 cnv 15 532 24 empty empty Creación\ y\ procesamiento\ de\ sonido\ con\ Pd 5 11 0 16 #1e1e1e #ffffff 0;
#X obj 523 46 cnv 15 175 24 empty empty anxefaraldo@gmail.com 5 11 0 16 #c8c8c8 #000000 0;
#X obj 17 79 tgl 25 0 empty empty empty 17 7 0 10 #191919 #ffffff #ffffff 0 1;
#X obj 17 113 metro 1000;
#X floatatom 72 79 5 0 0 0 empty - - 12;
#X obj 17 155 bng 25 250 50 0 empty empty empty 17 7 0 10 #191919 #ffffff #ffffff;
#X text 51 154 comment, f 57;
#X text 107 112 [metro] emite pulsaciones regulares (bangs) al intervalo en milisegundos especificado en su argumento de creación \, o a través del inlet derecho., f 62;
#X obj 17 199 f 0;
#X obj 74 199 + 1;
#X text 51 154 Es nuestra herramienta fundamental para poner en marcha el tiempo. Nos sirve para automatizar tarea sy generar valores a intervalos de tiempo regulares., f 70;
#X floatatom 34 235 8 0 0 0 empty - - 24;
#X text 120 193 Fíjate en esta combinación de objetos \, que emite valores enteros de manera secuencial con un incremento de +1 cada vez. Esta combinación de objetos es nuestro primer LOOP lógico:, f 79;
#X text 161 236 [f 0] almacena un número para su uso posterior. Se inicializa con el valor cero \, valor que es sustituído por el valor (pasivo) que a cada iteración se almacena a través del inlet derecho., f 73;
#X text 102 302 [+ 1] suma 1 al valor que recibe por el inlet izquierdo \, produciendo un resultado inmediatamente \, que a su vez es guardado en el inlet pasivo de [f 0] \, que será emitido con el siguiente "bang"., f 77;
#X floatatom 17 444 6 0 0 0 empty - - 16;
#X text 98 361 Este es un ejemplo perfecto de la importancia y necesidad de que existan inlets pasivos y activos!, f 79;
#X text 89 410 Es habitual "loopear" una secuencia de números infinita en ciclos más pequeños \, que representen \, por ejemplo \, tiempos \, subdivisiones \, o compases. Con esa finalidad \, [mod 4] convierte en flujo de números creciente en un bucle en rango 0-4., f 73;
#X obj 17 479 hradio 20 1 0 4 empty empty empty 0 -8 0 10 #191919 #e1e1e1 #e1e1e1 0;
#X obj 17 411 mod 4;
#X text 120 478 Este objeto de GUI es un "horizontal radio" (Add > UI > Horizontal Radio). Como otros objetos de interacción gráfica \, sirve a un tiempo para interactuar con el programa \, como para visualizar resultados en un modo conveniente., f 73;
#X connect 3 0 4 0;
#X connect 4 0 6 0;
#X connect 5 0 4 1;
#X connect 6 0 9 0;
#X connect 9 0 10 0;
#X connect 9 0 12 0;
#X connect 9 0 20 0;
#X connect 10 0 9 1;
#X connect 16 0 19 0;
#X connect 20 0 16 0;
