#N canvas 827 239 527 327 12;
#X obj 0 0 cnv 15 712 37 empty empty Tempo\ y\ subdivisiones 5 20 0 24 #696969 #ffffff 0;
#X obj 0 44 cnv 15 532 24 empty empty Creación\ y\ procesamiento\ de\ sonido\ con\ Pd 5 11 0 16 #1e1e1e #ffffff 0;
#X obj 523 46 cnv 15 175 24 empty empty anxefaraldo@gmail.com 5 11 0 16 #c8c8c8 #000000 0;
#X obj 12 242 tgl 25 0 empty empty empty 17 7 0 10 #191919 #ffffff #ffffff 0 1;
#X obj 12 276 metro 1000;
#X floatatom 49 84 5 0 0 0 empty - - 12;
#X obj 12 306 f 0;
#X obj 69 306 + 1;
#X msg 32 138 60000;
#X obj 47 166 /, f 8;
#X floatatom 65 192 6 0 0 0 empty - - 10;
#X text 92 82 tempo en bpm;
#X obj 49 109 t b f, f 8;
#X text 120 191 1 minuto = 60 segundos * 1000 milisegundos = 60000 ms.;
#X obj 47 221 / 4;
#X floatatom 66 254 7 0 0 0 empty - - 8;
#X obj 196 471 hradio 20 1 0 16 empty empty empty 0 -8 0 10 #191919 #e1e1e1 #e1e1e1 0;
#X obj 12 338 mod 16;
#X obj 12 403 sel 0;
#X obj 196 492 hradio 41 1 0 8 empty empty empty 0 -8 0 11 #191919 #e1e1e1 #e1e1e1 0;
#X obj 12 373 mod 4;
#X obj 104 403 int;
#X obj 104 431 change;
#X obj 12 432 bng 25 250 50 0 empty empty empty 17 7 0 10 #191919 #e1e1e1 #e1e1e1;
#X obj 12 469 f 0;
#X obj 69 469 + 1;
#X text 114 213 si quisiéramos tener pulsaciones con mayor resolución (cuantización) \, podríamos añadir una división equivalente al número de subdivisiones deseadas \, 4 \, si por ejemplo \, pensamos en negras y semicorcheas., f 80;
#X obj 12 502 mod 4;
#X obj 196 534 hradio 83 1 0 4 empty empty empty 0 -8 0 11 #191919 #e1e1e1 #e1e1e1 0;
#X text 113 266 El ejemplo inferior muestra dos métodos alternativos para calcular múltiplos temporales a partir de la subdivisión más pequeña (en este caso \, tenemos un bucle de 16 semicorcheas)., f 75;
#X obj 104 374 / 2;
#X text 223 302 CORCHEAS. Dividimos el stream de semicorcheas en 2 Como ello nos da valores decimales \, utilizamos [int] para descartar la parte decimal. [change] elimina valores repetidos redundantes para no producir dos bangs por cada número., f 68;
#X text 221 371 NEGRAS. Utilizamos [mod 4] para hacer bucles de 4 semicorcheas. [sel] se encarga de producir un bang cada vez que recibe un 0 \, activando un nuevo contador con [mod 4] que representa el valor de negras.;
#X text 112 103 [metro] calcula en intervalo entre bangs sucesivos en milisegundos. En muchas aplicaciones musicales \, no obstante \, una medida de frecuencia temporal como las pulsaciones-por-minuto o bpm \, pueden resultar más intuitivas. Esto se obtiene dividiendo 1 minuto por el número de pulsaciones deseadas. Sin embargo \, como [metro] espera recibir su argumento en milisegundos \, hemos de realizar la conversión de minutos a milisegundos., f 84;
#X connect 3 0 4 0;
#X connect 4 0 6 0;
#X connect 5 0 12 0;
#X connect 6 0 7 0;
#X connect 6 0 17 0;
#X connect 7 0 6 1;
#X connect 8 0 9 0;
#X connect 9 0 10 0;
#X connect 9 0 14 0;
#X connect 12 0 8 0;
#X connect 12 1 9 1;
#X connect 14 0 4 1;
#X connect 14 0 15 0;
#X connect 17 0 20 0;
#X connect 17 0 30 0 32.................H....vE....B....bA....A....;
#X connect 17 0 16 0 48......................LH.........CB...L.....t....C....fK...fb....;
#X connect 18 0 23 0;
#X connect 20 0 18 0;
#X connect 21 0 22 0;
#X connect 22 0 19 0 32.................I....vE...PB....bA...nB....;
#X connect 23 0 24 0;
#X connect 24 0 25 0;
#X connect 24 0 27 0;
#X connect 25 0 24 1;
#X connect 27 0 28 0 32.................G....fK...vA....3B...z.....;
#X connect 30 0 21 0;
