#N canvas 827 239 527 327 12;
#X obj 0 0 cnv 15 712 37 empty empty Control\ secuencial\ desde\ la\ DAW 5 20 0 24 #696969 #ffffff 0;
#X obj 0 44 cnv 15 532 24 empty empty Creación\ y\ procesamiento\ de\ sonido\ con\ Pd 5 11 0 16 #1e1e1e #ffffff 0;
#X obj 523 46 cnv 15 175 24 empty empty anxefaraldo@gmail.com 5 11 0 16 #c8c8c8 #000000 0;
#X obj 16 122 playhead, f 23;
#X obj 197 123 unpack f f f;
#X obj 50 399 unpack f f;
#X floatatom 197 211 5 0 0 1 tiempo\ (en\ beats\,\ desde\ el\ inicio) - - 12;
#X floatatom 224 180 9 0 0 1 tiempo\ (samples) - - 12;
#X floatatom 251 153 8 0 0 1 tiempo\ (segundos) - - 12;
#X floatatom 160 241 5 0 0 1 n.\ de\ tiempos\ en\ compás - - 12;
#X floatatom 139 273 5 0 0 1 compás\ (expresado\ como\ 1er\ tiempo\ de\ compás) - - 12;
#X floatatom 118 307 5 0 0 1 tempo\ (bpm) - - 12;
#X floatatom 96 339 5 0 0 1 framerate - - 12;
#X floatatom 33 483 5 0 0 1 rec\ (boolean) - - 12;
#X floatatom 11 510 5 0 0 1 play\ (boolean) - - 12;
#X floatatom 75 370 5 0 0 1 edittime - - 12;
#X floatatom 50 454 5 0 0 1 inicio\ del\ loop - - 12;
#X floatatom 96 427 5 0 0 1 final\ del\ loop - - 12;
#X obj 419 517 noteout, f 12;
#X obj 420 418 random 12;
#X obj 419 484 makenote 96;
#X obj 458 313 change;
#X obj 458 285 mod;
#X obj 420 355 sel 0;
#X text 531 245 en este ejemplo \, utilizamos el tiempo en beats y el tipo de compás para generar un acorde aleatorio a cada nuevo compás., f 19;
#X obj 512 418 random 12;
#X obj 598 418 random 12;
#X obj 420 386 t b b b;
#X obj 235 370 /;
#X msg 235 343 60000 \$1;
#X floatatom 235 398 5 0 0 0 - - - 12;
#X text 14 78 Como utilidad exclusiva de la distribución plugdata \, a través del objeto [playhead] podemos acceder a la información del cursor de tiempo y otros parámetros de reproducción tales como el tempo o el compás del DAW., f 96;
#X obj 361 344 *;
#X floatatom 361 376 5 0 0 0 - - - 12;
#X obj 361 403 - 10;
#X text 235 426 y calculamos la duración de cada acorde a partir del tempo del daw y la duración del compás para que los acordes duren un compás entero., f 19;
#X obj 420 443 + 48;
#X obj 598 443 + 60, f 5;
#X obj 512 443 + 54;
#X connect 3 0 14 0;
#X connect 3 1 13 0;
#X connect 3 2 5 0;
#X connect 3 3 15 0;
#X connect 3 4 12 0;
#X connect 3 5 11 0;
#X connect 3 6 10 0;
#X connect 3 7 9 0;
#X connect 3 8 4 0;
#X connect 4 0 6 0;
#X connect 4 1 7 0;
#X connect 4 2 8 0;
#X connect 5 0 16 0;
#X connect 5 1 17 0;
#X connect 6 0 22 0 48.................G.....B...vA....f....X....PAA...F....TP....X....;
#X connect 9 0 22 1 48.................I....rI...PB....aB...j....fMA...I....XS...vI....;
#X connect 9 0 32 1 32.................H....fJ....B....nB...PG....;
#X connect 11 0 29 0 32.................J....nI...fB....ZB...PA....;
#X connect 19 0 36 0;
#X connect 20 0 18 0;
#X connect 20 1 18 1;
#X connect 21 0 23 0;
#X connect 22 0 21 0;
#X connect 23 0 27 0;
#X connect 25 0 38 0;
#X connect 26 0 37 0;
#X connect 27 0 19 0;
#X connect 27 1 25 0 32.................G....3D...vA....NA...z.....;
#X connect 27 2 26 0 32.................G....TI...vA....UB...z.....;
#X connect 28 0 30 0;
#X connect 29 0 28 0;
#X connect 30 0 32 0 48.................G....rE...vA....aA....6+++ue....v9+++6G...Pt++++;
#X connect 32 0 33 0;
#X connect 33 0 34 0;
#X connect 34 0 20 2 32.................t....jG...fK....4A...3C....;
#X connect 36 0 20 0;
#X connect 37 0 20 0;
#X connect 38 0 20 0;
