#N canvas 827 239 527 327 12;
#X obj 0 0 cnv 15 712 37 empty empty Escalas\ y\ transposición 5 20 0 24 #696969 #ffffff 0;
#X obj 0 44 cnv 15 532 24 empty empty Creación\ y\ procesamiento\ de\ sonido\ con\ Pd 5 11 0 16 #1e1e1e #ffffff 0;
#X obj 523 46 cnv 15 175 24 empty empty anxefaraldo@gmail.com 5 11 0 16 #c8c8c8 #000000 0;
#X obj 7 111 metro 400;
#X obj 7 76 tgl 25 0 empty empty empty 17 7 0 10 #191919 #e1e1e1 #e1e1e1 0 1;
#X obj 8 481 makenote 100 300;
#X obj 8 520 noteout 1;
#X obj 7 344 + 60;
#X obj 7 139 random 13;
#X obj 8 437 + 0;
#X floatatom 30 373 5 0 0 1 transposición - - 12;
#X text 52 396 La transposición cromática en MIDI se consigue sumando o restando una constante al flujo de notas midi \, que representa el intervalo de transposición en semitonos., f 34;
#X text 89 75 A partir del concepto de pitch-class \, podemos imaginar que un contador con [mod 12] por ejemplo \, generaría una escala cromática ascendente \, a la cual \, sumándole un offset \, podría comenzar en la nota deseeada., f 30;
#X text 26 196 En este ejemplo \, sin embago \, utilizamos [random 13] \, un objeto que al recibir un "bang" genera un número entero aleatorio entre cero y el número especificado en su argumento menos uno (n-1). De este modo \, obtenemos valores de la escala cromática de manera desordenada., f 40;
#X obj 318 108 metro 400;
#X obj 318 73 tgl 25 0 empty empty empty 17 7 0 10 #191919 #e1e1e1 #e1e1e1 0 1;
#X msg 318 225 0;
#X obj 318 166 random 5;
#X floatatom 362 137 5 0 0 0 empty - - 12;
#X obj 318 196 select 0 1 2 3 4, f 31;
#X text 412 106 si aumentamos el número de pasos random \, obtendremos ritmos aleatorios \, ya que los números mayores a 4 no están enrutados en el objeto [select]., f 34;
#X msg 435 226 7;
#X obj 317 270 f;
#X msg 357 226 3;
#X msg 396 225 5;
#X msg 474 225 10;
#X floatatom 531 227 5 0 0 1 (resto) - - 12;
#X obj 583 398 metro 400;
#X obj 583 363 tgl 25 0 empty empty empty 17 7 0 10 #191919 #e1e1e1 #e1e1e1 0 1;
#X text 357 262 [select] emite un bang por el outlet correspondiente cada vez que el valor de su inlet coincide con uno de sus argumentos de creación. En este caso \, mapeamos cada uno de los outlets de select a un pitch-class \, que representan una escala pentatónica menor. Los elementos no coincidentes son expulsados tal cual por el último outlet de la derecha., f 51;
#X obj 583 455 select 1 3 6 8 10, f 15;
#X obj 583 425 random 13;
#X text 306 370 En este ejemplo aplicamos la lógica inversa: utilizamos el último outlet de la derecha de [select] para utilizar como escala las notas que no están declaradas en el objeto \, obteniendo una escala mayor (0 2 4 5 7 9 11) que es el conjunto complementario a los pitch-clases que representan las notas negras (1 3 6 8 10), f 38;
#X obj 88 517 cnv 15 557 24 empty empty Más\ adelante\ veremos\ métodos\ más\ versátiles\ de\ definir\ y\ manipular\ escalas. 5 12 0 16 #0064c8 #e1e1e1 0;
#X floatatom 317 343 5 0 0 0 empty - - 12;
#X floatatom 666 512 5 0 0 0 empty - - 12;
#X text 53 345 nota más grave;
#X connect 3 0 8 0;
#X connect 4 0 3 0;
#X connect 5 0 6 0;
#X connect 5 1 6 1;
#X connect 7 0 9 0;
#X connect 8 0 7 0;
#X connect 9 0 5 0;
#X connect 10 0 9 1;
#X connect 14 0 17 0;
#X connect 15 0 14 0;
#X connect 16 0 22 0 32.................T..........E.........fB....;
#X connect 17 0 19 0;
#X connect 18 0 17 1;
#X connect 19 0 16 0;
#X connect 19 1 23 0;
#X connect 19 2 24 0;
#X connect 19 3 21 0;
#X connect 19 4 25 0;
#X connect 19 5 26 0;
#X connect 21 0 22 0 32.................J....r3+++uB....K9+++iA....;
#X connect 22 0 34 0;
#X connect 22 0 7 0 32.................d....rr+++uG....K6+++eC....;
#X connect 23 0 22 0 32.................J....j8+++uB....Y++++iA....;
#X connect 24 0 22 0 32.................K....H6++++B....x9+++mA....;
#X connect 25 0 22 0 32.................L....P1+++OC....j8+++mA....;
#X connect 27 0 31 0;
#X connect 28 0 27 0;
#X connect 30 5 35 0;
#X connect 30 5 7 0 48.................a....Hn++++F....B5+++a2+++ua8+++18+++6V++++e++++;
#X connect 31 0 30 0;
