#N canvas 827 239 527 327 12;
#X obj 0 0 cnv 15 712 37 empty empty Automatización\ y\ control\ de\ parámetros\ desde\ la\ DAW 5 20 0 24 #696969 #ffffff 0;
#X obj 0 44 cnv 15 532 24 empty empty Creación\ y\ procesamiento\ de\ sonido\ con\ Pd 5 11 0 16 #1e1e1e #ffffff 0;
#X obj 523 46 cnv 15 175 24 empty empty anxefaraldo@gmail.com 5 11 0 16 #c8c8c8 #000000 0;
#X obj 9 140 playhead, f 23;
#X obj 147 169 unpack f f f;
#X floatatom 147 257 5 0 0 1 tiempo\ (en\ beats\,\ desde\ el\ inicio) - - 12;
#X floatatom 174 226 9 0 0 1 tiempo\ (samples) - - 12;
#X floatatom 201 199 8 0 0 1 tiempo\ (segundos) - - 12;
#X obj 147 475 noteout, f 12;
#X obj 147 286 * 4;
#X obj 147 316 int;
#X obj 126 346 change;
#X obj 147 377 t b;
#X obj 463 308 param velocity;
#X msg 370 160 create \, range 0 127;
#X obj 147 411 f 60, f 12;
#X obj 370 308 param pitch;
#X obj 147 442 makenote 96 50;
#X obj 561 199 hsl 128 22 0 127 0 0 empty empty velocity -2 -8 0 10 #191919 #e1e1e1 #e1e1e1 0 1;
#X obj 412 199 hsl 128 22 0 127 0 0 empty empty pitch -2 -8 0 10 #191919 #e1e1e1 #e1e1e1 0 1;
#X text 266 388 El objeto [param] nos permite (de nuevo \, solo en la distribución pludgata) relacionarnos con los parámetros del patch desde las secciones de control de la DAW (normalmente como MIDI control changes).;
#X floatatom 493 340 5 0 0 0 - - - 12;
#X floatatom 391 340 5 0 0 0 - - - 12;
#X text 409 248 envio de parámetros directamente a la DAW, f 21;
#X text 544 339 parámetros controlados desde la DAW, f 21;
#X text 266 474 Podemos tanto enviar valores para almacenarlos en curvas de automatización \, así como recibir las curvas de automatización creadas por otros métodos convencionales como elementos de control variable del patch.;
#X text 173 84 Podemos crear parámetros de automatizacion directamente en el patch \, o a través del menú contextual derecho. Ten en cuenta que los parámetros solo funcionan en la DAW y han de inicializarse cada vez que el patch se carga., f 75;
#X obj 370 132 loadbang;
#X connect 3 8 4 0;
#X connect 4 0 5 0;
#X connect 4 1 6 0;
#X connect 4 2 7 0;
#X connect 5 0 9 0;
#X connect 9 0 10 0;
#X connect 10 0 11 0;
#X connect 11 0 12 0;
#X connect 12 0 15 0;
#X connect 13 0 21 0;
#X connect 13 0 17 1 32.................o....ns+++eJ....Z6+++OG....;
#X connect 14 0 16 0;
#X connect 14 0 13 0 32.................zA...zE....c....cA...DH....;
#X connect 15 0 17 0;
#X connect 16 0 15 1 32.................K....jw++++B....Y7+++SE....;
#X connect 16 0 22 0;
#X connect 17 0 8 0;
#X connect 17 1 8 1;
#X connect 18 0 13 0 32.................KA...H5++++R....h9+++eE....;
#X connect 19 0 16 0 32.................M....n8+++eC....Z++++eE....;
#X connect 27 0 14 0;
