#N canvas 827 239 527 327 12;
#X floatatom 132 438 5 0 0 1 velocity - - 12;
#X floatatom 29 438 5 0 0 1 MNN - - 12;
#X obj 29 404 makenote 100 1000;
#X obj 29 478 noteout 1;
#X obj 0 0 cnv 15 712 37 empty empty Generación\ de\ eventos\ midi\ a\ distintos\ tempi 5 20 0 24 #696969 #ffffff 0;
#X obj 0 44 cnv 15 532 24 empty empty Creación\ y\ procesamiento\ de\ sonido\ con\ Pd 5 11 0 16 #1e1e1e #ffffff 0;
#X obj 534 48 cnv 15 175 24 empty empty anxefaraldo@gmail.com 5 11 0 16 #c8c8c8 #000000 0;
#X obj 29 263 metro 1000;
#X obj 29 121 tgl 43 0 empty empty empty 17 7 0 10 #191919 #e1e1e1 #e1e1e1 0 1;
#X obj 84 203 * 1;
#X obj 84 233 t f f, f 7;
#X obj 132 278 * 0.5;
#X floatatom 84 122 18 0 0 0 empty - - 36;
#X text 84 103 TEMPO BASE;
#X text 179 253 La duración del evento es la mitad que la del intervalo entre ataques., f 17;
#X floatatom 452 438 5 0 0 1 - - - 12;
#X floatatom 349 438 5 0 0 1 - - - 12;
#X obj 349 404 makenote 100 1000;
#X obj 349 478 noteout 1;
#X obj 349 263 metro 1000;
#X obj 404 233 t f f, f 7;
#X obj 452 263 * 0.5;
#X obj 404 203 * 1.1;
#X floatatom 642 438 5 0 0 1 - - - 12;
#X floatatom 539 438 5 0 0 1 - - - 12;
#X obj 539 404 makenote 100 1000;
#X obj 539 478 noteout 1;
#X obj 539 263 metro 1000;
#X obj 594 233 t f f, f 7;
#X obj 642 263 * 0.5;
#X obj 594 203 * 1.2;
#X text 132 202 El factor de tempo es diferente en cada duplicación, f 26;
#X obj 29 329 + 48;
#X obj 29 299 random 25;
#X text 74 328 El ejemplo genera números random entre 0-24 y les suma 48 \, obteniendo un rango cromático de 2 octavas desde el C3., f 30;
#X obj 349 329 + 48;
#X obj 349 299 random 25;
#X obj 539 337 + 48;
#X obj 539 307 random 25;
#X connect 0 0 3 1;
#X connect 1 0 3 0;
#X connect 2 0 1 0;
#X connect 2 1 0 0;
#X connect 7 0 33 0;
#X connect 8 0 7 0;
#X connect 8 0 27 0 32.................W....La...vE....yF...LF....;
#X connect 8 0 19 0 48.................V....vE...fE....bA...XA...vDA...V....LQ...vX....;
#X connect 9 0 10 0;
#X connect 10 0 7 1;
#X connect 10 1 11 0;
#X connect 11 0 2 2;
#X connect 12 0 9 0;
#X connect 12 0 30 0 32.................I....La...PB....yF...bB....;
#X connect 12 0 22 0 32.................I....LQ...PB....SD...bB....;
#X connect 15 0 18 1;
#X connect 16 0 18 0;
#X connect 17 0 16 0;
#X connect 17 1 15 0;
#X connect 19 0 36 0;
#X connect 20 0 19 1;
#X connect 20 1 21 0;
#X connect 21 0 17 2;
#X connect 22 0 20 0;
#X connect 23 0 26 1;
#X connect 24 0 26 0;
#X connect 25 0 24 0;
#X connect 25 1 23 0;
#X connect 27 0 38 0;
#X connect 28 0 27 1;
#X connect 28 1 29 0;
#X connect 29 0 25 2;
#X connect 30 0 28 0;
#X connect 32 0 2 0;
#X connect 33 0 32 0;
#X connect 35 0 17 0;
#X connect 36 0 35 0;
#X connect 37 0 25 0;
#X connect 38 0 37 0;
