#N canvas 827 239 527 327 12;
#X text 27 28 "dummy-voice" o "dummy-grain" contendría el algoritmo de generación de sonido \, que recibe valores específicos de parámetros del patch principal "main" y genera el sonido en consecuencla.;
#X obj 29 103 inlet;
#X floatatom 29 139 5 0 0 0 - - - 12;
#X obj 28 427 snake~ in 4;
#X obj 28 477 throw~ multichannel-out;
#X obj 28 364 sig~ 1;
#X obj 82 364 sig~ 2;
#X obj 142 364 sig~ 3;
#X obj 203 364 sig~ 4;
#X obj 279 101 inlet;
#X floatatom 279 132 5 0 0 0 - - - 12;
#X obj 29 170 print this-is-inlet1-of-instance-\$1;
#X obj 279 170 print this-is-inlet2-of-instance-\$1;
#X obj 27 223 receive control2;
#X floatatom 27 253 5 0 0 0 - - - 12;
#X obj 27 287 outlet;
#X obj 226 220 loadbang;
#X obj 299 283 symbol \$2;
#X obj 299 408 print my-second-argument;
#X obj 299 312 dummy-abs2;
#X obj 299 344 dummy-abs2;
#X obj 299 375 dummy-abs2;
#X obj 509 98 inlet;
#X connect 1 0 2 0;
#X connect 2 0 11 0;
#X connect 3 0 4 0;
#X connect 5 0 3 0;
#X connect 6 0 3 1;
#X connect 7 0 3 2;
#X connect 8 0 3 3;
#X connect 9 0 10 0;
#X connect 10 0 12 0;
#X connect 13 0 14 0;
#X connect 14 0 15 0;
#X connect 16 0 17 0;
#X connect 17 0 19 0;
#X connect 19 0 20 0;
#X connect 20 0 21 0;
#X connect 21 0 18 0;
#X connect 22 0 17 0 32..................B...rr+++Of....K6+++KL....;
