#N canvas 399 65 1290 588 12;
#X floatatom 65 121 8 0 128 1 MIDI\ note\ number - - 16;
#X obj 65 365 osc~;
#X obj 65 176 mtof;
#X floatatom 65 203 5 0 0 1 Hz. - - 10;
#X obj 343 344 pow;
#X floatatom 343 427 7 0 0 0 - - - 10;
#X obj 343 280 - 69;
#X msg 343 308 1.05946 \$1;
#X obj 343 396 * 442;
#X floatatom 91 327 6 0 0 1 Midi\ note\ val - - 10;
#X obj 91 297 ftom, f 5;
#X text 128 175 [mtof] and [ftom] conveniently convert midi note numbers to frequency equivalents and vice versa. Note that [osc~] expects an number representing its frequency in Hz \, hence the need of a conversion., f 27;
#X text 433 307 Semitone ratio = 2^(1/12) ~ 1.059, f 32;
#X text 385 269 subtraction of midi note number of reference (A4), f 37;
#X text 385 338 Semitone ratio to the power of the transposition factor, f 25;
#X text 397 385 Multiplied by the tuning reference frequency, f 25;
#X obj 14 10 cnv 15 694 37 empty empty Notas\ midi\ y\ semitonos 5 20 0 24 #696969 #ffffff 0;
#X obj 44 418 else/out~;
#X text 370 159 this operation is equivalent to a Midi-to-frequency conversion. However \, it will give us more control in case we need to change the reference tuning frequency \, or the number of equal divisions per octave if different than 12, f 41;
#X floatatom 343 465 7 0 0 0 - - - 10;
#X obj 14 52 cnv 15 512 24 empty empty Creación\ y\ procesamiento\ de\ sonido\ con\ Pd 5 11 0 16 #1e1e1e #ffffff 0;
#X obj 533 52 cnv 15 175 24 empty empty angelfaraldo@gmail.com 5 11 0 16 #c8c8c8 #000000 0;
#X connect 0 0 2 0 empty;
#X connect 0 0 6 0 48.................U....zC...PE....8....TA...vs....U....bK...Pi....;
#X connect 1 0 17 0 empty;
#X connect 1 0 17 1 empty;
#X connect 2 0 3 0 empty;
#X connect 3 0 10 0 empty;
#X connect 3 0 1 0 empty;
#X connect 4 0 8 0 empty;
#X connect 6 0 7 0 empty;
#X connect 7 0 4 0 empty;
#X connect 8 0 5 0 empty;
#X connect 10 0 9 0 empty;
