#N canvas 364 215 628 433 12;
#X obj 159 45 loadbang;
#X msg 159 95 5;
#X floatatom 159 165 5 0 0 0 - - - 0;
#X text 198 84 messages preserve data \, so you will find the same message after reopening your patch. You can also interact with this object as if it were a button., f 57;
#X obj 159 305 f 5;
#X msg 99 95 5;
#X floatatom 99 166 5 0 0 0 - - - 0;
#X floatatom 159 370 5 0 0 0 - - - 0;
#X obj 159 250 loadbang;
#X obj 99 305 f 5;
#X floatatom 99 370 5 0 0 0 - - - 0;
#X floatatom 39 166 5 0 0 0 - - - 0;
#X text 207 148 numberboxes DO NOT preserve data. They just reflect the last input they have receive (via a message or an object \, or via user interaction with mouse or keyboard., f 56;
#X text 232 34 [loadbang] is an OBJECT that sends a bang when the patch is opened. It is useful to initialize values., f 52;
#X msg 99 250 bang;
#X text 207 291 the object [f] (float) stores number variables. If you initialise it with an argument \, that will be preserved when you open the patch. You can interact with objects via connections \, for example \, you can send a "bang" to the left inlet to return results., f 55;
#X connect 0 0 1 0;
#X connect 1 0 2 0;
#X connect 4 0 7 0;
#X connect 5 0 6 0;
#X connect 8 0 4 0;
#X connect 9 0 10 0;
#X connect 14 0 9 0;
