#N canvas 300 46 1470 1129 12;
#N canvas 0 22 450 278 (subpatch) 0;
#X array array1 123069 float 2;
#X coords 0 1 123069 -1 200 140 1 0 0;
#X restore 156 19 graph;
#X obj 50 216 soundfiler;
#X floatatom 50 241 10 0 0 0 - - - 0;
#X obj 50 110 openpanel;
#X obj 18 89 bng 15 250 50 0 empty empty empty 17 7 0 10 #fcfcfc #000000 #000000;
#X msg 50 88 bang;
#X text 36 87 =;
#X obj 59 134 print;
#X obj 60 338 send table_size;
#X msg 50 186 read -resize \$1 array1;
#X obj 366 301 phasor~;
#X floatatom 58 503 5 0 0 0 - - - 0;
#X obj 352 512 dac~;
#X obj 366 474 tabread4~ array1;
#X obj 366 426 +~ 1;
#X obj 366 401 *~;
#X obj 384 356 - 3;
#X obj 68 387 samplerate~;
#X obj 50 410 /;
#X obj 68 364 loadbang;
#X floatatom 48 434 5 0 0 0 - - - 0;
#X msg 48 458 1 \$1;
#X obj 48 481 /;
#X obj 50 159 symbol;
#X msg 453 226 0;
#X text 483 229 reset phase;
#X obj 71 286 / 16;
#X obj 70 311 send step_length;
#X obj 493 368 *;
#X obj 406 326 r step_length;
#X obj 96 263 r n_steps;
#X obj 366 450 +~ 0, f 7;
#X obj 483 268 bng 15 250 50 0 empty empty empty 17 7 0 10 #fcfcfc #000000 #000000;
#X obj 367 93 * 16;
#X obj 387 42 r n_steps;
#X obj 50 60 s n_steps;
#X floatatom 18 13 5 0 0 0 - - - 0;
#X obj 453 172 metro;
#X obj 453 151 tgl 15 0 empty empty empty 17 7 0 10 #fcfcfc #000000 #000000 0 1;
#X obj 18 36 t b f;
#X obj 387 67 t b f;
#X floatatom 376 122 5 0 0 0 - - - 0;
#X floatatom 499 173 5 0 0 0 - - - 0;
#X obj 485 147 /;
#X msg 485 123 1000 \$1;
#X obj 568 126 r n_steps;
#X obj 568 153 array size probs;
#X obj 453 197 t b b, f 18;
#N canvas 0 22 450 278 (subpatch) 0;
#X array probs 8 float 2;
#X coords 0 1 8 0 177 132 1 0 0;
#X restore 631 345 graph;
#X obj 48 525 s period-hz;
#X obj 367 19 r period-hz;
#X obj 493 311 array random;
#X listbox 604 286 14 0 0 0 empty - - 16;
#X obj 576 249 symbol probs;
#X floatatom 531 358 5 0 0 0 empty - - 12;
#X connect 1 0 2 0;
#X connect 2 0 8 0;
#X connect 2 0 18 0;
#X connect 2 0 26 0;
#X connect 3 0 7 0;
#X connect 3 0 23 0;
#X connect 4 0 23 0;
#X connect 5 0 3 0;
#X connect 9 0 1 0;
#X connect 10 0 15 0;
#X connect 13 0 12 0;
#X connect 13 0 12 1;
#X connect 14 0 31 0;
#X connect 15 0 14 0;
#X connect 16 0 15 1;
#X connect 17 0 18 1;
#X connect 18 0 20 0;
#X connect 19 0 17 0;
#X connect 20 0 21 0;
#X connect 21 0 22 0;
#X connect 22 0 11 0;
#X connect 22 0 49 0;
#X connect 23 0 9 0;
#X connect 24 0 10 1;
#X connect 24 0 32 0;
#X connect 26 0 27 0;
#X connect 28 0 31 1;
#X connect 29 0 28 1;
#X connect 29 0 16 0;
#X connect 30 0 26 1;
#X connect 31 0 13 0;
#X connect 32 0 51 0;
#X connect 33 0 10 0;
#X connect 33 0 41 0;
#X connect 33 0 44 0;
#X connect 34 0 40 0;
#X connect 36 0 39 0;
#X connect 37 0 47 0;
#X connect 38 0 37 0;
#X connect 39 0 4 0;
#X connect 39 1 35 0;
#X connect 40 0 33 0;
#X connect 40 1 33 1;
#X connect 43 0 42 0;
#X connect 43 0 37 1;
#X connect 44 0 43 0;
#X connect 45 0 46 0;
#X connect 47 0 24 0;
#X connect 47 1 53 0;
#X connect 50 0 33 0;
#X connect 51 0 28 0;
#X connect 51 0 54 0;
#X connect 53 0 51 2;
#X connect 53 0 52 0;
