#N canvas 689 23 1455 1274 10;
#N canvas 0 22 450 300 (subpatch) 0;
#X array \$0-file 88200 float 2;
#X coords 0 1 88200 -1 200 170 1;
#X restore 25 24 graph;
#X obj 359 285 r \$0-size;
#X obj 359 306 - 3;
#X obj 338 349 +~ 1;
#X obj 338 328 *~ 1;
#X obj 343 221 phasor~;
#X obj 358 35 loadbang;
#X obj 358 58 samplerate~;
#X obj 343 79 /;
#X obj 343 15 r \$0-size;
#X msg 343 99 1 \$1;
#X obj 343 119 /;
#X obj 343 141 f;
#X obj 343 198 * 1;
#X obj 390 153 t b f;
#X obj 390 131 /;
#X floatatom 390 84 5 0 0 1 - - - 0;
#X msg 390 109 1 \$1;
#X obj 272 255 samphold~;
#X obj 328 285 *~;
#X msg 382 196 0;
#X text 409 196 reset (start file);
#X text 427 84 time stretch factor;
#X obj 272 209 tgl 15 0 empty empty empty 17 7 0 10 #fcfcfc #000000 #000000 0 1;
#X text 291 209 loop?;
#X obj 272 232 sig~ 0;
#X text 355 371 all we've done so far is reading the array from left to right..;
#X obj 29 301 soundfiler;
#X obj 29 363 s \$0-size;
#X obj 29 234 openpanel;
#X msg 29 278 read -resize \$1 \$2-file;
#X obj 29 256 pack s \$0;
#X obj 29 210 bng 15 250 50 0 empty empty empty 17 7 0 10 #fcfcfc #000000 #000000;
#X obj 29 341 f;
#X obj 37 321 bng 17 250 50 0 empty empty empty 17 7 0 10 #fcfcfc #000000 #000000;
#X text 51 209 open a soundfile;
#X text 25 476 click on the object to see the guts of the patch:;
#X floatatom 390 420 5 0 0 1 - - - 0;
#X text 426 418 size deviation (sigma);
#X floatatom 443 452 5 0 0 1 - - - 0;
#X text 480 451 window size mean;
#X obj 338 573 *~;
#X obj 353 552 line~;
#X msg 353 530 \$1 20;
#X obj 356 505 hsl 128 15 0.01 4 1 0 empty empty empty -2 -8 0 10 #fcfcfc #000000 #000000 0 1;
#X text 490 504 volume compensation;
#X text 382 598 angelfaraldo@gmail.com - 2012;
#X obj 328 599 dac~;
#X floatatom 451 153 5 0 0 0 - - - 0;
#X obj 338 478 abs/stretch-async \$0;
#X connect 1 0 2 0;
#X connect 2 0 4 1;
#X connect 3 0 49 0;
#X connect 4 0 3 0;
#X connect 5 0 18 1;
#X connect 5 0 19 1;
#X connect 6 0 7 0;
#X connect 7 0 8 1;
#X connect 8 0 10 0;
#X connect 9 0 8 0;
#X connect 10 0 11 0;
#X connect 11 0 12 0;
#X connect 12 0 13 0;
#X connect 13 0 5 0;
#X connect 14 0 13 0;
#X connect 14 1 13 1;
#X connect 15 0 14 0;
#X connect 15 0 48 0;
#X connect 16 0 17 0;
#X connect 17 0 15 0;
#X connect 18 0 19 0;
#X connect 19 0 4 0;
#X connect 20 0 5 1;
#X connect 23 0 25 0;
#X connect 25 0 18 0;
#X connect 27 0 33 0;
#X connect 29 0 31 0;
#X connect 30 0 27 0;
#X connect 31 0 30 0;
#X connect 32 0 29 0;
#X connect 33 0 28 0;
#X connect 34 0 33 0;
#X connect 37 0 49 1;
#X connect 39 0 49 2;
#X connect 41 0 47 0;
#X connect 41 0 47 1;
#X connect 42 0 41 1;
#X connect 43 0 42 0;
#X connect 44 0 43 0;
#X connect 49 0 41 0;
