#N canvas 827 239 527 327 12;
#X obj 0 0 cnv 15 712 37 empty empty Lectura\ de\ archivos\ de\ sonido\ desde\ disco 5 20 0 24 #696969 #ffffff 0;
#X obj 4 46 cnv 15 520 24 empty empty Creación\ y\ procesamiento\ de\ sonido\ con\ Pd 5 11 0 16 #1e1e1e #ffffff 0;
#X obj 534 46 cnv 15 175 24 empty empty anxefaraldo@gmail.com 5 11 0 16 #c8c8c8 #000000 0;
#X obj 73 445 bng 25 250 50 0 empty empty empty 17 7 0 10 #191919 #e1e1e1 #e1e1e1;
#X msg 88 369 start;
#X msg 231 369 stop;
#X text 17 79 En Pd \, podemos acceder al contenido de un archivo de sonido de dos maneras complementarias \, directamente desde el disco duro \, o creando espacio en la RAM para acceder a ellos de manera más rápida., f 99;
#X msg 154 369 1;
#X msg 303 369 0;
#X text 278 368 =;
#X text 132 368 =;
#X obj 27 118 cnv 15 421 48 empty empty empty 20 12 0 14 #be0e00 #e1e1e1 0;
#X text 31 117 Una limitación de Pd \, es que sólo funciona de manera nativa con AUDIO SIN COMPRIMIR \, en formato PCM \, típicamente archivos WAV o AIFF., f 60;
#X obj 49 258 bng 25 250 50 0 empty empty empty 17 7 0 10 #191919 #e1e1e1 #e1e1e1;
#X msg 49 322 open \$1;
#X text 192 222 Cargar un archivo desde el disco duro puede tomar algo de tiempo (en archivos muy largos \, por lo que la documentación recomienda realizar este paso unos milisegundos antes de activar el reproductor. Lo hacemos mediante el mensaje "open" seguido de la ruta completa del archivo, f 64;
#X text 132 292 [openpanel] accede al sistema operativo para tomar la ruta completa de un archivo como símbolo en Pd. De ese modo \, podemos reproducir cualquier archivo de sonido que cumpla los requisitos (audio wav o aiff)., f 73;
#X obj 28 414 readsf~ 2;
#X obj 28 486 out~;
#X text 17 169 Para reproducir archivos de sonido directamente desde la memoria en el disco \, Pd dispone del objeto [readsf~] \, que toma como argumento el número de canales que queremos tomar del archivo., f 84;
#X text 105 415 Este objeto produce un "bang" por el outlet +derecho cuando el objeto acaba de reproducir el archivo. De esta manera \, entre otras muchas utilidades \, podríamos reproducir un archivo de sonido en bucle...;
#X text 84 346 iniciamos y paramos la reproducción con start/stop \, o los valores numéricos 0 y 1, f 73;
#X obj 49 293 openpanel;
#X msg 27 229 open ./audio/cello.wav;
#X connect 4 0 17 0 32.................J....T7+++uB....E++++mA....;
#X connect 5 0 17 0 32.................J....Xy+++uB....17+++uE....;
#X connect 7 0 17 0 32.................J....L3+++uB....C9++++A....;
#X connect 8 0 17 0 32.................J....3t+++uB....t6++++A....;
#X connect 13 0 22 0;
#X connect 14 0 17 0 32.................8....v9+++eO....r++++uD....;
#X connect 17 0 18 0;
#X connect 17 1 18 1 32.................t.....C...fK....v....bE....;
#X connect 17 2 3 0;
#X connect 22 0 14 0;
#X connect 23 0 17 0;
