#N canvas 151 104 979 718 16;
#X obj 304 449 sin;
#X obj 304 413 * 6.28319, f 7;
#X obj 304 384 / 360, f 6;
#X obj 365 451 cos;
#X obj 427 451 tan;
#X obj 0 0 cnv 15 712 37 empty empty Conversiones\ y\ funciones\ con\ phasor~ 5 20 0 24 #696969 #ffffff 0;
#X obj 4 45 cnv 15 520 24 empty empty Creación\ y\ procesamiento\ de\ sonido\ con\ Pd 5 11 0 16 #1e1e1e #ffffff 0;
#X obj 534 45 cnv 15 175 24 empty empty anxefaraldo@gmail.com 5 11 0 16 #c8c8c8 #000000 0;
#N canvas 0 22 450 278 (subpatch) 0;
#X array cos 1000 float 0;
#X coords 0 1 999 -1 200 150 1 0 0;
#X restore 278 154 graph;
#X obj 10 103 samplerate~;
#X obj 113 155 t b f;
#X obj 10 130 / 1000;
#X obj 10 76 loadbang;
#X obj 11 191 phasor~;
#X floatatom 304 357 5 0 0 1 grados - - 12;
#X text 381 416 2 * pi;
#X floatatom 304 477 5 0 0 0 empty - - 12;
#X floatatom 365 477 5 0 0 0 empty - - 12;
#X floatatom 427 477 5 0 0 0 empty - - 12;
#N canvas 0 22 450 278 (subpatch) 0;
#X array pow 1000 float 0;
#X coords 0 1 999 -1 200 150 1 0 0;
#X restore 496 154 graph;
#X obj 10 508 tabwrite~ cos;
#X obj 10 472 cos~;
#X floatatom 113 99 5 0 100 2 fase\ (0-100) - - 12;
#X floatatom 131 385 5 0 0 2 exponente - - 12;
#X obj 110 472 pow~ 2;
#X obj 173 471 r refresh;
#X obj 113 193 s refresh;
#X obj 130 411 t b f;
#X obj 113 127 * 0.01;
#X text 274 82 Solemos utilizar la salida de [phasor] para evaluar alguna función. Por ejemplo \, el objeto [cos~] devuelve el coseno de input en rango 0-1 \, con lo que nos permite convertir la rampa del phasor en una oscilación cosenoidal., f 43;
#X floatatom 496 477 5 0 0 0 empty - - 12;
#X floatatom 557 477 5 0 0 0 empty - - 12;
#X floatatom 619 477 5 0 0 0 empty - - 12;
#X obj 619 451 exp;
#X obj 496 451 atan;
#X obj 557 451 wrap;
#X text 442 356 Pd provee funciones matemáticas como sin \, cos \, tan \, atan \, exp \, abs \, y wrap. Estas funciones de control aceptan valores en radianes., f 22;
#X obj 110 508 tabwrite~ pow;
#X text 36 221 Al producir su output en rango 0-1 \, [phasor~] ofrece numerosas posibilidades de transferencia como input a una variedad de funciones., f 23;
#X text 36 288 El rango 0-1 es facilmente escalable \, y es óptimo para funciones de escalado a través de operaciones como multiplicación \, suma y exponenciación., f 23;
#X text 66 384 >>>>>>;
#X obj 173 446 s rfase;
#X obj 173 99 r rfase;
#X msg 173 127 0;
#X connect 0 0 16 0;
#X connect 1 0 0 0 32.................P..........D.........7A....;
#X connect 1 0 3 0 32.................H....zC....B....8....3A....;
#X connect 1 0 4 0 32.................H....rG....B....6A...3A....;
#X connect 1 0 33 0 32.................I....LV...PB....iE...HA....;
#X connect 1 0 34 0 32.................I....fN...PB....nC...HA....;
#X connect 1 0 35 0 48.................H....LI....B....SB...f....PIA...H....TR...fD....;
#X connect 2 0 1 0;
#X connect 3 0 17 0;
#X connect 4 0 18 0;
#X connect 9 0 11 0;
#X connect 10 0 26 0;
#X connect 10 1 13 1 32.................H....P6+++OB....z9++++A....;
#X connect 11 0 13 0;
#X connect 12 0 9 0;
#X connect 13 0 21 0;
#X connect 13 0 24 0 32.................3C...LF....9....iA...TP....;
#X connect 14 0 2 0;
#X connect 21 0 20 0;
#X connect 22 0 28 0;
#X connect 23 0 27 0;
#X connect 24 0 37 0 32.................L..........C.........bA....;
#X connect 25 0 37 0 32.................I....H7+++eB....B++++GA....;
#X connect 25 0 20 0 48.................I....z5+++eB....s9+++m....fW++++I....30+++eD....;
#X connect 27 0 41 0 32.................H....rB....B....q....7.....;
#X connect 27 1 24 1;
#X connect 28 0 10 0;
#X connect 33 0 32 0;
#X connect 34 0 30 0;
#X connect 35 0 31 0;
#X connect 42 0 43 0;
#X connect 43 0 10 0 32.................D....T7+++OA....E++++i.....;
