#N canvas 207 163 978 572 16;
#X obj 0 0 cnv 15 712 37 empty empty Revisión\ de\ objetos\ de\ acceso\ y\ manipulación\ de\ tablas 5 20 0 24 #696969 #ffffff 0;
#X obj 3 46 cnv 15 520 24 empty empty Creación\ y\ procesamiento\ de\ sonido\ con\ Pd 5 11 0 16 #1e1e1e #ffffff 0;
#X obj 533 46 cnv 15 175 24 empty empty anxefaraldo@gmail.com 5 11 0 16 #c8c8c8 #000000 0;
#X text 14 81 Pd ofrece una serie de objetos para crear \, acceder \, manipular y modificar arrays o tablas. Estas son las más comunes (algunas de ellas \, han aparecido en otros ejemplos).;
#X obj 22 170 soundfiler;
#X obj 22 129 readsf~;
#X obj 87 129 writesf~;
#X text 153 130 Lectura y escritura de archivos de sonido de/a disco.;
#X text 103 171 Lectura y escritura de archivos de sonido en arrays para su manipulación;
#X obj 22 212 tabplay~;
#X text 96 211 reproducción audio de archivos de sonido desde tablas;
#X obj 25 251 tabread;
#X obj 103 251 tabread~;
#X obj 185 251 tabread4;
#X obj 263 251 tabread4~;
#X text 25 282 objetos en versión control y audio de lectura de tablas. Las versiones con "4" realizan interpolación de los valores de entrada.;
#X obj 25 329 tabwrite;
#X obj 103 329 tabwrite~;
#X text 182 331 escritura de datos en tablas \, versión control y audio.;
#X obj 27 368 tabsend~;
#X obj 111 366 tabreceive~;
#X text 213 366 envios no locales de/a tablas en ratio de audio;
#X obj 27 415 table array1 44100;
#X text 155 416 creación de tabla sin elemento gráfico;
#X obj 27 449 array define array2;
#X text 161 452 creación de tabla con manipulaciones avanzadas;
