#N canvas 296 268 894 556 12;
#X obj 31 365 zexy/tabset;
#X obj 31 446 zexy/tabdump;
#X obj 31 288 arraysize;
#X text 139 259 Pd vanilla > 0.46;
#X obj 149 289 array size;
#X obj 149 366 array set;
#X obj 149 447 array get;
#X text 125 292 =;
#X text 125 366 =;
#X text 128 445 =;
#X obj 264 518 s array2;
#N canvas 0 22 450 278 (subpatch) 0;
#X array array2 515 float 2;
#X coords 0 1 512 -1 200 140 1 0 0;
#X restore 31 100 graph;
#X floatatom 264 114 5 0 0 0 - - - 0;
#X msg 264 139 const \$1;
#X msg 286 190 resize \$1;
#X floatatom 286 166 5 0 0 0 - - - 0;
#X msg 489 468 write ./test1.txt;
#X msg 367 468 read ./test1.txt;
#X floatatom 359 315 5 0 0 0 - - - 0;
#X text 498 428 low x \, high y \, high x \, low y;
#X obj 359 402 pack;
#X obj 382 370 * -1;
#X obj 359 340 t f f;
#X msg 359 428 bounds 0 \$1 512 \$2;
#X msg 303 219 sinesum 512 1 0.5 0.25;
#X obj 0 0 cnv 15 712 37 empty empty Métodos\ especiíficos\ de\ tablas\ y\ otros\ objetos 5 20 0 24 #696969 #ffffff 0;
#X obj 1 44 cnv 15 520 24 empty empty Creación\ y\ procesamiento\ de\ sonido\ con\ Pd 5 11 0 16 #1e1e1e #ffffff 0;
#X obj 531 44 cnv 15 175 24 empty empty anxefaraldo@gmail.com 5 11 0 16 #c8c8c8 #000000 0;
#X text 31 259 Externals;
#X text 259 84 MÉTODOS ESPECÍFICOS PARA TABLAS;
#X text 367 517 CARGAR Y GUARDAR TABLAS EN TEXTO;
#X text 31 476 retorna los contenidos de una tabla como lista., f 22;
#X text 31 388 Escribe los contenidos de listas en tablas., f 22;
#X text 31 314 Devuelve el tamaño de la tabla (cantidad de índices)., f 27;
#X text 340 118 Escribe un único valor constante en todos los elementos de la tabla, f 32;
#X text 367 165 Cambio en vivo del tamaño (x) de la tabla., f 32;
#X text 462 218 método para crear formas de onda basadas en síntesis aditiva. Espera un tamaño de la tabla en puntos \, seguida de las amplitudes relativas de armónicos sucesivos., f 30;
#X msg 332 271 normalize;
#X connect 12 0 13 0;
#X connect 13 0 10 0;
#X connect 14 0 10 0;
#X connect 15 0 14 0;
#X connect 16 0 10 0;
#X connect 17 0 10 0;
#X connect 18 0 22 0;
#X connect 20 0 23 0;
#X connect 21 0 20 1;
#X connect 22 0 20 0;
#X connect 22 1 21 0;
#X connect 23 0 10 0;
#X connect 24 0 10 0;
#X connect 37 0 10 0;
