#N canvas 827 239 527 327 12;
#X obj 85 600 tabwrite histogram;
#N canvas 0 0 450 250 (subpatch) 0;
#X array histogram 2 float 2;
#X coords 0 1 2 -1 1082 494 1;
#X restore 372 90 graph;
#X obj 28 122 until;
#X msg 109 526 clear \; histogram const 0 \;;
#X obj 73 121 bng 25 250 50 0 empty empty empty 17 7 0 10 #e4e4e4 #4d4d4d #373737;
#X obj 85 570 histogram -size 1000;
#A saved;
#X msg 16 21 100000;
#X msg 16 78 \; histogram normalize 1;
#X obj 16 50 t b f;
#X obj 28 169 bang;
#X msg 101 25 100;
#X obj 59 210 kg-gauss 200 500;
#X obj 59 272 random 100;
#X obj 58 358 bng 20 250 50 0 empty empty empty 0 -6 0 8 #fcfcfc #000000 #000000;
#X obj 112 358 bng 20 250 50 0 empty empty empty 0 -6 0 8 #fcfcfc #000000 #000000;
#X floatatom 112 301 3 0 100 0 - - - 0;
#X obj 59 330 moses 80;
#X text 144 301 <= change probability;
#X floatatom 11 306 5 0 0 0 - - - 12;
#X msg 55 404 1;
#X msg 118 404 2;
#X connect 2 0 9 0;
#X connect 3 0 5 0;
#X connect 4 0 9 0;
#X connect 5 0 0 0;
#X connect 6 0 8 0;
#X connect 8 0 7 0;
#X connect 8 1 2 0;
#X connect 9 0 11 0;
#X connect 9 0 12 0;
#X connect 10 0 8 0;
#X connect 12 0 16 0;
#X connect 12 0 18 0;
#X connect 13 0 19 0;
#X connect 14 0 20 0;
#X connect 15 0 16 1;
#X connect 16 0 13 0;
#X connect 16 1 14 0;
#X connect 19 0 5 0;
#X connect 20 0 5 0;
