#N canvas 827 239 527 327 12;
#X obj 69 34 bng 25 250 50 0 empty empty empty 17 7 0 10 #e4e4e4 #4d4d4d #373737;
#X obj 89 489 makenote 96 300;
#X obj 102 399 + 60;
#X obj 122 545 noteout, f 8;
#X obj 110 28 tgl 25 0 empty empty empty 17 7 0 10 #e4e4e4 #4d4d4d #373737 0 1;
#X floatatom 166 43 5 0 0 0 - - - 12;
#N canvas 0 0 450 250 (subpatch) 0;
#X array pentatonica 5 float 2;
#X coords 0 11 5 0 200 140 1;
#X restore 858 262 graph;
#X obj 102 347 tabread pentatonica;
#X obj 858 118 send pentatonica;
#X msg 858 88 0 1 2 3 4 5;
#X msg 856 150 \; pentatonica 0 1 3 5 7 10;
#X msg 857 195 \; pentatonica 0 2 4 5 7 9;
#X floatatom 431 312 5 0 0 0 - - - 12;
#X floatatom 484 308 5 0 0 0 - - - 12;
#X obj 369 352 maxlib/beta;
#X obj 102 239 kg-linear;
#X obj 169 171 t b b;
#X obj 227 442 pack;
#X obj 380 393 * 127;
#X obj 393 462 int;
#X obj 105 101 metro 200;
#X obj 106 286 * 5;
#X floatatom 457 228 5 0 0 0 - - - 12;
#X obj 462 111 line;
#X msg 492 60 1 \, 0.1 60000;
#X connect 1 0 3 0;
#X connect 1 1 3 1;
#X connect 2 0 17 0;
#X connect 4 0 20 0;
#X connect 5 0 20 1;
#X connect 7 0 2 0;
#X connect 9 0 8 0;
#X connect 12 0 14 1;
#X connect 13 0 14 2;
#X connect 14 0 18 0;
#X connect 15 0 21 0;
#X connect 16 0 15 0;
#X connect 16 1 14 0;
#X connect 17 0 1 0;
#X connect 18 0 19 0;
#X connect 19 0 17 1;
#X connect 20 0 16 0;
#X connect 21 0 7 0;
#X connect 22 0 12 0;
#X connect 22 0 13 0;
#X connect 23 0 22 0;
#X connect 24 0 23 0;
