#N canvas 827 239 527 327 12;
#X obj 4 4 cnv 15 694 37 empty empty Filtros 5 20 0 24 #696969 #ffffff 0;
#X obj 4 46 cnv 15 512 24 empty empty Creación\ y\ procesamiento\ de\ sonido\ con\ Pd 5 11 0 16 #1e1e1e #ffffff 0;
#X obj 523 46 cnv 15 175 24 empty empty anxefaraldo@gmail.com 5 11 0 16 #c8c8c8 #000000 0;
#X obj 32 117 lop~;
#X obj 220 117 hip~;
#X obj 263 155 bob~;
#X obj 397 117 bp~;
#X obj 33 155 vcf~;
#X text 99 116 Pasa bajos;
#X text 287 116 Pasa altos;
#X text 464 116 Pasa banda;
#X text 100 154 "voltage controlled filter" (band or lowpass), f 22;
#X text 330 154 Emulación filtro Moog;
#X text 21 86 FILTROS NATIVOS;
#X obj 479 155 biquad~;
#X text 553 158 2nd order filter;
#X text 25 205 ELSE;
#X text 409 281 Ecualizador Paramétrico;
#X obj 25 403 bicoeff 200 124 highshelf;
#X obj 328 344 else/bandpass~;
#X obj 330 370 else/bandstop~;
#X obj 328 426 else/lowpass~;
#X obj 328 452 else/highpass~;
#X obj 328 482 else/lowshelf~;
#X obj 328 515 else/highshelf~;
#X obj 330 394 else/resonant~;
#X obj 328 312 else/allpass.2nd~;
#X obj 328 282 else/eq~;
#X text 99 567 [else/bicoeff] calcula los coeficientes de biquad según el tipo de filtro deseado., f 26;
#X msg 46 279 allpass;
#X msg 46 322 bandpass;
#X msg 180 358 highpass;
#X msg 97 358 lowpass;
#X msg 139 322 resonant;
#X msg 108 239 highshelf;
#X msg 32 240 lowshelf;
#X msg 191 240 eq;
#X msg 218 322 bandstop;
#X listbox 25 543 39 0 0 0 - - - 10;
#X obj 328 221 cpole~;
#X obj 25 580 biquad~;
#X connect 18 0 38 0;
#X connect 29 0 18 0 32.................z....v9+++OM....r++++iF....;
#X connect 30 0 18 0 32.................I....v9+++eB....r++++2C....;
#X connect 31 0 18 0 32.................M....X1+++eC....l8+++mA....;
#X connect 32 0 18 0 32.................M....j6+++eC....49+++mA....;
#X connect 33 0 18 0 32.................H....73+++OB....O9+++2C....;
#X connect 34 0 18 0 32.................L....35+++OC....t9+++CI....;
#X connect 35 0 18 0 32.................HA...n++++OR....5+++++H....;
#X connect 36 0 18 0 48.................J....35+++uB....t9+++u....vV++++K....r0++++i....;
#X connect 37 0 18 0 32.................H.....z+++OB.....8+++2C....;
#X connect 38 0 40 0;
