#N canvas 169 25 221 230 10;
#X obj 1013 38 cnv 15 132 93 empty empty empty 20 12 0 14 #a200a4 #e1e1e1 0;
#X obj 8 5 tgl 100 0 \$0-rec-msg --- empty 17 7 0 24 #fcfcfc #000000 #000000 0 1;
#X obj 8 5 cnv 15 100 100 empty recStatus REC 19 52 0 36 #7c7c7c #fc2828 0;
#X obj 36 370 metro 500;
#X obj 41 420 tgl 15 0 empty empty empty 17 7 0 10 #fcfcfc #000000 #000000 0 1;
#X obj 37 447 sel 0 1;
#X msg 87 487 symbol STOP;
#X msg 17 486 symbol;
#X obj 120 368 sel 0;
#X msg 120 400 \; recStatus label REC \, label_pos 19 52 \, color 41 41 13, f 21;
#X msg 17 527 \; recStatus label \$1 \, label_pos 9 52 \, color 13 13 41, f 35;
#X obj 36 327 r \$0-rec-msg;
#X obj 513 27 r \$0-rec-msg;
#X obj 119 76 bng 25 250 50 0 \$0-save-new \$0- ruta\ y\ nombre\ de\ archivo 30 12 0 16 #191919 #e1e1e1 #e1e1e1;
#X obj 706 25 r \$0-save-new;
#X obj 662 152 symbol;
#X obj 562 667 writesf~ 2, f 15;
#X obj 221 4 vradio 20 1 0 3 \$0-bitrate \$0-set-bitrate empty 0 -8 0 10 #191919 #e1e1e1 #e1e1e1 0;
#X text 242 5 16 bit;
#X text 241 27 24 bit;
#X text 240 49 32 bit float;
#X obj 700 367 samplerate~;
#X obj 739 396 r \$0-bitrate;
#X obj 458 667 writesf~ 1, f 15;
#X obj 129 13 vradio 20 1 0 2 \$0-channels \$0-set-channels empty 0 -8 0 10 #191919 #e1e1e1 #e1e1e1 0;
#X text 152 37 stereo;
#X text 153 15 mono;
#X obj 542 268 r \$0-channels;
#X obj 314 250 hip~ 5;
#X obj 369 250 hip~ 5;
#X obj 314 218 inlet~;
#X obj 369 218 inlet~;
#X msg 507 327 \$2 \$1;
#X obj 507 359 route 0 1;
#X obj 662 450 pack s 44100 2;
#X msg 662 479 open -bytes \$3 -wave -rate \$2 \$1;
#X obj 513 59 t f f, f 6;
#X obj 662 98 sel 1;
#X obj 739 422 + 2;
#X obj 513 100 sel 0 1, f 20;
#X msg 507 224 stop;
#X msg 577 224 start;
#X obj 507 297 pack s 1;
#X obj 24 173 loadbang;
#X obj 24 208 \$0;
#X obj 562 131 t b b, f 7;
#X obj 314 287 snake~ in 2, f 13;
#X obj 314 339 *~;
#X obj 314 372 snake~ out 2;
#X obj 430 260 line~;
#X obj 425 297 *~;
#X obj 513 131 t b b;
#X obj 528 192 del 120;
#X msg 430 224 \$1 100;
#X msg 460 192 1;
#X msg 430 192 0;
#X obj 680 276 makefilename %s.wav;
#X obj 7 114 cnv 15 333 24 empty \$0-filepath /root/folder/soundfile.wav 5 12 0 14 #696969 #e1e1e1 0;
#N canvas 733 172 450 300 add-extension 0;
#X obj 57 164 list split;
#X obj 90 108 list length;
#X obj 90 136 - 4;
#X obj 31 80 t l l l, f 14;
#X obj 31 49 list fromsymbol;
#X obj 73 192 unpack f f f f, f 30;
#X obj 73 220 - 46;
#X obj 125 220 - 119;
#X obj 178 220 - 97;
#X obj 231 220 - 118;
#X obj 178 248 +, f 12;
#X obj 126 276 +, f 12;
#X obj 73 303 +, f 12;
#X obj 73 331 == 0;
#X obj 31 363 list tosymbol;
#X obj 31 393 pack s 0;
#X msg 31 428 \$2 \$1;
#X obj 30 21 inlet;
#X obj 30 464 outlet;
#X connect 0 1 5 0;
#X connect 1 0 2 0;
#X connect 2 0 0 1;
#X connect 3 0 14 0;
#X connect 3 1 0 0;
#X connect 3 2 1 0;
#X connect 4 0 3 0;
#X connect 5 0 6 0;
#X connect 5 1 7 0;
#X connect 5 2 8 0;
#X connect 5 3 9 0;
#X connect 6 0 12 0;
#X connect 7 0 11 0;
#X connect 8 0 10 0;
#X connect 9 0 10 1;
#X connect 10 0 11 1;
#X connect 11 0 12 1;
#X connect 12 0 13 0;
#X connect 13 0 15 1;
#X connect 14 0 15 0;
#X connect 15 0 16 0;
#X connect 16 0 18 0;
#X connect 17 0 4 0;
#X restore 662 183 pd add-extension;
#X msg 24 239 \; \$1-set-channels 1 \; \$1-set-bitrate 2 \; \$1-filepath label /root/folder/soundfile.wav;
#X obj 680 250 symbol;
#X obj 825 397 s \$0-filepath;
#X msg 825 368 label \$1;
#X obj 825 337 symbol;
#X obj 662 218 route 1 0;
#X obj 706 54 savepanel;
#X obj 1032 50 list fromsymbol;
#X obj 1053 102 list tosymbol;
#X obj 1032 76 list split 6;
#X obj 662 310 t a b a, f 9;
#X text 21 594 Anxe Faraldo \, 2024;
#X obj 717 507 r \$0-channels;
#X obj 662 564 route 0 1;
#X obj 662 538 list prepend;
#X obj 706 98 t b s;
#X connect 3 0 4 0;
#X connect 4 0 5 0;
#X connect 5 0 7 0 32.................J....z9+++uB....s++++OA....;
#X connect 5 1 6 0 32.................J....PB...fB....j....PA....;
#X connect 6 0 10 0 32.................J....r6+++uB....69+++SA....;
#X connect 7 0 10 0;
#X connect 8 0 9 0;
#X connect 11 0 3 0;
#X connect 11 0 8 0 32.................I....PE...PB....TA...3A....;
#X connect 12 0 36 0;
#X connect 14 0 65 0;
#X connect 15 0 58 0;
#X connect 21 0 34 1;
#X connect 22 0 38 0;
#X connect 27 0 42 1 32.................E.........PA.........j.....;
#X connect 28 0 46 0;
#X connect 29 0 46 1;
#X connect 30 0 28 0;
#X connect 31 0 29 0;
#X connect 32 0 33 0 32.................F.........fA.........v.....;
#X connect 33 0 23 0;
#X connect 33 1 16 0;
#X connect 34 0 35 0;
#X connect 35 0 73 0;
#X connect 36 0 39 0;
#X connect 36 1 37 0 32.................J....HO...fB....xC...TD....;
#X connect 37 0 15 0;
#X connect 38 0 34 2;
#X connect 39 0 51 0;
#X connect 39 1 45 0;
#X connect 40 0 42 0 32.................a.........vF.........TC....;
#X connect 41 0 42 0 32.................K....r6++++B....69+++WC....;
#X connect 42 0 32 0 32.................E.........PA.........n.....;
#X connect 43 0 44 0;
#X connect 44 0 59 0;
#X connect 45 0 41 0 32.................e....7....vG....O....jD....;
#X connect 45 1 54 0 32.................W....nz++++E....J8+++mB....;
#X connect 46 0 47 0;
#X connect 47 0 48 0;
#X connect 48 0 16 0;
#X connect 48 0 23 0;
#X connect 48 1 16 1;
#X connect 49 0 50 0;
#X connect 49 0 50 1;
#X connect 50 0 47 1 32.................I....j3+++eB....I9+++SA....;
#X connect 51 0 55 0 32.................M....H2+++eC....x8+++mB....;
#X connect 51 1 52 0;
#X connect 52 0 40 0;
#X connect 53 0 49 0;
#X connect 54 0 53 0;
#X connect 55 0 53 0;
#X connect 56 0 69 0;
#X connect 58 0 64 0;
#X connect 60 0 56 0;
#X connect 62 0 61 0;
#X connect 63 0 62 0;
#X connect 64 0 69 0;
#X connect 64 1 60 0;
#X connect 65 0 74 0;
#X connect 66 0 68 0;
#X connect 68 1 67 0;
#X connect 69 0 34 0;
#X connect 69 1 21 0;
#X connect 69 2 63 0 32.................C....XH...v.....FB...f.....;
#X connect 71 0 73 1;
#X connect 72 0 23 0;
#X connect 72 1 16 0;
#X connect 73 0 72 0;
#X connect 74 0 15 0;
#X connect 74 1 15 1;
#X coords 0 0 1 1 348 147 2 1 0;
