#N canvas 364 215 628 433 12;
#X obj 145 95 loadbang;
#X msg 145 164 5;
#X floatatom 145 235 5 0 0 0 - - - 0;
#X obj 24 392 f 5;
#X msg 85 164 5;
#X floatatom 85 236 5 0 0 0 - - - 0;
#X floatatom 24 457 5 0 0 0 - - - 0;
#X obj 24 337 loadbang;
#X obj 104 392 f 5;
#X floatatom 104 457 5 0 0 0 - - - 0;
#X floatatom 25 236 5 0 0 0 - - - 0;
#X msg 104 335 bang;
#X obj 0 0 cnv 15 712 37 empty empty Objetos\,\ mensajes\ y\ atoms\ (números) 5 20 0 24 #696969 #ffffff 0;
#X obj 0 44 cnv 15 532 24 empty empty Creación\ y\ procesamiento\ de\ sonido\ con\ Pd 5 11 0 16 #1e1e1e #ffffff 0;
#X obj 536 44 cnv 15 175 24 empty empty anxefaraldo@gmail.com 5 11 0 16 #c8c8c8 #000000 0;
#X text 183 142 Los MENSAJES presevan los datos que tienen escritos. Por esta razón \, encontrarás siempre el mismo mensaje con el mismo valor cada vez que abras el patch. Puedes interactuar con los mensajes como si fueran botones \, que emiten los valores que contienen cuando son pulsados., f 61;
#X text 190 214 Los ATOMS (numberboxes) NO preservan datos. Simplemente reflejan el último input que han recibido de algún objeto conectado \, o de nuestras manipulaciones con el ratón o el teclado. Son muy útiles tanto como herramientas de interacción \, como de visualización., f 56;
#X text 218 84 [loadbang] es un OBJETO que envía un "bang" en el momento en el que el patch se abre \, por lo que resulta muy útil para inicializar algunos valores., f 52;
#X floatatom 985 235 5 0 0 0 - - - 0;
#X floatatom 925 236 5 0 0 0 - - - 0;
#X text 232 336 El OBJETO [float] o [f] almacena variables numéricas. En Pd \, todos los números son de tipo floating point. Si inicializas este objeto con un argumento de creación \, este será preservado al abrir de nuevo el patch. Puedes utilizar el mensaje o objeto "bang" para emitir el valor guardado en memoria., f 45;
#X obj 190 335 bng 25 250 50 0 empty empty empty 17 7 0 10 #191919 #ffffff #ffffff;
#X text 162 334 =;
#X text 232 438 A diferencia de los mensajes y los atoms \, que siempre funcionan de la misma manera \, los OBJETOS son comparables a "funciones" o "clases" o "verbos" \, es decir \, cada objeto realiza la acción específica para la que está programado., f 45;
#X connect 0 0 1 0;
#X connect 1 0 2 0;
#X connect 3 0 6 0;
#X connect 4 0 5 0;
#X connect 7 0 3 0;
#X connect 8 0 9 0;
#X connect 11 0 8 0;
#X connect 21 0 8 0;
