#N canvas 827 239 527 327 12;
#X obj 0 0 cnv 15 712 37 empty empty Flujos\ de\ audio\ y\ control 5 20 0 24 #696969 #ffffff 0;
#X obj 0 44 cnv 15 532 24 empty empty Creación\ y\ procesamiento\ de\ sonido\ con\ Pd 5 11 0 16 #1e1e1e #ffffff 0;
#X obj 536 46 cnv 15 175 24 empty empty anxefaraldo@gmail.com 5 11 0 16 #c8c8c8 #000000 0;
#X obj 19 354 osc~;
#X floatatom 19 266 5 0 0 1 frecuencia - - 12;
#X obj 19 467 out~;
#X floatatom 45 297 5 0 0 1 fase - - 12;
#X obj 352 295 metro 1000;
#X obj 352 239 tgl 25 0 empty empty empty 17 7 0 10 #191919 #ffffff #ffffff 0 1;
#X obj 352 390 bng 25 250 50 0 empty empty empty 17 7 0 10 #191919 #ffffff #ffffff;
#X obj 352 470 print metro;
#X text 12 159 Los flujos y objetos de audio se evalúan de manera constante cuando el DSP está activado \, mientras que los datos de control sólo se evalúan bajo demanda., f 84;
#X text 12 86 Pd diferencia entre flujos de audio y flujos de control. Estos son fáciles de identificar por el grosor de las líneas de conexión y \, en plug data \, por el color. En plugdata \, los inlets/outlets narajas representan entradas/salidas de audio \, mientras que los azules indican datos de control. En Pd y en Max \, los objetos de audio tienden a acabar con el signo "~" \, por lo que también son fáciles de identificar., f 95;
#X text 388 238 el objeto de UI toggle resulta muy útil para activar y desactivar procesos, f 32;
#X text 436 294 [metro] emite un "bang" (algo así como un rastro de información sin información) con la periodicidad definida por su argumento de creación., f 32;
#X text 388 384 el objeto de UI "bang" es tan útil para disparar o activar procesos \, como para visualizar el flujo de señales de control., f 32;
#X text 436 469 [print] envía a la consola los datos de control recibidos. Puedes observar \, que este patch imprime un "bang" cada 1000 milisegundos., f 32;
#X text 131 445 Las conexiones de audio envían el audio generado por el oscilador sinusoidal a los dos canales de nuestra tarjeta de sonido., f 22;
#X text 131 311 [osc~] interpreta el valor de su inlet izquierdo como frecuencia \, y el valor de su inlet derecho como la fase. Recuerda que los objetos son como "verbos" o "funciones" que realizan operaciones específicas., f 23;
#X text 131 202 No hay dos objetos que realicen exactamente la misma función \, y por eso el significado de los inlets y outlets de cada objeto varía según la función del objeto., f 25;
#X connect 3 0 5 0;
#X connect 3 0 5 1;
#X connect 4 0 3 0;
#X connect 6 0 3 1;
#X connect 7 0 9 0;
#X connect 8 0 7 0;
#X connect 9 0 10 0;
