#N canvas 364 215 628 433 12;
#X obj 334 167 f 5;
#X floatatom 334 241 5 0 0 0 - - - 0;
#X msg 334 84 bang;
#X obj 0 0 cnv 15 712 37 empty empty Inlets\ fríos\ y\ calientes 5 20 0 24 #696969 #ffffff 0;
#X obj 0 44 cnv 15 532 24 empty empty Creación\ y\ procesamiento\ de\ sonido\ con\ Pd 5 11 0 16 #1e1e1e #ffffff 0;
#X obj 521 44 cnv 15 175 24 empty empty anxefaraldo@gmail.com 5 11 0 16 #c8c8c8 #000000 0;
#X floatatom 985 235 5 0 0 0 - - - 0;
#X floatatom 925 236 5 0 0 0 - - - 0;
#X floatatom 441 86 5 0 0 0 - - - 0;
#X floatatom 390 86 5 0 0 0 - - - 0;
#X text 15 293 Esta diferencia de funcionamiento es muy característico de todos los objetos de Pd/Max \, que diferencia entre inlets "fríos" \, que no emiten la función del objeto \, e inlets "calientes" \, que sí que la emiten. Todos los inlets se consideran frios \, menos el de más a la izquierda \, que es siempre caliente. Podemos pensar que la función de este inlet es doble: primero evalua la funciñon del objeto \, e inmediatamente emite un "bang" que produce un resultado en el outlet., f 93;
#X text 11 132 Si inicializas este objeto con un argumento de creación \, este será preservado al abrir de nuevo el patch. Si introduces un valor numérico por el inlet derecho \, este reemplazará el argumento de creación (5) \, pero no producirá ningún resultado visible. Si por el contrario \, introduces un valor numérico por el inlet izquierdo \, éste reemplazará el argumento de creación (5) y emitirá un resultado por el outlet del objeto (enviará el número almacenado en memoria)., f 43;
#X text 13 75 El OBJETO [float] o [f] almacena variables numéricas. En Pd \, todos los números son de tipo floating point., f 45;
#X obj 28 516 print paquete;
#X floatatom 28 401 5 0 0 2 caliente - - 12;
#X obj 28 432 pack 0 0 0 0, f 34;
#X floatatom 99 399 5 0 0 2 frio - - 12;
#X floatatom 171 399 5 0 0 2 frio - - 12;
#X floatatom 243 401 5 0 0 2 frio - - 12;
#X listbox 50 483 9 0 0 0 empty - - 0;
#X text 293 384 La misma lógica es efectiva en prácticamente todos los objetos. [pack] crea paquetes de elementos simples y las devuelve como un solo "paquete". En el ejemplo \, los 3 inlets fríos reemplazan en orden las variables declaradas en el objeto \; sin embargo \, sólo el inlet caliente realiza esta función y produce un resultado visible., f 54;
#X text 119 495 <<< list-box (cmd-4) es un atom específico para listas.;
#X connect 0 0 1 0;
#X connect 2 0 0 0;
#X connect 8 0 0 1;
#X connect 9 0 0 0;
#X connect 14 0 15 0;
#X connect 15 0 13 0;
#X connect 15 0 19 0;
#X connect 16 0 15 1;
#X connect 17 0 15 2;
#X connect 18 0 15 3;
