#N canvas 827 239 527 327 12;
#X obj 0 0 cnv 15 712 37 empty empty Operaciones\ de\ dos\ factores 5 20 0 24 #696969 #ffffff 0;
#X obj 0 44 cnv 15 532 24 empty empty Creación\ y\ procesamiento\ de\ sonido\ con\ Pd 5 11 0 16 #1e1e1e #ffffff 0;
#X obj 523 46 cnv 15 175 24 empty empty anxefaraldo@gmail.com 5 11 0 16 #c8c8c8 #000000 0;
#X floatatom 19 333 5 0 0 0 empty - - 16;
#X floatatom 65 334 5 0 0 0 empty - - 16;
#X obj 19 400 + 1, f 9;
#X floatatom 19 437 8 0 0 0 empty - - 16;
#X floatatom 118 334 5 0 0 0 empty - - 16;
#X floatatom 161 336 5 0 0 0 empty - - 16;
#X floatatom 118 437 8 0 0 0 empty - - 16;
#X obj 118 401 - 1, f 9;
#X floatatom 211 337 5 0 0 0 empty - - 16;
#X floatatom 255 338 5 0 0 0 empty - - 16;
#X floatatom 211 436 8 0 0 0 empty - - 16;
#X floatatom 315 338 5 0 0 0 empty - - 16;
#X floatatom 359 338 5 0 0 0 empty - - 16;
#X floatatom 315 437 8 0 0 0 empty - - 16;
#X obj 211 404 * 2, f 10;
#X obj 315 405 / 4, f 9;
#X floatatom 610 335 5 0 0 0 empty - - 16;
#X floatatom 653 336 5 0 0 0 empty - - 16;
#X floatatom 610 437 8 0 0 0 empty - - 16;
#X obj 610 402 pow 4, f 9;
#X floatatom 419 338 5 0 0 0 empty - - 16;
#X floatatom 464 338 5 0 0 0 empty - - 16;
#X floatatom 419 437 8 0 0 0 empty - - 16;
#X obj 419 405 div 4, f 10;
#X floatatom 512 340 5 0 0 0 empty - - 16;
#X floatatom 559 340 5 0 0 0 empty - - 16;
#X floatatom 512 437 8 0 0 0 empty - - 16;
#X obj 512 401 mod 4, f 10;
#X text 16 462 SUMA, f 6;
#X text 118 468 RESTA, f 7;
#X text 612 461 POTENCIA, f 10;
#X text 313 470 DIVISIÓN, f 9;
#X text 204 462 PRODUCTO, f 11;
#X text 73 82 Según el principio de caliente-frío \, los siguientes operadores de dos factores solo producen resultados cuando el inlet izquierdo (1) actualiza su valor o (2) recibe un bang. Los inlets de la derecha \, modifican la variable del segundo elemento de la operación \, pero no evalúan el resultado., f 82;
#X text 127 176 El argumento de creación en lo siguientes objetos es siempre el segundo elemento de la operación \, tanto si éstas tienen la propiedad conmutativa (sumas \, productos) \, como si no \, en la que el orden de los factores tiene un efecto en el resultado., f 68;
#X text 18 481 f1 + f2, f 6;
#X text 123 481 f1 - f2, f 6;
#X text 211 481 f1 * f2, f 6;
#X text 320 482 f1 / f2, f 6;
#X text 617 481 f1 ^ f2, f 6;
#X text 511 462 RESTO, f 7;
#X text 419 462 COCIENTE, f 10;
#X floatatom 242 259 5 0 0 0 f1 - - 12;
#X floatatom 467 257 5 0 0 0 f2 - - 12;
#X obj 40 367 bng 25 250 50 0 empty empty empty 17 7 0 10 #191919 #e1e1e1 #e1e1e1;
#X obj 136 368 bng 25 250 50 0 empty empty empty 17 7 0 10 #191919 #e1e1e1 #e1e1e1;
#X obj 235 372 bng 25 250 50 0 empty empty empty 17 7 0 10 #191919 #e1e1e1 #e1e1e1;
#X obj 335 371 bng 25 250 50 0 empty empty empty 17 7 0 10 #191919 #e1e1e1 #e1e1e1;
#X obj 440 368 bng 25 250 50 0 empty empty empty 17 7 0 10 #191919 #e1e1e1 #e1e1e1;
#X obj 534 369 bng 25 250 50 0 empty empty empty 17 7 0 10 #191919 #e1e1e1 #e1e1e1;
#X obj 627 368 bng 25 250 50 0 empty empty empty 17 7 0 10 #191919 #e1e1e1 #e1e1e1;
#X connect 3 0 5 0;
#X connect 4 0 5 1;
#X connect 5 0 6 0;
#X connect 7 0 10 0;
#X connect 8 0 10 1;
#X connect 10 0 9 0;
#X connect 11 0 17 0;
#X connect 12 0 17 1;
#X connect 14 0 18 0;
#X connect 15 0 18 1;
#X connect 17 0 13 0;
#X connect 18 0 16 0;
#X connect 19 0 22 0;
#X connect 20 0 22 1;
#X connect 22 0 21 0;
#X connect 23 0 26 0;
#X connect 24 0 26 1;
#X connect 26 0 25 0;
#X connect 27 0 30 0;
#X connect 28 0 30 1;
#X connect 30 0 29 0;
#X connect 45 0 11 0 32.................d....H9+++uG....h++++yC....;
#X connect 45 0 7 0 32.................c....T3+++eG....E9+++mC....;
#X connect 45 0 19 0 32.................c.....W...PG....vE...nC....;
#X connect 45 0 3 0 32.................c....Hx+++eG....h7+++iC....;
#X connect 45 0 14 0 32.................d....jD...fG....IA...zC....;
#X connect 45 0 23 0 32.................d....DK...fG....wB...zC....;
#X connect 45 0 27 0 32.................c....3P...PG....ND...7C....;
#X connect 46 0 24 0 32.................f....3++++OH....9+++++C....;
#X connect 46 0 28 0 32.................e....vE...vG....bA...DD....;
#X connect 46 0 20 0 32.................e....nK...vG....5B...zC....;
#X connect 46 0 4 0 32.................e....7l++++G....u4+++uC....;
#X connect 46 0 8 0 32.................e....7r++++G....O6+++2C....;
#X connect 46 0 15 0 32.................e....T4++++G....U9++++C....;
#X connect 46 0 12 0 32.................f....zx+++OH....s7++++C....;
#X connect 47 0 5 0;
#X connect 48 0 10 0;
#X connect 49 0 17 0;
#X connect 50 0 18 0;
#X connect 51 0 26 0;
#X connect 52 0 30 0;
#X connect 53 0 22 0;
