#N canvas 364 215 628 433 12;
#X obj 0 0 cnv 15 712 37 empty empty Conexiones\ y\ orden\ de\ ejecución 5 20 0 24 #696969 #ffffff 0;
#X obj 0 44 cnv 15 532 24 empty empty Creación\ y\ procesamiento\ de\ sonido\ con\ Pd 5 11 0 16 #1e1e1e #ffffff 0;
#X obj 521 44 cnv 15 175 24 empty empty anxefaraldo@gmail.com 5 11 0 16 #c8c8c8 #000000 0;
#X obj 23 304 *, f 9;
#X floatatom 47 258 5 0 0 0 empty - - 12;
#X floatatom 23 337 5 0 0 0 empty - - 12;
#X obj 174 306 *, f 9;
#X floatatom 174 339 5 0 0 0 empty - - 12;
#X floatatom 192 257 5 0 0 0 empty - - 12;
#X obj 449 305 *, f 9;
#X floatatom 449 338 5 0 0 0 empty - - 12;
#X floatatom 449 254 5 0 0 0 empty - - 12;
#X floatatom 316 215 5 0 0 0 empty - - 12;
#X obj 449 279 t f f, f 9;
#X text 524 289 ==;
#X obj 556 290 trigger float float, f 16;
#X text 23 71 Las tres operaciones siguientes deberían producir resultados idénticos: El cuadrado de un número \, obtenido al conectar el mismo número a los dos inlets de una multiplicación., f 86;
#X obj 25 180 cnv 15 526 27 empty empty El\ orden\ de\ conexión\ de\ los\ elementos\ determina\ su\ orden\ de\ evaluación 5 12 0 16 #0064c8 #e1e1e1 0;
#X text 20 366 El resultado es correcto \, porque en el momento de programación se conectó primero el inlet de la derecha \, y luego el de la izquierda., f 21;
#X text 172 367 El resultado es incorrecto \, porque en el momento de programación se conectó primero el inlet de la izquierda (que evalua la operación y produce un resultado) \, y luego el de la derecha (que sustituye el segundo operador sin evaluar la multiplicación)., f 37;
#X text 14 487 A simple vista \, ambas cadenas de conexiones son idénticas.;
#X text 441 368 Para evitar posibles errores de programación y debugging \, el objeto [trigger] o [t] se encarga de serializar un elemento por todos sus outlets SIEMPRE DE DERECHA A IZQUIERDA \, garantizando el funcionamiento deseado., f 34;
#X text 437 479 En este ejemplo \, trigger envía el valor de su inlet como float "f" dos veces \, primero por la derecha \, luego por la izquierda., f 38;
#X text 23 109 Basados en el principio operativo de frio-caliente \, los elementos deberían evaluarse de derecha a izquierda (primero los fríos \, por último el caliente) para que sólo el último elemento produzca un resultado con los factores actualizados. Sin embargo \, hay otro factor determinante en la ejecución del programa \, que es imposible de detectar a simple vista: EL ORDEN DE CONEXIÓN DE LOS ELEMENTOS., f 91;
#X connect 3 0 5 0;
#X connect 4 0 3 1;
#X connect 4 0 3 0;
#X connect 6 0 7 0;
#X connect 8 0 6 0;
#X connect 8 0 6 1;
#X connect 9 0 10 0;
#X connect 11 0 13 0;
#X connect 12 0 11 0 32.................O....LQ...vC....SD...r.....;
#X connect 12 0 4 0 32.................P....ru+++OD....66+++CB....;
#X connect 12 0 8 0 32.................P....L4+++OD....S9++++A....;
#X connect 13 0 9 0;
#X connect 13 1 9 1;
