#N canvas 364 215 628 433 12;
#X obj 0 0 cnv 15 712 37 empty empty Triggers\ y\ tipos\ de\ datos 5 20 0 24 #696969 #ffffff 0;
#X obj 0 44 cnv 15 532 24 empty empty Creación\ y\ procesamiento\ de\ sonido\ con\ Pd 5 11 0 16 #1e1e1e #ffffff 0;
#X obj 521 44 cnv 15 175 24 empty empty anxefaraldo@gmail.com 5 11 0 16 #c8c8c8 #000000 0;
#X obj 14 246 *, f 9;
#X floatatom 14 279 5 0 0 0 empty - - 12;
#X floatatom 14 189 5 0 0 0 empty - - 12;
#X obj 14 217 t f f, f 9;
#X text 14 70 Anteriormente hemos utilizado trigger para serializar un mismo número y obtener su cuadrado de manera correcta e inequívoca., f 19;
#X text 563 373 ==;
#X floatatom 611 198 9 0 0 0 empty - - 16;
#X obj 611 170 /, f 9;
#X msg 612 141 1;
#X obj 612 114 t b f, f 9;
#X floatatom 612 85 8 0 0 0 empty - - 16;
#X text 159 72 De un modo similar \, [trigger] resulta de gran utilidad para un sinfín de aplicaciones. En el siguiente ejemplo \, queremos obtener valores inversamente proporcionales \, es decir \, el resultado de la división 1/x. Este tipo de operación es común para \, por ejemplo \, convertir frecuencias en períodos y vice versa., f 65;
#X text 101 223 Observa que esta operación se consigue mediante un [trigger] que CONVIERTE el número en su inlet en dos datos secuenciales: primero lo envía en forma de float por su outlet derecho \, y después lo trunca y expulsa como "bang" (mantiene el impulso de flujo sin el valor numérico) por el outlet izquierdo \, que a su vez \, activa un mensaje con el valor "1" codificado como constante., f 82;
#X text 9 316 La operación anterior es una muestra de una conversión de tipos de datos. Pd tiene 6 tipos de datos que \, a veces \, necesitan ser declarados explícitamente. Es el caso de los objetos [trigger] \, [pack] \, [unpack] y muchos otros. Cuando están interconectados \, Pd intenta convertir un tipo de datos en otro \, eliminando la data redundante en el proceso... Por ejemplo \, convertir un "list" a un "float" \, nos dejará solo con el primer elemento numérico de la lista. Convertir un "float" en "bang" \, mantendrá el impulso de la operación sin el contenido numérico asociado., f 36;
#X obj 532 401 print pointer;
#X obj 481 423 print anything;
#X obj 278 374 trigger bang float symbol list anything pointer;
#X obj 278 513 print bang;
#X obj 593 374 t b f s l a p;
#X obj 328 491 print float;
#X obj 379 469 print symbol;
#X obj 430 446 print list;
#X text 159 154 Para ello \, debido al paradigma de control "hot-cold" hemos de \, primero \, declarar el valor "pasivo" o frío de nuestra operación en el inlet derecho \, y solo después \, crear un mecanismo de ejecución que introduzca la constante "1" en el inlet de la izquierda \, produciendo el resultado., f 62;
#X listbox 502 321 16 0 0 2 list - - 16;
#X obj 278 321 bng 25 250 50 0 empty empty bang -5 -10 0 16 #191919 #e1e1e1 #e1e1e1;
#X floatatom 332 321 7 0 0 2 float - - 16;
#X symbolatom 402 321 10 0 0 2 symbol - - 16;
#X connect 3 0 4 0;
#X connect 5 0 6 0;
#X connect 6 0 3 0;
#X connect 6 1 3 1;
#X connect 10 0 9 0;
#X connect 11 0 10 0;
#X connect 12 0 11 0;
#X connect 12 1 10 1;
#X connect 13 0 12 0;
#X connect 19 0 20 0;
#X connect 19 1 22 0;
#X connect 19 2 23 0;
#X connect 19 3 24 0;
#X connect 19 4 18 0;
#X connect 19 5 17 0;
#X connect 26 0 19 0;
#X connect 27 0 19 0;
#X connect 28 0 19 0;
#X connect 29 0 19 0;
