#N canvas 827 239 527 327 12;
#X obj 0 0 cnv 15 712 37 empty empty Objetos\ generales\ de\ interacción\ gráfica 5 20 0 24 #696969 #ffffff 0;
#X obj 0 44 cnv 15 532 24 empty empty Creación\ y\ procesamiento\ de\ sonido\ con\ Pd 5 11 0 16 #1e1e1e #ffffff 0;
#X obj 523 46 cnv 15 175 24 empty empty anxefaraldo@gmail.com 5 11 0 16 #c8c8c8 #000000 0;
#X obj 26 514 print to_console;
#X floatatom 57 129 9 0 0 0 - - - 12;
#X symbolatom 77 157 9 0 0 0 - - - 12;
#X msg 26 99 1 2 3 4 ... HOLA MUNDO!;
#X text 152 126 Los "atoms" son cajitas interactivas que albergan NÚMEROS o SÍMBOLOS (cadenas de caracteres). Sirven tanto para introducir como para visualizar contenidos \, pero su data NO ES PERSISTENTE (No se queda almacenada)., f 70;
#X listbox 107 187 9 0 0 0 empty - - 0;
#X text 170 188 Desde la versión 0.52 \, Pd dispone de un nuevo atom de LISTAS;
#X text 137 498 Todos los elementos anteriores se conectan entre sí \, y principalmente a OBJETOS \, el elemento sintáctico esencial de los lenguajes de programación gráfica. En este ejemplo \, el objeto [print] visualiza en la consola todos los datos que le llegan a través de su inlet., f 82;
#X obj 197 216 bng 25 250 50 0 empty empty empty 17 7 0 10 #191919 #ffffff #ffffff;
#X msg 137 216 bang;
#X obj 58 271 tgl 25 0 empty empty empty 17 7 0 10 #191919 #ffffff #ffffff 0 1;
#X text 230 214 El "bang" es la unidad de información más elemental. Como tal \, no contiene datos \, sino que es solo flujo... Como tal \, se utiliza tanto para activar como para visualizar flujos de control., f 67;
#X text 51 416 Los objetos de UI tienen algunas propiedades que pueden ser ajustadas por el usuario \, tales como el rango \, la fuente o el tamaño..., f 89;
#X obj 61 355 hsl 128 17 0 127 0 0 empty empty empty -2 -8 0 10 #191919 #ffffff #ffffff 0 1;
#X obj 440 355 hradio 17 1 0 8 empty empty empty 0 -8 0 10 #191919 #ffffff #ffffff 0;
#X floatatom 77 383 5 0 0 0 empty - - 12;
#X floatatom 460 383 5 0 0 0 empty - - 12;
#X text 58 317 Los "sliders" representan valores numéricos continuos en un rango determinado., f 46;
#X text 440 317 Los "radios" representan valores enteros desde 0, f 24;
#X text 94 269 "Toggle" es un objeto UI que funciona como un interruptor. Como tal \, produce de manera intermitente los valores 0 y 1 (o otro valor diferente de 0 \, explicitado en las propiedades del objeto., f 85;
#X text 51 457 En plugdata \, clicando en el objeto \, se abre el panel de propiedades en la consola. En Pd-Vanilla \, se accede clicando con el botón derecho sobre el objeto., f 81;
#X text 12 74 Pd dispone de una serie de indicadores gráficos con los que podemos interactuar con los distintos tipos de datos., f 100;
#X text 194 99 Los MENSAJES son como "botones". Guardan el contenido escrito \, y son clicables., f 70;
#X connect 4 0 3 0 32.................I....L9+++eB....i++++6Y....;
#X connect 5 0 3 0 32.................J....77+++uB....O++++KX....;
#X connect 6 0 3 0 32.................dC........f2.........va....;
#X connect 8 0 3 0 32.................N....D6+++uC....w9+++OV....;
#X connect 11 0 3 0 32.................G....b0++++A....W8+++CT....;
#X connect 12 0 3 0 32.................L....L4+++OC....S9+++WT....;
#X connect 13 0 3 0 32.................I....X0+++eB....V8+++eO....;
#X connect 16 0 3 0 32.................X....f8+++OF....X++++yK....;
#X connect 16 0 18 0;
#X connect 17 0 19 0;
#X connect 17 0 3 0 32.................h....br+++uH....G6+++6H....;
