#N canvas 827 239 527 327 12;
#X obj 0 0 cnv 15 712 37 empty empty Externals\ de\ interacción\ gráfica 5 20 0 24 #696969 #ffffff 0;
#X obj 0 44 cnv 15 532 24 empty empty Creación\ y\ procesamiento\ de\ sonido\ con\ Pd 5 11 0 16 #1e1e1e #ffffff 0;
#X obj 523 46 cnv 15 175 24 empty empty anxefaraldo@gmail.com 5 11 0 16 #c8c8c8 #000000 0;
#X obj 12 80 keyboard 12 64 4 2 0 0 empty empty;
#X obj 20 396 vu 20 120 empty empty -1 -8 0 10 #191919 #ffffff 1 0;
#X obj 95 207 knob 37 0 1 0 0 empty empty #191919 #696969 #ffffff 1 0 0 0 1 270 0 0 0 empty empty 0 0 0 0 0 0 0 0;
#X obj 65 265 numbox~ 4 15 100 #191919 #ffffff 10 0 0 0;
#X obj 398 169 bicoeff 200 120 peaking;
#X text 119 150 [keyboard] presenta una interficie gráfica que genera pares de notas midi con velocidad constante, f 39;
#X obj 12 265 *~ 1;
#X obj 12 179 mtof;
#X obj 12 151 unpack, f 14;
#X obj 12 307 biquad~;
#X listbox 428 300 27 0 0 0 empty - - 12;
#X text 384 79 Además de los objetos GUI nativos \, varias librerías ofrecen objetos de interacción gráfica para facilitar la interacción. Plugdata declara por defecto la librería ELSE \, que ofrece algunos objetos gráficos útiles, f 45;
#X obj 399 342 spectrograph~;
#X obj 12 207 saw~ 440;
#X text 399 484 [spectrograph~] sirve para representar señales en el dominio espectral, f 41;
#X obj 12 362 vu~;
#X text 72 352 [vu~] y [vu] analizan y visualizan respectivamente la intensidad de la señal con valores intantáneos (peak) y promediados (RMS)., f 15;
#X text 138 206 [knob] cumple una función similar a los sliders., f 33;
#X text 138 252 [numbox~] es extremadamente útil para visualizar señales a rate de audio., f 35;
#X text 609 165 [bicoeff] genera coeficientes para [biquad~] que es un filtro customizable., f 12;
#X obj 192 362 scope~ 200 100 256 3 128 -1 1 0 0 0 0 225 225 225 25 25 25 105 105 105 0 empty;
#X text 191 470 [scope~] sirve para representar señales en el dominio temporal, f 32;
#X connect 3 0 11 0;
#X connect 5 0 9 1 32.................C....73++++.....O9+++i.....;
#X connect 7 0 13 0;
#X connect 7 0 12 0 32.................L....7m+++OC....+4+++6A....;
#X connect 9 0 12 0;
#X connect 9 0 6 0 48.................I....7A...PB....e....X9+++eM....l++++WC...P6++++;
#X connect 10 0 16 0;
#X connect 11 0 10 0;
#X connect 12 0 18 0;
#X connect 12 0 15 0 32.................E....LX...PA....CF...PB....;
#X connect 12 0 23 0 32.................P....PK....D....zB...PB....;
#X connect 16 0 9 0;
#X connect 18 0 4 0;
#X connect 18 1 4 1;
