#N canvas 827 239 527 327 12;
#X obj 120 172 f 0;
#X obj 170 182 + 1;
#X obj 120 141 metro 100;
#X floatatom 166 50 5 0 0 0 bpm - - 12;
#X obj 61 37 tgl 25 0 empty empty empty 17 7 0 10 #191919 #e1e1e1 #e1e1e1 0 1;
#X msg 166 77 60000 \$1;
#X obj 166 105 /;
#X floatatom 203 141 9 0 0 0 - - - 16;
#X obj 120 217 mod 8;
#X obj 120 248 hradio 20 1 0 8 empty empty empty 0 -8 0 10 #191919 #e1e1e1 #e1e1e1 0;
#X obj 120 277 tabread melodia;
#X obj 53 610 out~;
#N canvas 0 0 450 250 (subpatch) 0;
#X array melodia 8 float 2;
#X coords 0 12 8 0 200 140 1;
#X restore 311 44 graph;
#X obj 120 307 int;
#X obj 120 345 + 60;
#X obj 120 432 bl.saw~;
#X obj 120 374 t f b, f 14;
#X obj 196 404 random 100;
#X obj 196 433 * 0.01;
#X obj 196 461 * 0.5;
#X obj 196 488 + 0.3;
#X obj 120 525 *~;
#X floatatom 196 525 10 0 0 0 - - - 12;
#X floatatom 198 338 5 0 0 0 - - - 12;
#X obj 120 404 mtof;
#X obj 89 567 *~;
#X obj 60 521 line~;
#X msg 60 488 \$1 100;
#X obj 61 104 t f f;
#X connect 0 0 1 0;
#X connect 0 0 8 0;
#X connect 1 0 0 1;
#X connect 2 0 0 0;
#X connect 3 0 5 0;
#X connect 4 0 28 0;
#X connect 5 0 6 0;
#X connect 6 0 2 1;
#X connect 6 0 7 0;
#X connect 8 0 9 0;
#X connect 9 0 10 0;
#X connect 10 0 13 0;
#X connect 13 0 14 0;
#X connect 13 0 23 0;
#X connect 14 0 16 0;
#X connect 15 0 21 0;
#X connect 16 0 24 0;
#X connect 16 1 17 0;
#X connect 17 0 18 0;
#X connect 18 0 19 0;
#X connect 19 0 20 0;
#X connect 20 0 22 0;
#X connect 20 0 21 1;
#X connect 21 0 25 1;
#X connect 24 0 15 0;
#X connect 25 0 11 1;
#X connect 25 0 11 0;
#X connect 26 0 25 0;
#X connect 27 0 26 0;
#X connect 28 0 27 0;
#X connect 28 1 2 0;
