#N canvas 827 239 324 180 12;
#X obj 207 44 r midi-data;
#X obj 207 73 route \$1;
#X obj 357 260 r attack;
#X obj 324 395 else/adsr~;
#X obj 166 463 *~;
#X obj 166 527 throw~ FM-out;
#X obj 166 496 *~ 0.1;
#X obj 373 291 r decay;
#X obj 390 320 r sustain;
#X obj 407 346 r release;
#X obj 207 106 unpack, f 20;
#X obj 91 223 osc~;
#X obj 91 408 osc~;
#X obj 344 431 numbox~ 4 15 100 #191919 #e1e1e1 10 0 0 0;
#X obj 91 376 +~, f 20;
#X obj 207 136 mtof;
#X obj 91 342 *~, f 8;
#X obj 126 251 r modindex;
#X obj 126 310 line~;
#X msg 126 279 \$1 100;
#X obj 91 51 r cmratio;
#X obj 91 141 t b f;
#X obj 91 192 * 1.5;
#X obj 91 111 pow 2;
#X msg 91 81 2 \$1;
#X connect 0 0 1 0;
#X connect 1 0 10 0;
#X connect 2 0 3 2;
#X connect 3 0 4 1;
#X connect 3 0 13 0;
#X connect 4 0 6 0;
#X connect 6 0 5 0;
#X connect 7 0 3 3;
#X connect 8 0 3 4;
#X connect 9 0 3 5;
#X connect 10 0 15 0;
#X connect 10 1 3 0;
#X connect 11 0 16 0;
#X connect 12 0 4 0;
#X connect 14 0 12 0;
#X connect 15 0 22 0;
#X connect 15 0 14 1;
#X connect 16 0 14 0;
#X connect 17 0 19 0;
#X connect 18 0 16 1;
#X connect 19 0 18 0;
#X connect 20 0 24 0;
#X connect 21 0 22 0;
#X connect 21 1 22 1;
#X connect 22 0 11 0;
#X connect 23 0 21 0;
#X connect 24 0 23 0;
