#N canvas 827 239 324 180 12;
#X obj 0 0 cnv 15 324 180 empty empty FM\ SYNTH 170 111 0 30 #696969 #e1e1e1 0;
#X obj 24 28 hsl 128 17 1 1000 0 0 attack set-attack ATTACK -2 -8 0 12 #191919 #e1e1e1 #e1e1e1 0 1;
#X obj 24 69 hsl 128 17 1 1000 0 0 decay set-decay DECAY -2 -8 0 12 #191919 #e1e1e1 #e1e1e1 0 1;
#X obj 24 108 hsl 128 17 0 1 0 0 sustain set-sustain SUSTAIN -2 -8 0 12 #191919 #e1e1e1 #e1e1e1 0 1;
#X obj 24 149 hsl 128 17 1 999 0 0 release set-release RELEASE -2 -8 0 12 #191919 #e1e1e1 #e1e1e1 0 1;
#X obj 176 29 hsl 128 17 0.125 10 0 0 cmratio set-cmratio C:M\ RATIO -2 -8 0 12 #191919 #e1e1e1 #e1e1e1 0 1;
#X obj 176 149 hsl 128 17 0 112 0 0 volume set-volume VOLUME -2 -8 0 12 #191919 #e1e1e1 #e1e1e1 0 1;
#X obj 212 201 loadbang;
#X text 21 203 Rangos de cada parámetro:;
#X text 36 285 sustain 0 - 1;
#X obj 365 486 dac~;
#X obj 379 277 catch~ FM-out;
#X obj 409 311 r volume;
#X obj 409 340 dbtorms;
#X obj 379 437 *~;
#X obj 409 403 line~;
#X msg 409 373 \$1 100;
#X obj 373 29 notein;
#X obj 373 148 pack 0 0 0;
#X obj 373 179 s midi-data;
#X obj 379 243 clone -s 1 FM-voz 10;
#X obj 176 68 hsl 128 17 1 100 0 0 modindex set-modindex MODULATION\ INDEX -2 -8 0 12 #191919 #e1e1e1 #e1e1e1 0 1;
#X text 34 231 attack 1 - 1000 ms;
#X text 36 257 decay 1 - 1000 ms;
#X text 36 311 release 1 - 1000 ms;
#X text 36 340 cmratio 0.125 - 10;
#X text 32 367 modindex 1 - 100;
#X text 36 396 volume 0 - 112 dB;
#X msg 212 230 \; set-attack 100 \; set-decay 50 \; set-sustain 0.5 \; set-release 500 \; set-cmratio 1.5 \; set-modindex 5 \; set-volume 100;
#X obj 373 104 poly 10 1;
#X msg 379 212 vis 3 1;
#X connect 7 0 28 0;
#X connect 11 0 14 0;
#X connect 12 0 13 0;
#X connect 13 0 16 0;
#X connect 14 0 10 1;
#X connect 14 0 10 0;
#X connect 15 0 14 1;
#X connect 16 0 15 0;
#X connect 17 0 29 0;
#X connect 17 1 29 1;
#X connect 18 0 19 0;
#X connect 29 0 18 0;
#X connect 29 1 18 1;
#X connect 29 2 18 2;
#X connect 30 0 20 0;
