#N canvas 827 239 527 327 12;
#X obj 4 4 cnv 15 694 37 empty empty Efectos\ con\ delays:\ Flanger 5 20 0 24 #696969 #ffffff 0;
#X obj 4 46 cnv 15 512 24 empty empty Creación\ y\ procesamiento\ de\ sonido\ con\ Pd 5 11 0 16 #1e1e1e #ffffff 0;
#X obj 523 46 cnv 15 175 24 empty empty anxefaraldo@gmail.com 5 11 0 16 #c8c8c8 #000000 0;
#X obj 23 96 bng 25 250 50 0 empty empty empty 17 7 0 10 #191919 #e1e1e1 #e1e1e1;
#X obj 23 131 tabplay~ \$0-soundfile;
#X obj 355 213 soundfiler;
#X obj 355 245 table \$0-soundfile;
#X obj 355 125 openpanel;
#X msg 355 187 read -resize \$1 \$2-soundfile;
#X obj 355 90 bng 25 250 50 0 empty empty empty 17 7 0 10 #191919 #e1e1e1 #e1e1e1;
#X obj 355 153 pack s \$0;
#X obj 23 502 +~;
#X obj 23 543 output~;
#X floatatom 53 166 5 0 0 1 rate\ (freq.\ LFO) - - 12;
#X obj 53 192 osc~ 1;
#X obj 53 221 *~ 0.5;
#X obj 53 256 +~ 0.5;
#X obj 53 314 *~ 10;
#X obj 53 341 delread4~ \$0-delay;
#X obj 53 421 *~ 0.7;
#X obj 53 467 *~ 1;
#X msg 116 421 1;
#X msg 146 421 -1;
#X floatatom 81 286 5 0 0 1 depth - - 12;
#X floatatom 81 390 5 0 0 1 feedback - - 12;
#X obj 204 520 delwrite~ \$0-delay;
#X connect 3 0 4 0;
#X connect 4 0 11 0;
#X connect 7 0 10 0;
#X connect 8 0 5 0;
#X connect 9 0 7 0;
#X connect 10 0 8 0;
#X connect 11 0 12 0;
#X connect 11 0 12 1;
#X connect 13 0 14 0;
#X connect 14 0 15 0;
#X connect 15 0 16 0;
#X connect 16 0 17 0;
#X connect 17 0 18 0;
#X connect 18 0 19 0;
#X connect 19 0 20 0;
#X connect 20 0 11 1;
#X connect 21 0 20 1;
#X connect 22 0 20 1;
#X connect 23 0 17 1;
#X connect 24 0 19 1;
