#N canvas 296 268 894 556 12;
#X obj 1 2 cnv 15 705 37 empty empty Enrutado\ de\ señales\ de\ control\ y\ audio 5 20 0 24 #696969 #ffffff 0;
#X obj 1 44 cnv 15 520 24 empty empty Creación\ y\ procesamiento\ de\ sonido\ con\ Pd 5 11 0 16 #1e1e1e #ffffff 0;
#X obj 531 44 cnv 15 175 24 empty empty anxefaraldo@gmail.com 5 11 0 16 #c8c8c8 #000000 0;
#X obj 430 458 spigot 0;
#X obj 430 390 random 10;
#X floatatom 430 492 7 0 0 0 - - - 16;
#X obj 464 421 tgl 25 0 empty empty empty 17 7 0 10 #191919 #e1e1e1 #e1e1e1 0 1;
#X obj 430 357 loadbang;
#X obj 7 419 scope~ 200 100 256 3 128 -1 1 0 0 0 0 225 225 225 25 25 25 105 105 105 0 empty;
#X obj 85 339 noise~;
#X obj 7 339 osc~ 10;
#X obj 158 339 hradio 20 1 0 3 empty empty empty 0 -8 0 10 #191919 #e1e1e1 #e1e1e1 0;
#X obj 7 389 else/select~ 2 1;
#X obj 218 274 route 1 2, f 20;
#X text 219 415 de una manera simlar a route/select \, el objeto [select~] de la librería else nos permite seleccionar una señal de audio entre varias disponibles \, lo que resulta muy útil para tareas de enrutado de señal., f 28;
#X text 229 339 0 = señal vacía \, cero.;
#X text 229 363 1 = primera señal \, seno;
#X text 229 386 2 = segunda señal \, ruido;
#X text 518 315 [spigot] funciona como una puerta (de hecho \, su contrapartida en max es el objeto [gate]). Este objeto permite que los datos de su inlet izquierdo salgan invariados por el output \, siempre que el inlet derecho haya recibido un número distinto a cero. Cero \, por otra parte \, cierra la puerta impidiendo que los datos se muestren en el outlet., f 27;
#X obj 218 303 print R1;
#X obj 7 274 select 1 2, f 20;
#X obj 7 303 print S1;
#X obj 67 303 print S2;
#X obj 278 303 print R2;
#X msg 27 177 0;
#X msg 28 233 2;
#X floatatom 61 205 5 0 0 0 - - - 12;
#X obj 61 236 pack 0 0;
#X floatatom 113 205 5 0 0 0 - - - 12;
#X msg 7 151 2 este texto saldrá por R2 sin el dos y producirá un [bang] en S2, f 55;
#X msg 7 122 1 este texto producirá un [bang] en S1 y saldrá sin el 1 por R2, f 52;
#X obj 125 303 print S-flush;
#X obj 340 315 print R-flush;
#X text 158 176 [select] produce un bang en el outlet correspondiente \, si el valor de entrada coincide con el valor especificado en el argumento., f 78;
#X msg 7 73 0 este texto produce resultados en S-flush (0) y en R-flush (completo) porque no coincide con ningún argumento, f 96;
#X msg 7 96 este texto saldra solamente por R-flush ya que [select] espera recibir datos que comiencen por un número, f 97;
#X msg 28 207 1;
#X text 400 121 [select] y [route] contrastan los datos recibidos en su inlet izquierdo y generan respuestas por la coincidencia de estos datos con sus argumentos, f 44;
#X text 157 217 [route] contrasta el primer elemento de una lista con sus argumentos \, y si coincide \, devuelve el resto del contenido de la lista (sin el primer elemento) por el outlet correspondiente, f 78;
#X text 372 259 En ambos objetos \, si los datos de entrada no coinciden con ningún argumento \, saldrán no variados por el outlet de la derecha., f 40;
#X connect 3 0 5 0;
#X connect 4 0 3 0;
#X connect 6 0 3 1;
#X connect 7 0 4 0;
#X connect 9 0 12 1;
#X connect 10 0 12 0;
#X connect 11 0 12 0 32.................M....n1+++eC....p8+++KD....;
#X connect 12 0 8 0;
#X connect 13 0 19 0;
#X connect 13 1 23 0;
#X connect 13 2 32 0;
#X connect 20 0 21 0;
#X connect 20 1 22 0;
#X connect 20 2 31 0;
#X connect 24 0 20 0 32.................F....79+++uA....u++++6D....;
#X connect 24 0 13 0 32.................DA...DL....Q....AC...3D....;
#X connect 25 0 20 0;
#X connect 25 0 13 0 32.................K.....L...vB.....C...XA....;
#X connect 26 0 27 0;
#X connect 27 0 20 0 32.................l....r7+++uI....K++++CC....;
#X connect 27 0 13 0 32.................I....zI...PB....cB...LA....;
#X connect 28 0 27 1;
#X connect 29 0 20 0;
#X connect 29 0 13 0 32.................eA...LM...vW....SC...fF....;
#X connect 30 0 20 0;
#X connect 30 0 13 0 32.................6A...LM...vd....SC...TH....;
#X connect 34 0 20 0;
#X connect 34 0 13 0 32.................rB...LM....q....SC...XK....;
#X connect 35 0 20 0;
#X connect 35 0 13 0 32.................TB...LM....k....SC...7I....;
#X connect 36 0 20 0 32.................C....79++++.....u++++CC....;
