#N canvas 737 76 360 210 12;
#X obj 0 0 cnv 40 360 210 empty empty I\ am\ teaching\ in\ a\ room... 22 18 0 15 #000000 #e3c6ff 0;
#N canvas 114 155 1392 730 guts 0;
#X msg 491 273 start 0;
#X msg 579 273 stop;
#X obj 523 464 timer 1 samps;
#X floatatom 569 502 15 0 0 0 - - - 0;
#X obj 491 297 t a b;
#X obj 579 297 t a b;
#X obj 548 549 s \$0-loopsize-samps;
#X obj 358 549 tabwrite~ \$0-ref-r;
#X obj 220 546 tabwrite~ \$0-ref-l;
#X obj 491 10 r \$0-rec;
#X obj 491 204 route 0, f 11;
#X obj 593 132 f 0;
#X obj 623 132 + 1;
#X obj 610 84 r \$0-reset;
#X msg 610 108 0;
#X obj 491 35 t f f, f 15;
#X obj 593 60 sel 1;
#X obj 491 158 pack, f 15;
#X msg 491 181 \$2 \$1;
#X obj 491 229 sel 1 0;
#X obj 914 20 r \$0-loopsize-samps;
#X obj 844 98 metro 0 1 samps;
#X obj 914 69 t b f;
#X obj 812 21 r \$0-reset;
#X msg 812 47 0;
#X obj 109 95 tabplay~ \$0-ref-l;
#X obj 109 21 r \$0-loop-trigger;
#X obj 610 235 unpack;
#X obj 876 459 bng 19 250 50 0 empty empty empty 0 -10 0 12 #fcfcfc #000000 #000000;
#X obj 884 435 s \$0-loop-trigger;
#X obj 844 154 f 0;
#X obj 874 154 + 1;
#X obj 844 326 t f f;
#X obj 812 71 t f f;
#X obj 844 584 s \$0-vis-loop;
#X obj 150 46 r \$0-reset;
#X msg 150 70 stop;
#X obj 631 273 r \$0-loop-trigger;
#X obj 631 299 f;
#X obj 631 321 sel 1 0;
#X msg 631 347 start 0;
#X msg 654 371 stop;
#X obj 1120 301 r \$0-reset;
#X obj 1121 190 r \$0-loopsize-samps;
#X obj 1121 216 pack f \$0;
#X obj 140 124 tabplay~ \$0-ref-r;
#X obj 111 553 dac~;
#X obj 876 502 \$0;
#X msg 1121 242 \; \$2-ref-l resize \$1 \; \$2-ref-r resize \$1;
#X obj 522 575 s \$0-set-rec-2;
#X obj 522 515 t b f;
#X obj 1122 19 loadbang;
#X obj 265 434 +~;
#X obj 220 433 +~;
#X msg 876 528 \; \$1-ref-l normalize 0.1 \; \$1-ref-r normalize 0.1;
#X obj 10 21 r \$0-out-vol;
#X obj 10 46 dbtorms;
#X obj 10 94 line~;
#X msg 10 70 \$1 100;
#X obj 111 521 *~;
#X obj 141 521 *~;
#X obj 1122 44 \$0;
#X msg 1122 69 \; \$1-set-out-vol 80 \; \$1-reset bang \; pd dsp 1;
#X obj 902 407 s \$0-fade-out;
#X obj 902 380 f, f 6;
#X obj 914 45 / 100;
#X obj 844 180 mod 100;
#X obj 220 303 *~;
#X obj 190 303 *~;
#X obj 238 180 r \$0-fade-out;
#X msg 238 206 0 \$1;
#X obj 287 207 r \$0-loop-trigger;
#X obj 238 262 line~;
#X msg 287 233 1 20;
#X obj 941 351 * 2;
#X obj 876 351 sel 0 97;
#X obj 906 294 s \$0-time-lapse;
#X obj 906 224 + 20;
#X msg 1120 353 \; \$1-ref-l resize \$2 \; \$1-ref-r resize \$2 \; \$1-ref-l const 0 \; \$1-ref-r const 0 \; \$1-set-rec-1 0 \; \$1-set-rec-2 0 \; \$1-time-lapse pos 20 20;
#X msg 906 269 pos \$1 20;
#X obj 906 247 int;
#X obj 906 198 * 3.52;
#X obj 960 98 / 44.1;
#X obj 1121 139 array define \$0-ref-r 2.646e+06;
#X obj 1121 164 array define \$0-ref-l 2.646e+06;
#X obj 1120 327 pack \$0 2.646e+06;
#X obj 258 305 adc~ 1;
#X text 11 615 Anxe Faraldo \, 2023;
#X text 11 637 anxefaraldo@gmail.com;
#X connect 0 0 4 0;
#X connect 1 0 5 0;
#X connect 2 0 3 0;
#X connect 2 0 50 0;
#X connect 4 0 7 0;
#X connect 4 0 8 0;
#X connect 4 1 2 0;
#X connect 5 0 7 0;
#X connect 5 0 8 0;
#X connect 5 1 2 1;
#X connect 9 0 15 0;
#X connect 10 0 19 0;
#X connect 10 1 27 0;
#X connect 11 0 12 0;
#X connect 11 0 17 1;
#X connect 12 0 11 1;
#X connect 13 0 14 0;
#X connect 14 0 11 1;
#X connect 15 0 17 0;
#X connect 15 1 16 0;
#X connect 16 0 11 0;
#X connect 17 0 18 0;
#X connect 18 0 10 0;
#X connect 19 0 0 0;
#X connect 19 1 1 0;
#X connect 20 0 65 0;
#X connect 21 0 30 0;
#X connect 22 0 21 0;
#X connect 22 1 21 1;
#X connect 22 1 82 0;
#X connect 23 0 24 0;
#X connect 24 0 33 0;
#X connect 25 0 59 0;
#X connect 25 0 68 0;
#X connect 26 0 25 0;
#X connect 26 0 45 0;
#X connect 27 1 38 1;
#X connect 28 0 47 0;
#X connect 30 0 31 0;
#X connect 30 0 66 0;
#X connect 31 0 30 1;
#X connect 32 0 34 0;
#X connect 32 1 75 0;
#X connect 33 0 30 1;
#X connect 33 1 21 0;
#X connect 35 0 36 0;
#X connect 36 0 25 0;
#X connect 36 0 45 0;
#X connect 37 0 38 0;
#X connect 38 0 39 0;
#X connect 39 0 40 0;
#X connect 39 1 41 0;
#X connect 40 0 8 0;
#X connect 40 0 7 0;
#X connect 41 0 8 0;
#X connect 41 0 7 0;
#X connect 42 0 85 0;
#X connect 43 0 44 0;
#X connect 44 0 48 0;
#X connect 45 0 60 0;
#X connect 45 0 67 0;
#X connect 47 0 54 0;
#X connect 50 0 49 0;
#X connect 50 1 6 0;
#X connect 51 0 61 0;
#X connect 52 0 7 0;
#X connect 53 0 8 0;
#X connect 55 0 56 0;
#X connect 56 0 58 0;
#X connect 57 0 59 1;
#X connect 57 0 60 1;
#X connect 58 0 57 0;
#X connect 59 0 46 0;
#X connect 60 0 46 1;
#X connect 61 0 62 0;
#X connect 64 0 63 0;
#X connect 65 0 22 0;
#X connect 66 0 32 0;
#X connect 66 0 81 0;
#X connect 67 0 52 0;
#X connect 68 0 53 0;
#X connect 69 0 70 0;
#X connect 70 0 72 0;
#X connect 71 0 73 0;
#X connect 72 0 68 1;
#X connect 72 0 67 1;
#X connect 73 0 72 0;
#X connect 74 0 64 1;
#X connect 75 0 29 0;
#X connect 75 0 28 0;
#X connect 75 1 64 0;
#X connect 77 0 80 0;
#X connect 79 0 76 0;
#X connect 80 0 79 0;
#X connect 81 0 77 0;
#X connect 82 0 74 0;
#X connect 85 0 78 0;
#X connect 86 0 53 1;
#X connect 86 0 52 1;
#X restore 286 187 pd guts;
#X obj 20 20 cnv 8 8 210 empty \$0-time-lapse empty 20 12 0 12 #e3c6ff #404040 0;
#X obj 129 36 tgl 100 0 \$0-rec \$0-set-rec-1 REC\ LOOP 10 52 0 18 #9f9f9f #ffc7c6 #ffc7c6 0 1;
#X obj 239 36 tgl 100 0 \$0-rec \$0-set-rec-2 ITERATE 10 52 0 20 #7c7c7c #c6ffc7 #c6ffc7 0 1;
#X obj 21 144 hsl 316 40 0 100 0 0 \$0-out-vol \$0-set-out-vol OUT\ VOLUME 110 20 0 16 #606060 #c6feff #c6feff 0 1;
#X obj 19 36 bng 100 250 50 0 \$0-reset \$0-set-reset INIT/STOP 6 52 0 16 #bbbbbb #feffc6 #feffc6;
#X coords 0 0 1 1 200 140 0;
