#N canvas 312 23 968 979 10;
#X obj 268 433 cos~;
#X obj 268 486 +~ 0.5;
#X obj 268 462 *~ -0.5;
#X obj 268 520 *~;
#X obj 406 368 +~ 0.5;
#X obj 406 394 wrap~;
#X obj 406 433 cos~;
#X obj 406 487 +~ 0.5;
#X obj 406 460 *~ -0.5;
#X obj 406 525 *~;
#X obj 349 578 +~;
#X obj 328 161 - 1;
#X obj 328 130 pow;
#X obj 328 433 *~ 200;
#X obj 472 430 *~ 200, f 9;
#X obj 372 197 * 0.001;
#X obj 328 310 phasor~;
#X floatatom 440 145 7 0 0 1 window-size\ in\ milliseconds - - 16;
#X obj 440 87 loadbang;
#X obj 472 461 vd~ ps;
#X obj 328 462 vd~ ps;
#X obj 328 255 / 200, f 13;
#X obj 328 282 * -1;
#X obj 372 222 t b f;
#X obj 37 486 delwrite~ ps 1000;
#X msg 440 115 200;
#X obj 37 360 tabplay~ sound;
#N canvas 0 22 450 278 (subpatch) 0;
#X array sound 1.25599e+06 float 0;
#X coords 0 1 1.25599e+06 -1 200 140 1;
#X restore 37 170 graph;
#X obj 37 67 openpanel;
#X obj 37 119 soundfiler;
#X obj 37 35 bng 25 250 50 0 empty empty empty 17 7 0 10 #191919 #e1e1e1 #e1e1e1;
#X msg 37 92 read -resize \$1 sound;
#X obj 37 324 bng 25 250 50 0 empty empty empty 17 7 0 10 #191919 #e1e1e1 #e1e1e1;
#X floatatom 328 67 7 0 0 2 transposition\ in\ semitones - - 16;
#X obj 312 622 output~;
#X obj 156 360 adc~ 1;
#X obj 55 394 hradio 34 1 0 3 empty empty empty 0 -8 0 10 #191919 #e1e1e1 #e1e1e1 0;
#X obj 37 448 else/select~ 2 1, f 24;
#X msg 328 100 1.05946 \$1;
#X connect 0 0 2 0;
#X connect 1 0 3 0;
#X connect 2 0 1 0;
#X connect 3 0 10 0;
#X connect 4 0 5 0;
#X connect 5 0 14 0;
#X connect 5 0 6 0;
#X connect 6 0 8 0;
#X connect 7 0 9 0;
#X connect 8 0 7 0;
#X connect 9 0 10 1;
#X connect 10 0 34 1;
#X connect 10 0 34 0;
#X connect 11 0 21 0;
#X connect 12 0 11 0;
#X connect 13 0 20 0;
#X connect 14 0 19 0;
#X connect 15 0 23 0;
#X connect 16 0 0 0;
#X connect 16 0 13 0;
#X connect 16 0 4 0;
#X connect 17 0 13 1 32.................7B...H2+++Ou....x8+++yQ....;
#X connect 17 0 15 0 32.................R....D3+++uD....A9+++6A....;
#X connect 17 0 14 1 32.................7B...zC....u....8....bP....;
#X connect 18 0 25 0;
#X connect 19 0 9 1 32.................k....n7+++eI....J++++2B....;
#X connect 20 0 3 1 32.................d.....8+++uG....P++++eB....;
#X connect 21 0 22 0;
#X connect 22 0 16 0;
#X connect 23 0 21 0;
#X connect 23 1 21 1;
#X connect 25 0 17 0;
#X connect 26 0 37 0;
#X connect 28 0 31 0;
#X connect 30 0 28 0;
#X connect 31 0 29 0;
#X connect 32 0 26 0;
#X connect 33 0 38 0;
#X connect 35 0 37 1;
#X connect 36 0 37 0;
#X connect 37 0 24 0;
#X connect 38 0 12 0;
