#N canvas 123 92 978 581 16;
#X obj 16 102 samplerate~;
#X msg 16 74 bang;
#X floatatom 16 131 8 0 0 0 - - - 16;
#X obj 36 414 t b f;
#X floatatom 95 352 4 0 0 0 - - - 12;
#X obj 16 162 / 1000;
#X msg 80 315 0.25;
#X msg 139 315 0.5;
#N canvas 0 22 450 278 (subpatch) 0;
#X array osc 1000 float 0;
#X coords 0 1 999 -1 408 125 1 0 0;
#X restore 272 96 graph;
#X text 352 371 90;
#X text 454 371 180;
#X text 554 371 270;
#X text 659 371 360;
#X text 264 389 0;
#X text 464 389 pi;
#X text 344 389 pi/2;
#X text 659 389 2pi;
#X text 532 389 3(pi/2);
#X text 264 371 0;
#X text 264 407 0;
#X text 344 407 0.25;
#X text 454 407 0.5;
#X text 544 407 0.75;
#X text 664 407 1;
#X obj 95 383 wrap;
#X floatatom 95 414 4 0 0 0 - - - 12;
#X obj 0 0 cnv 15 712 37 empty empty Visualización\ de\ fase\ y\ periodo 5 20 0 24 #696969 #ffffff 0;
#X obj 3 46 cnv 15 520 24 empty empty Creación\ y\ procesamiento\ de\ sonido\ con\ Pd 5 11 0 16 #1e1e1e #ffffff 0;
#X obj 533 46 cnv 15 175 24 empty empty anxefaraldo@gmail.com 5 11 0 16 #c8c8c8 #000000 0;
#X text 264 353 0;
#X text 203 369 grados:;
#X text 204 353 puntos:;
#X text 194 386 radianes:;
#X text 204 404 phasor:;
#X msg 36 315 0;
#X text 106 73 Con esta operación \, dividimos la frecuencia de muestreo por el tamaño de la tabla para corresponder un periodo del oscilador con el area visible, f 14;
#X text 36 189 De este modo podemos comenzar a intuir que [phasor~] está diseñado para recorrer tablas como si fueran periodos y a acceder a cualquier punto de la tabla en ratio-de-audio con operaciones sencillas., f 21;
#N canvas 0 22 450 278 (subpatch) 0;
#X array phasor 1000 float 0;
#X coords 0 1 999 -1 408 106 1 0 0;
#X restore 272 247 graph;
#X obj 167 479 phasor~;
#X obj 115 518 tabwrite~ phasor;
#X obj 15 518 tabwrite~ osc;
#X obj 67 479 osc~;
#X text 272 436 x = tiempo en samples \, muestras \, o puntos.;
#X text 272 460 y = valores de amplitud en rango -1 a 1;
#X text 352 353 250;
#X text 454 353 500;
#X text 554 353 750;
#X text 659 353 999;
#X msg 194 315 0.75;
#X connect 0 0 2 0;
#X connect 1 0 0 0;
#X connect 2 0 5 0;
#X connect 3 0 39 0 32.................k.....F...PI....fA...PE....;
#X connect 3 0 40 0 32.................l....v9+++uI....r++++SE....;
#X connect 3 1 41 1 32.................W....PB...vE....j....zB....;
#X connect 3 1 38 1 32.................W....vI...vE....bB...zB....;
#X connect 4 0 24 0;
#X connect 4 0 3 0 32.................K....X7++++B....F++++6B....;
#X connect 5 0 40 0;
#X connect 5 0 41 0 32.................GD...LC...vAA...y....7P....;
#X connect 5 0 38 0 32.................GD...fJ...vAA...nB...7P....;
#X connect 6 0 3 0 32.................K....T8++++B....U++++CD....;
#X connect 7 0 3 0 32.................J....n4+++uB....Z9+++CD....;
#X connect 24 0 25 0;
#X connect 34 0 3 0;
#X connect 38 0 39 0 32.................G....z7++++A....M++++2.....;
#X connect 41 0 40 0 32.................G....z7++++A....M++++2.....;
#X connect 48 0 3 0 32.................J....L1+++uB....i8+++CD....;
