#N canvas 636 51 713 550 16;
#X obj 275 394 line~;
#X obj 244 268 pack 0 0;
#X obj 283 213 /;
#X obj 299 180 samplerate~;
#X obj 283 240 * 1000;
#X obj 217 297 list;
#X msg 275 365 0 0 \, \$1 \$2;
#X obj 254 150 t f f b;
#X obj 217 231 t b b;
#X obj 0 0 cnv 15 712 37 empty empty Lectura\ única\ de\ archivos\ con\ line~ 5 20 0 24 #696969 #ffffff 0;
#X obj 3 45 cnv 15 520 24 empty empty Creación\ y\ procesamiento\ de\ sonido\ con\ Pd 5 11 0 16 #1e1e1e #ffffff 0;
#X obj 533 45 cnv 15 175 24 empty empty anxefaraldo@gmail.com 5 11 0 16 #c8c8c8 #000000 0;
#N canvas 0 22 450 278 (subpatch) 0;
#X array mi-sonido 65559 float 0;
#X coords 0 1 65558 -1 200 150 1 0 0;
#X restore 10 170 graph;
#X obj 275 426 tabread4~ mi-sonido;
#X obj 275 465 out~;
#X obj 10 129 s duracion-en-puntos;
#N canvas 733 172 450 300 cargar-archivo-de-sonido 0;
#X obj 16 164 soundfiler;
#X obj 16 106 openpanel;
#X msg 105 167 resize \$1;
#X msg 16 135 read -resize \$1 mi-sonido;
#X obj 105 195 s fase;
#X floatatom 37 223 11 0 0 0 empty - - 8;
#X obj 16 77 inlet;
#X obj 16 245 outlet;
#X connect 0 0 5 0;
#X connect 0 0 2 0 48.................G....LD...vA....CA...f9+++eU....n++++WE...P6++++;
#X connect 0 0 7 0;
#X connect 1 0 3 0;
#X connect 2 0 4 0;
#X connect 3 0 0 0;
#X connect 6 0 1 0;
#X restore 10 103 pd cargar-archivo-de-sonido;
#X obj 10 72 bng 25 250 50 0 empty empty empty 17 7 0 10 #191919 #e1e1e1 #e1e1e1;
#X obj 254 120 r duracion-en-puntos;
#X obj 217 80 bng 25 250 50 0 empty empty empty 17 7 0 10 #191919 #e1e1e1 #e1e1e1;
#X text 10 327 [line~] es uno de los objetos más utilizados en Pd \, ya que es un ingrediente fundamental para suavizar señales y realizar transiciones entre los ratios de control y de audio. El objeto recibe paquetes de dos números e interpola valores numéricos de manera lineal en el tiempo especificado., f 25;
#X msg 14 462 valor-de-destino tiempo-de-llegada;
#X text 17 493 Su uso más evidente \, es para generar fundidos (fades) de entrada y de salida en señales de audio., f 23;
#X text 252 83 disparador / trigger;
#X text 304 296 de ese modo \, obtenemos los dos valores numéricos necesarios para crear una rampa (parecida al phasor) entre cero y la duración en puntos de mi-sonido., f 31;
#X text 349 267 1000*(dur/SR);
#X text 357 345 con este mensaje doble (separado por comas) \, conseguimos (1) saltar el punto de lectura al sample inicial (0 0) \, y acto seguido formatear un paquete con la duración en samples (\$1) y la duración en milisegundos (\$2), f 35;
#X text 342 211 En este ejemplo \, calculamos la duración de mi-sonido en milisegundos \, dividiendo la duración de la muestra entre la frecuencia de muestreo:, f 28;
#X connect 0 0 13 0;
#X connect 1 0 5 1;
#X connect 2 0 4 0;
#X connect 3 0 2 1;
#X connect 4 0 1 1;
#X connect 5 0 6 0 32.................I....nC...PB....5....PD....;
#X connect 6 0 0 0;
#X connect 7 0 1 0 32.................aA...b+++++V....2++++aF....;
#X connect 7 1 2 0;
#X connect 7 2 3 0;
#X connect 8 0 5 0;
#X connect 8 1 1 0 32.................M....v....PC....L....jA....;
#X connect 13 0 14 0;
#X connect 13 0 14 1 32.................L....XD....C....FA...fA....;
#X connect 16 0 15 0;
#X connect 17 0 16 0;
#X connect 18 0 7 0;
#X connect 19 0 8 0;
