#N canvas 414 23 720 550 12;
#X floatatom 16 238 10 0 0 0 - - - 0;
#X floatatom 42 473 14 0 0 0 - - - 12;
#X obj 34 324 samplerate~;
#X obj 17 355 /, f 5;
#X obj 34 298 loadbang;
#X floatatom 17 383 12 0 0 0 - - - 12;
#X msg 17 411 1 \$1;
#X obj 17 440 /;
#X obj 108 272 / 16;
#X floatatom 16 102 9 0 0 0 - - - 12;
#X obj 16 141 t b f;
#X obj 273 319 phasor~;
#X obj 273 408 +~ 1;
#X obj 273 381 *~;
#X obj 291 352 - 3;
#X msg 310 291 0;
#X obj 374 378 *;
#X obj 374 285 random 16;
#X obj 273 434 +~ 0, f 7;
#X floatatom 386 315 5 0 0 0 - - - 0;
#X obj 273 136 * 16, f 21;
#X obj 359 232 metro;
#X obj 386 100 t b f;
#X obj 383 201 /;
#X msg 383 177 1000 \$1;
#X obj 0 0 cnv 15 712 37 empty empty Troceado\ y\ lectura\ aleatoria\ de\ archivos 5 20 0 24 #696969 #ffffff 0;
#X obj 2 44 cnv 15 520 24 empty empty Creación\ y\ procesamiento\ de\ sonido\ con\ Pd 5 11 0 16 #1e1e1e #ffffff 0;
#X obj 532 44 cnv 15 175 24 empty empty anxefaraldo@gmail.com 5 11 0 16 #c8c8c8 #000000 0;
#N canvas 0 22 450 278 (subpatch) 0;
#X array mi-sonido 797942 float 0;
#X coords 0 1 797941 -1 134 105 1 0 0;
#X restore 514 254 graph;
#N canvas 733 172 450 300 cargar-archivo-de-sonido 0;
#X obj 16 164 soundfiler;
#X obj 16 106 openpanel;
#X msg 105 167 resize \$1;
#X msg 16 135 read -resize \$1 mi-sonido;
#X obj 105 195 s fase;
#X floatatom 37 223 11 0 0 0 empty - - 8;
#X obj 16 77 inlet;
#X obj 16 245 outlet;
#X connect 0 0 5 0;
#X connect 0 0 2 0 48.................G....LD...vA....CA...f9+++eU....n++++WE...P6++++;
#X connect 0 0 7 0;
#X connect 1 0 3 0;
#X connect 2 0 4 0;
#X connect 3 0 0 0;
#X connect 6 0 1 0;
#X restore 16 206 pd cargar-archivo-de-sonido;
#X obj 16 175 bng 25 250 50 0 empty empty empty 17 7 0 10 #191919 #e1e1e1 #e1e1e1;
#X obj 273 460 tabread4~ mi-sonido;
#X obj 273 496 out~;
#X obj 17 500 s freq-mi-sonido;
#X obj 273 75 r freq-mi-sonido;
#X obj 107 297 s dur-div;
#X obj 386 337 r dur-div;
#X obj 307 175 tgl 46 0 empty empty empty 17 7 0 10 #9f0021 #000000 #e1e1e1 0 1;
#X obj 359 258 t b b;
#X text 97 101 establece el número de divisiones (iguales) en las que quieres partir el archivo de sonido., f 24;
#X obj 51 175 s n-divs;
#X obj 119 238 r n-divs;
#X obj 386 75 r n-divs;
#X obj 425 254 r n-divs;
#X text 469 75 En este ejemplo \, dividimos mi-sonido en duraciones periódicas más cortas \, que luego reproduciremos de manera aleatoria. con la ayuda de un [metro] sincronizado con la duración de estas "subdivisiones"., f 32;
#X text 425 412 Con un objeto [random] \, añadimos un "offset" al punto de lectura mediante una suma antes de [tabread4~] \, lo que hace que phasor~ comience a leer desde este punto. Asimismo \, la frecuencia del [phasor~] equivale a la duración dividida entre el número de subdivisiones \, o \, el periodo de mi-sonido multiplicado por el número de subvivisiones., f 39;
#X text 113 383 duración en segundos de mi-sonido, f 20;
#X connect 0 0 3 0;
#X connect 0 0 8 0 32.................H....rD....B....KA....A....;
#X connect 2 0 3 1;
#X connect 3 0 5 0;
#X connect 4 0 2 0;
#X connect 5 0 6 0;
#X connect 6 0 7 0;
#X connect 7 0 1 0;
#X connect 7 0 33 0;
#X connect 8 0 35 0;
#X connect 9 0 10 0;
#X connect 10 0 30 0;
#X connect 10 1 40 0 32.................G....bA...vA....W....3.....;
#X connect 11 0 13 0;
#X connect 12 0 18 0;
#X connect 13 0 12 0;
#X connect 14 0 13 1;
#X connect 15 0 11 1;
#X connect 16 0 18 1 32.................Z....n6+++uF....59+++SB....;
#X connect 17 0 16 0;
#X connect 17 0 19 0;
#X connect 18 0 31 0;
#X connect 20 0 11 0;
#X connect 20 0 24 0 32.................J....3F...fB....tA...HC....;
#X connect 21 0 38 0;
#X connect 22 0 20 0 32.................H.....4+++OB....P9+++CA....;
#X connect 22 1 20 1;
#X connect 23 0 21 1;
#X connect 24 0 23 0;
#X connect 29 0 0 0;
#X connect 30 0 29 0;
#X connect 31 0 32 0;
#X connect 31 0 32 1 32.................H....XD....B....FA...HA....;
#X connect 34 0 20 0;
#X connect 36 0 16 1;
#X connect 36 0 14 0 48.................L....P7+++OC....D++++S++++un++++z++++K5+++O+++++;
#X connect 37 0 21 0 32.................E....PC...PA....z....fA....;
#X connect 38 0 15 0 32.................E.....8+++eA....P++++2.....;
#X connect 38 1 17 0;
#X connect 41 0 8 1;
#X connect 42 0 22 0;
#X connect 43 0 17 1;
