#N canvas 300 46 715 550 12;
#X obj 269 365 phasor~;
#X obj 268 457 +~ 1;
#X obj 268 432 *~, f 6;
#X obj 291 405 - 3;
#X msg 304 254 0;
#X text 333 253 reset phase;
#X obj 367 446 *, f 6;
#X obj 268 481 +~ 0, f 7;
#X obj 269 134 * 16, f 15;
#X obj 303 227 metro, f 6;
#X obj 345 101 t b f;
#X obj 362 194 /;
#X msg 362 168 1000 \$1;
#X obj 450 314 array size probs;
#N canvas 0 22 450 278 (subpatch) 0;
#X array probs 16 float 2;
#X coords 0 1 16 0 220 97 1 0 0;
#X restore 450 87 graph;
#X floatatom 333 405 5 0 0 0 empty - - 12;
#X obj -1 -1 cnv 15 712 37 empty empty Lectura\ aleatoria\ con\ probabilidades 5 20 0 24 #696969 #ffffff 0;
#X obj 2 44 cnv 15 520 24 empty empty Creación\ y\ procesamiento\ de\ sonido\ con\ Pd 5 11 0 16 #1e1e1e #ffffff 0;
#X obj 532 44 cnv 15 175 24 empty empty anxefaraldo@gmail.com 5 11 0 16 #c8c8c8 #000000 0;
#X floatatom 14 255 10 0 0 0 - - - 0;
#X floatatom 40 470 11 0 0 1 Hz - - 12;
#X obj 36 317 samplerate~;
#X obj 15 342 /, f 5;
#X obj 36 291 loadbang;
#X floatatom 15 370 9 0 0 1 secs - - 12;
#X msg 15 398 1 \$1;
#X obj 15 427 /;
#X obj 129 292 / 16, f 7;
#X floatatom 141 133 9 0 0 0 - - - 12;
#X text 14 83 establece el número de divisiones (iguales) en las que quieres partir el archivo de sonido., f 17;
#X obj 141 80 loadbang;
#X msg 141 106 16;
#X obj 164 264 r n-steps;
#X obj 164 197 s n-steps;
#X text 64 397 inverso del la duración = frecuencia en Hz (para usar con phasor), f 20;
#X obj 15 499 s freq-file;
#X obj 270 76 r freq-file;
#X obj 395 374 r step-len-samps;
#X obj 128 317 s step-len-samps;
#X obj 345 76 r n-steps;
#X obj 303 170 tgl 46 0 empty empty empty 17 7 0 10 #9f0021 #000000 #e1e1e1 0 1;
#X obj 367 347 array random probs;
#X obj 303 281 t f b;
#X obj 367 314 bng 25 250 50 0 empty empty empty 17 7 0 10 #e4e4e4 #4d4d4d #373737;
#X obj 268 506 tabread4~ mi-sonido;
#X obj 147 481 out~;
#X obj 450 287 r n-steps;
#X text 431 401 array random es el ingrediente principal que asigna valores aleatorios con las probabilidades reflejadas en la tabla "probs", f 28;
#X text 450 193 cada elemento de la tabla "probs" representa la probabilidad de que un step determinado sea reproducida. Cambia su tamaño dinámicamente según el valor de n-steps., f 32;
#X obj 14 193 bng 25 250 50 0 empty empty load-sound 30 13 0 10 #e4e4e4 #4d4d4d #373737;
#N canvas 733 172 450 300 cargar-sonido 0;
#X obj 11 153 soundfiler;
#X obj 11 52 openpanel;
#X msg 100 156 resize \$1;
#X msg 11 124 read -resize \$1 mi-sonido;
#X obj 100 184 s fase;
#X floatatom 32 212 11 0 0 0 empty - - 8;
#X obj 11 23 inlet;
#X obj 11 234 outlet;
#N canvas 0 22 450 278 (subpatch) 0;
#X array mi-sonido 65559 float 0;
#X coords 0 1 65558 -1 134 105 1 0 0;
#X restore 239 99 graph;
#X obj 11 88 symbol;
#X obj 115 52 inlet;
#X text 162 51 reload;
#X connect 0 0 5 0;
#X connect 0 0 2 0 48.................G....LD...vA....CA...f9+++eU....n++++WE...P6++++;
#X connect 0 0 7 0;
#X connect 1 0 9 0;
#X connect 2 0 4 0;
#X connect 3 0 0 0;
#X connect 6 0 1 0;
#X connect 9 0 3 0;
#X connect 10 0 9 0;
#X restore 14 227 pd cargar-sonido;
#X obj 141 158 t b f;
#X text 178 105 random-steps;
#X msg 566 283 const 0.5;
#X obj 566 314 s probs;
#X connect 0 0 2 0;
#X connect 1 0 7 0;
#X connect 2 0 1 0;
#X connect 3 0 2 1;
#X connect 4 0 42 0;
#X connect 6 0 7 1 32.................G....D7++++A....A++++CA....;
#X connect 7 0 44 0;
#X connect 8 0 0 0;
#X connect 8 0 12 0 32.................I....zE...PB....cA...7.....;
#X connect 9 0 4 0;
#X connect 10 0 8 0 32.................G....T6++++A....09+++6B....;
#X connect 10 1 8 1;
#X connect 11 0 9 1;
#X connect 12 0 11 0;
#X connect 19 0 22 0;
#X connect 19 0 27 0 32.................J....LG...fB....yA...LA....;
#X connect 21 0 22 1;
#X connect 22 0 24 0;
#X connect 23 0 21 0;
#X connect 24 0 25 0;
#X connect 25 0 26 0;
#X connect 26 0 20 0;
#X connect 26 0 35 0;
#X connect 27 0 38 0;
#X connect 28 0 51 0;
#X connect 30 0 31 0;
#X connect 31 0 28 0;
#X connect 32 0 27 1;
#X connect 36 0 8 0;
#X connect 37 0 6 1;
#X connect 37 0 3 0 32.................F....j4+++uA....Y9+++y.....;
#X connect 39 0 10 0;
#X connect 40 0 9 0;
#X connect 41 0 6 0;
#X connect 41 0 15 0;
#X connect 42 0 0 1;
#X connect 42 1 43 0 32.................G....TC...vA....0....3.....;
#X connect 43 0 41 0;
#X connect 44 0 45 0;
#X connect 44 0 45 1;
#X connect 46 0 13 0;
#X connect 49 0 50 0;
#X connect 50 0 19 0;
#X connect 51 0 50 1 32.................Y....j8+++eF....Y++++KC....;
#X connect 51 1 33 0 32.................D....v.....A....L....PA....;
#X connect 53 0 54 0;
